<svg width="2781" height="318" viewBox="0 0 2781 318" fill="none" xmlns="http://www.w3.org/2000/svg">
<path d="M2780.19 318C2688.95 318 2608.78 310.628 2535.12 295.461C2469.57 281.964 2417.8 264.201 2372.13 248.53C2291.08 220.718 2227.06 198.749 2085.14 198.749C1943.23 198.749 1879.21 220.718 1798.15 248.53C1752.48 264.201 1700.72 281.964 1635.17 295.461C1561.5 310.627 1481.34 318 1390.1 318C1298.86 318 1218.69 310.628 1145.03 295.461C1079.47 281.964 1027.71 264.201 982.038 248.53C900.985 220.718 836.965 198.749 695.048 198.749C553.131 198.749 489.111 220.718 408.059 248.53C362.389 264.201 310.625 281.964 245.072 295.461C171.405 310.627 91.241 318 0 318V119.251C141.917 119.251 205.937 97.2825 286.99 69.4699C332.66 53.7986 384.423 36.0365 449.976 22.5402C523.643 7.37329 603.807 0 695.048 0C786.289 0 866.453 7.37329 940.12 22.5402C1005.67 36.0365 1057.44 53.7986 1103.11 69.4699C1184.16 97.2818 1248.18 119.251 1390.1 119.251C1532.01 119.251 1596.03 97.2825 1677.08 69.4699C1722.76 53.7986 1774.52 36.0365 1840.07 22.5402C1913.74 7.37329 1993.9 0 2085.14 0C2176.38 0 2256.55 7.37329 2330.22 22.5402C2395.77 36.0365 2447.53 53.7986 2493.2 69.4699C2574.25 97.2818 2638.27 119.251 2780.19 119.251L2780.19 318Z" fill="#3E3F41"/>
<path d="M2780.19 308.494C2577.63 308.494 2471.53 272.087 2377.92 239.967C2295.34 211.628 2230.11 189.244 2085.14 189.244C1940.18 189.244 1874.95 211.628 1792.36 239.967C1698.76 272.088 1592.66 308.494 1390.1 308.494C1187.53 308.494 1081.44 272.087 987.828 239.967C905.242 211.628 840.011 189.244 695.048 189.244C550.085 189.244 484.853 211.628 402.269 239.967C308.66 272.088 202.561 308.494 0 308.494V128.755C144.963 128.755 210.194 106.372 292.779 78.033C386.388 45.9118 492.487 9.50488 695.048 9.50488C897.609 9.50488 1003.71 45.9118 1097.32 78.033C1179.9 106.372 1245.13 128.755 1390.1 128.755C1535.06 128.755 1600.29 106.372 1682.88 78.033C1776.48 45.9118 1882.58 9.50488 2085.14 9.50488C2287.7 9.50488 2393.8 45.9118 2487.41 78.033C2569.99 106.372 2635.23 128.755 2780.19 128.755V308.494Z" fill="white"/>
<path d="M2780.19 300.717C2580.12 300.717 2475.22 264.72 2382.66 232.96C2302.14 205.329 2232.6 181.467 2085.14 181.467C1937.69 181.467 1868.15 205.329 1787.63 232.96C1695.07 264.72 1590.17 300.717 1390.1 300.717C1190.03 300.717 1085.12 264.72 992.567 232.96C912.045 205.329 842.505 181.467 695.049 181.467C547.594 181.467 478.053 205.329 397.532 232.96C304.976 264.72 200.07 300.717 0.000976562 300.717V136.532C147.457 136.532 216.997 112.67 297.519 85.0395C390.075 53.2795 494.98 17.2822 695.049 17.2822C895.118 17.2822 1000.02 53.2795 1092.58 85.0395C1173.1 112.67 1242.64 136.532 1390.1 136.532C1537.55 136.532 1607.09 112.67 1687.61 85.0402C1780.17 53.2803 1885.08 17.2822 2085.14 17.2822C2285.21 17.2822 2390.12 53.2795 2482.67 85.0395C2563.19 112.67 2632.73 136.532 2780.19 136.532V300.717Z" fill="#3E3F41"/>
<path d="M2780.19 223.378C2764.13 223.378 2748.32 223.12 2733.19 222.61L2733.82 213.115C2748.74 213.617 2764.34 213.873 2780.19 213.873V223.378Z" fill="white"/>
<path d="M1343.86 222.635C1309.4 221.495 1277.84 219.095 1247.36 215.298L1249.66 205.935C1279.57 209.662 1310.59 212.018 1344.48 213.141L1343.86 222.635ZM1440.79 222.48L1440.11 212.987C1473.95 211.748 1504.94 209.262 1534.85 205.387L1537.24 214.738C1506.76 218.687 1475.21 221.22 1440.79 222.48ZM2636.5 215.18C2603.88 211.082 2573.07 205.415 2542.32 197.859L2546.68 188.873C2576.75 196.265 2606.89 201.808 2638.82 205.819L2636.5 215.18ZM148.143 214.609L145.735 205.259C177.49 201.108 207.567 195.409 237.684 187.836L242.125 196.8C211.338 204.54 180.596 210.366 148.143 214.609ZM1153.19 198.094C1119.25 189.796 1088.91 179.984 1063.7 171.48L1069.41 162.89C1095.54 171.703 1124.29 180.979 1157.52 189.104L1153.19 198.094ZM1631.23 197.049L1626.81 188.08C1659.3 179.954 1688.28 170.522 1714.77 161.54L1720.5 170.123C1693.69 179.218 1664.31 188.775 1631.23 197.049ZM2452.84 171.155C2445.11 168.544 2437.44 165.912 2429.77 163.28C2409.18 156.215 2387.89 148.91 2365.79 142.165L2371.05 133.427C2393.41 140.255 2414.84 147.607 2435.56 154.716C2443.2 157.339 2450.85 159.963 2458.55 162.566L2452.84 171.155ZM331.376 169.793L325.636 161.213C331.99 159.056 338.311 156.886 344.632 154.717C366.612 147.175 389.341 139.376 413.238 132.188L418.429 140.944C394.835 148.041 372.257 155.788 350.422 163.281C344.084 165.456 337.747 167.631 331.376 169.793ZM976.714 142.477C945.129 132.801 916.576 125.682 886.857 120.072L890.274 110.883C920.642 116.615 949.783 123.88 981.985 133.744L976.714 142.477ZM1807.48 141.259L1802.28 132.507C1834.34 122.827 1863.55 115.702 1894.21 110.086L1897.54 119.291C1867.53 124.787 1838.92 131.767 1807.48 141.259ZM2275.84 119.862C2245.97 114.269 2215.32 110.285 2182.13 107.683L2183.59 98.2349C2217.43 100.889 2248.72 104.956 2279.23 110.67L2275.84 119.862ZM508.559 119.087L505.261 109.875C535.757 104.334 567.071 100.417 600.991 97.9L602.373 107.354C569.105 109.823 538.419 113.662 508.559 119.087ZM793.243 107.779C763.603 105.42 731.501 104.193 697.83 104.131L697.864 94.6252C732.017 94.6879 764.606 95.936 794.724 98.3325L793.243 107.779ZM1991.27 107.445L1989.87 97.992C2019.53 95.7558 2051.58 94.623 2085.14 94.623L2086.71 94.6237L2086.69 104.129L2085.15 104.129C2052.05 104.128 2020.47 105.243 1991.27 107.445Z" fill="white"/>
<path d="M0 223.378V213.873C15.853 213.873 31.455 213.617 46.371 213.115L47.001 222.61C31.876 223.119 16.062 223.378 0 223.378Z" fill="white"/>
</svg>
