<svg width="1920" height="431" viewBox="0 0 1920 431" fill="none" xmlns="http://www.w3.org/2000/svg">
<path d="M1136.95 351.591H1025.05V416.719H1136.95V351.591Z" fill="#11D0D4"/>
<path d="M1809.17 354.955H1777.74V423.449H1809.17V354.955Z" fill="#11D0D4"/>
<path d="M1599.21 325.867H1542.64V425.58H1599.21V325.867Z" fill="#11D0D4"/>
<path d="M1788.05 280.979H1675.69V422.532H1788.05V280.979Z" fill="#11D0D4"/>
<path d="M1216.21 82.0742H1178.4V228.891H1216.21V82.0742Z" fill="#4A4A66"/>
<path d="M1041.8 299.665H1008.29V412.611H1041.8V299.665Z" fill="#11D0D4"/>
<path d="M959.326 310.381H908.636V428.267H959.326V310.381Z" fill="#11D0D4"/>
<path d="M991.973 181.07H953.068V416.719H991.973V181.07Z" fill="#4A4A66"/>
<path d="M991.973 416.718H998.845V204.044H991.973V416.718Z" fill="#11D0D4"/>
<path d="M944.719 416.718H953.067V256.882H944.719V416.718Z" fill="#4A4A66"/>
<path d="M933.799 286.463H859.316V416.719H933.799V286.463Z" fill="#4A4A66"/>
<path d="M820.849 235.388H841.312L859.317 275.497V416.719L820.849 412.608V235.388Z" fill="#11D0D4"/>
<path d="M760.281 286.463H720.923V416.719H760.281V286.463Z" fill="#11D0D4"/>
<path d="M720.922 219.446H643.235V416.718H720.922V219.446Z" fill="#4A4A66"/>
<path d="M635.458 275.497H603.949V387.335H635.458V275.497Z" fill="#11D0D4"/>
<path d="M559.891 181.07H484.132V416.719H559.891V181.07Z" fill="#11D0D4"/>
<path d="M498.989 175.878H505.169L502.078 104.836L498.989 175.878Z" fill="#11D0D4"/>
<path d="M534.577 175.878H540.758L537.668 104.836L534.577 175.878Z" fill="#11D0D4"/>
<path d="M552.91 168.767H488.93V181.07H552.91V168.767Z" fill="#11D0D4"/>
<path d="M515.226 156.463H488.93V168.766H515.226V156.463Z" fill="#11D0D4"/>
<path d="M550.815 156.463H524.519V168.766H550.815V156.463Z" fill="#11D0D4"/>
<path d="M603.948 228.892H540.757V416.719H603.948V228.892Z" fill="#4A4A66"/>
<path d="M404.112 327.024H312.802V403.103H404.112V327.024Z" fill="#4A4A66"/>
<path d="M478.731 246.055H420.314V416.719H478.731V246.055Z" fill="#4A4A66"/>
<path d="M1090.77 268.259L1061.97 228.892V416.719H1090.77V268.259Z" fill="#11D0D4"/>
<path d="M300.282 175.878H217.04V423.449H300.282V175.878Z" fill="#11D0D4"/>
<path d="M227.341 198.841H179.95V428.266H227.341V198.841Z" fill="#4A4A66"/>
<path d="M166.204 219.446H100.096V286.462H166.204V219.446Z" fill="#11D0D4"/>
<path d="M159.519 267.71H65.3609V423.451H159.519V267.71Z" fill="black"/>
<path d="M85.4365 267.71H45.2871V428.269H85.4365V267.71Z" fill="black"/>
<path d="M191.572 267.71H151.424V428.269H191.572V267.71Z" fill="black"/>
<path d="M114.559 267.71H94.952V428.269H114.559V267.71Z" fill="black"/>
<path d="M142.751 267.71H123.143V428.269H142.751V267.71Z" fill="black"/>
<path d="M191.572 246.055H45.2871V267.708H191.572V246.055Z" fill="#4A4A66"/>
<path d="M245.475 246.055H209.211V423.449H245.475V246.055Z" fill="black"/>
<path d="M312.802 307.752H259.23V423.451H312.802V307.752Z" fill="black"/>
<path d="M409.9 365.6H292.041V423.449H409.9V365.6Z" fill="black"/>
<path d="M394.65 299.665H342.727V423.452H394.65V299.665Z" fill="black"/>
<path d="M389.295 251.332H348.085V299.664H389.295V251.332Z" fill="black"/>
<path d="M348.085 251.332L359.258 234.042C364.216 226.369 373.162 226.369 378.12 234.042L389.293 251.332H348.085Z" fill="black"/>
<path d="M364.568 239.809H371.986L368.278 185.332L364.568 239.809Z" fill="black"/>
<path d="M451.109 322.9H409.899V416.718H451.109V322.9Z" fill="black"/>
<path d="M503.17 334.753H465.095V416.719H503.17V334.753Z" fill="black"/>
<path d="M559.892 375.736H513.27V416.719H559.892V375.736Z" fill="black"/>
<path d="M666.344 369.81H573.878V416.718H666.344V369.81Z" fill="black"/>
<path d="M658.185 327.024H612.73V387.335H658.185V327.024Z" fill="black"/>
<path d="M751.817 334.753H681.107V416.719H751.817V334.753Z" fill="black"/>
<path d="M807.764 334.753H768.912V428.269H807.764V334.753Z" fill="black"/>
<path d="M869.15 334.753H828.744V416.719H869.15V334.753Z" fill="black"/>
<path d="M953.068 361.556H887.02V416.717H953.068V361.556Z" fill="black"/>
<path d="M1013.68 334.753H963.169V416.719H1013.68V334.753Z" fill="black"/>
<path d="M1061.97 303.592L1036.21 268.258V416.718H1061.97V303.592Z" fill="black"/>
<path d="M1065.01 303.592L1090.77 268.258V416.718H1065.01V303.592Z" fill="black"/>
<path d="M1061.97 228.892V303.592L1036.21 268.259L1061.97 228.892Z" fill="#11D0D4"/>
<path d="M577.756 219.446H550.817V251.331H577.756V219.446Z" fill="#4A4A66"/>
<path d="M746.366 275.497H728.56V286.461H746.366V275.497Z" fill="#11D0D4"/>
<path d="M820.849 196.498H760.281V412.607H820.849V196.498Z" fill="#4A4A66"/>
<path d="M1150.05 235.388H1097.65V416.717H1150.05V235.388Z" fill="#4A4A66"/>
<path d="M1150.05 318.083H1123.85V423.449H1150.05V318.083Z" fill="black"/>
<path d="M1229.95 228.288H1150.05V423.451H1229.95V228.288Z" fill="black"/>
<path d="M1193.87 219.446H1150.05V228.287H1193.87V219.446Z" fill="black"/>
<path d="M1216.21 76.3745H1193.87V82.0748H1216.21V76.3745Z" fill="#4A4A66"/>
<path d="M1204.18 87.7729H1209.33L1204.18 0V87.7729Z" fill="#4A4A66"/>
<path d="M1229.95 417.98V185.281L1261.86 117.353L1294.39 185.281V428.266L1229.95 423.975V417.98Z" fill="#4A4A66"/>
<path d="M1261.86 117.353L1248 146.86L1294.39 185.281L1261.86 117.353Z" fill="#11D0D4"/>
<path d="M1248 146.859V423.975L1254.05 425.58V154.595L1248 146.859Z" fill="black"/>
<path d="M1319.3 286.463H1294.39V423.451H1319.3V286.463Z" fill="#11D0D4"/>
<path d="M1361.4 7.98047H1306.85V425.252H1361.4V7.98047Z" fill="#4A4A66"/>
<path d="M1361.4 425.25H1378.58V7.97894H1361.4V425.25Z" fill="#11D0D4"/>
<path d="M1361.4 0H1319.3V7.97853H1361.4V0Z" fill="#11D0D4"/>
<path d="M1494.65 196.498H1388.96V425.252H1494.65V196.498Z" fill="#11D0D4"/>
<path d="M1553.25 212.571H1494.65V425.252H1553.25V212.571Z" fill="#4A4A66"/>
<path d="M1637.99 280.979H1574V423.449H1637.99V280.979Z" fill="#11D0D4"/>
<path d="M1637.99 280.979L1615.51 252.955L1591.3 286.22L1637.99 280.979Z" fill="#11D0D4"/>
<path d="M1713.39 303.593H1637.99V423.451H1713.39V303.593Z" fill="black"/>
<path d="M1768.59 331.387H1737.03V423.449H1768.59V331.387Z" fill="black"/>
<path d="M1874.72 256.883H1823.09V425.252H1874.72V256.883Z" fill="#11D0D4"/>
<path d="M1523.95 341.066H1442.29V423.449H1523.95V341.066Z" fill="black"/>
<path d="M1404.87 358.53H1335.59V428.422H1404.87V358.53Z" fill="black"/>
<path d="M0 427.375L59.9997 425.085L119.999 423.358L239.999 419.945L359.998 417.441C400 416.612 439.999 416.193 479.998 415.548L539.998 414.661L599.997 414.095L719.997 413.023L960.002 412.225L1200 413.061L1320 414.126L1380 414.708L1440 415.589C1480 416.235 1520 416.632 1560 417.483L1680 419.985L1800 423.378L1860 425.096L1920 427.372V429.156L960.002 430.048L0 429.158V427.375Z" fill="black"/>
</svg>
