<svg width="151" height="162" viewBox="0 0 151 162" fill="none" xmlns="http://www.w3.org/2000/svg">
<path d="M126.669 97.1139L114.631 89.8385L107.833 121.094L136.75 152.35L148.788 159.626L126.669 97.1139Z" fill="#FFBE3B"/>
<path d="M101.085 81.6512L88.9189 109.565L112.144 137.478L136.75 152.35L114.631 89.8385L101.085 81.6512Z" fill="#FFD45E"/>
<path d="M101.085 81.6512L112.145 137.478L75.5005 159.626L57.8052 128.37L75.5005 97.114L101.085 81.6512Z" fill="#FFE88C"/>
<path d="M75.5001 97.114V159.626L38.8561 137.478L26.6968 109.565L49.9157 81.6512L75.5001 97.114Z" fill="#FFD45E"/>
<path d="M49.916 81.6512L38.8564 137.478L2.2124 159.626L24.3315 97.114L49.916 81.6512Z" fill="#FFE88C"/>
<path d="M75.5 2.37259V121.025C77.0761 121.025 78.4557 120.138 79.2393 118.807C79.2446 118.807 109.202 67.8402 109.202 67.8402C113.072 61.2523 115.314 53.4513 115.314 45.0874C115.314 21.4968 97.4888 2.37259 75.5 2.37259Z" fill="#FC5E32"/>
<path d="M78.4087 118.807C78.4128 118.807 101.713 67.8402 101.713 67.8402C104.723 61.2523 106.467 53.4513 106.467 45.0874C106.467 21.4968 92.603 2.37259 75.5005 2.37259C53.5114 2.37259 35.686 21.4968 35.686 45.0874C35.686 53.4513 37.9286 61.2526 41.8012 67.8402C41.7983 67.8402 71.7556 118.807 71.7556 118.807C72.5445 120.138 73.9244 121.025 75.5002 121.025C76.7262 121.025 77.7991 120.138 78.4087 118.807Z" fill="#FF7D4A"/>
<path d="M75.5005 68.8179C87.7166 68.8179 97.6196 58.1934 97.6196 45.0874C97.6196 31.9814 87.7166 21.3569 75.5005 21.3569C63.2844 21.3569 53.3813 31.9814 53.3813 45.0874C53.3813 58.1934 63.2844 68.8179 75.5005 68.8179Z" fill="white"/>
<path d="M75.5 30.8491V59.3257C82.8297 59.3257 88.7715 52.951 88.7715 45.0874C88.7715 37.2237 82.8294 30.8491 75.5 30.8491Z" fill="#FF7D4A"/>
<path d="M79.9243 45.0874C79.9243 37.2237 77.9436 30.8491 75.5005 30.8491C68.1708 30.8491 62.229 37.2237 62.229 45.0874C62.229 52.951 68.1708 59.3257 75.5005 59.3257C77.9436 59.3257 79.9243 52.951 79.9243 45.0874Z" fill="#FF9A6B"/>
<path d="M150.856 158.784L128.737 96.2718C128.553 95.7526 128.205 95.3191 127.755 95.0467L104.194 80.8065L111.073 69.1058C115.294 61.919 117.526 53.6137 117.526 45.0878C117.526 20.2262 98.6732 0 75.4998 0C52.3263 0 33.4735 20.2262 33.4735 45.0878C33.4735 53.6159 35.706 61.9215 39.9299 69.1065C40.0429 69.2992 46.8066 80.8071 46.8066 80.8071L23.2456 95.0467C22.7947 95.3191 22.447 95.7526 22.2632 96.2718L0.144131 158.784C-0.186476 159.718 0.0639127 160.774 0.769659 161.426C1.47629 162.078 2.4864 162.185 3.29772 161.694L38.8558 140.202L74.4139 161.694C75.0878 162.101 75.9115 162.101 76.5854 161.694L112.143 140.202L147.702 161.694C148.041 161.899 148.415 162 148.787 162C149.305 162 149.819 161.805 150.23 161.426C150.936 160.774 151.186 159.718 150.856 158.784ZM77.712 122.99C79.0957 122.466 80.2955 121.457 81.1098 120.074C81.2221 119.884 100.052 87.8532 100.052 87.8532L109.643 136.266L77.712 155.565V122.99ZM43.6719 66.5743C39.8942 60.1481 37.8976 52.7182 37.8976 45.0875C37.8976 22.8429 54.7659 4.74577 75.5001 4.74577C96.2342 4.74577 113.103 22.8429 113.103 45.0875C113.103 52.7167 111.107 60.1471 107.331 66.5743C107.036 67.0764 77.8913 116.661 77.3829 117.517C77.3781 117.525 77.374 117.532 77.3696 117.54C76.9593 118.236 76.2607 118.652 75.5001 118.652C74.7389 118.652 74.037 118.234 73.6261 117.541C73.3306 117.038 44.1278 67.3555 43.6819 66.5917C43.6786 66.586 43.6751 66.5803 43.6719 66.5743ZM26.1146 98.7597L46.7343 86.2974L43.1422 104.429C42.8883 105.711 43.6509 106.971 44.8456 107.243C45.0008 107.279 45.1556 107.296 45.3078 107.296C46.3297 107.296 47.2481 106.531 47.469 105.416L50.9482 87.8548L69.8883 120.08C70.7055 121.46 71.9062 122.467 73.2876 122.99V155.566L41.3573 136.266L45.6298 114.7C45.8838 113.418 45.1211 112.158 43.9264 111.885C42.7302 111.611 41.5567 112.432 41.3028 113.713L36.8999 135.936L6.44748 154.343L26.1146 98.7597ZM114.1 135.936L104.266 86.2971L124.885 98.7597L144.553 154.343L114.1 135.936Z" fill="black"/>
<path d="M99.8315 45.0874C99.8315 30.6941 88.9165 18.9839 75.5005 18.9839C62.0845 18.9839 51.1694 30.6941 51.1694 45.0874C51.1694 59.4807 62.0845 71.1909 75.5005 71.1909C88.9165 71.1909 99.8315 59.4807 99.8315 45.0874ZM55.5933 45.0874C55.5933 33.3108 64.5235 23.73 75.5005 23.73C86.4775 23.73 95.4077 33.3108 95.4077 45.0874C95.4077 56.864 86.4775 66.4448 75.5005 66.4448C64.5235 66.4448 55.5933 56.864 55.5933 45.0874Z" fill="black"/>
<path d="M90.9839 45.0874C90.9839 35.9281 84.0379 28.4761 75.5005 28.4761C66.9631 28.4761 60.0171 35.9281 60.0171 45.0874C60.0171 54.2467 66.9631 61.6987 75.5005 61.6987C84.0379 61.6987 90.9839 54.2467 90.9839 45.0874ZM64.4409 45.0874C64.4409 38.5448 69.4021 33.2222 75.5005 33.2222C81.5989 33.2222 86.5601 38.5448 86.5601 45.0874C86.5601 51.6301 81.5989 56.9526 75.5005 56.9526C69.4021 56.9526 64.4409 51.6301 64.4409 45.0874Z" fill="black"/>
</svg>
