<svg width="162" height="162" viewBox="0 0 162 162" fill="none" xmlns="http://www.w3.org/2000/svg">
<path d="M81 162C125.735 162 162 125.735 162 81C162 36.2649 125.735 0 81 0C36.2649 0 0 36.2649 0 81C0 125.735 36.2649 162 81 162Z" fill="#0092FF"/>
<path d="M118.178 130.043V31.957C118.178 26.7146 113.928 22.4648 108.686 22.4648H53.3145C48.0721 22.4648 43.8223 26.7146 43.8223 31.957V130.043C43.8223 135.285 48.0721 139.535 53.3145 139.535H108.686C113.928 139.535 118.178 135.285 118.178 130.043Z" fill="#003870"/>
<path d="M108.686 25.6289H53.3145C49.8195 25.6289 46.9863 28.4621 46.9863 31.957V130.043C46.9863 133.538 49.8195 136.371 53.3145 136.371H108.686C112.18 136.371 115.014 133.538 115.014 130.043V31.957C115.014 28.4621 112.18 25.6289 108.686 25.6289Z" fill="#E6F7FF"/>
<path d="M111.85 33.5391V115.805C111.85 118.425 109.723 120.551 107.104 120.551H54.8965C52.2766 120.551 50.1504 118.425 50.1504 115.805V33.5391C50.1504 30.9192 52.2766 28.793 54.8965 28.793H63.5977L66.9611 34.3997C67.8185 35.8298 69.3626 36.7031 71.03 36.7031H90.9668C92.6343 36.7031 94.1783 35.8298 95.0358 34.3997L98.3992 28.793H107.1C109.72 28.793 111.846 30.9192 111.846 33.5391H111.85Z" fill="#003870"/>
<path d="M54.8965 117.387C54.0232 117.387 53.3145 116.678 53.3145 115.805V33.5391C53.3145 32.6658 54.0232 31.957 54.8965 31.957H61.8068L64.2495 36.026C65.6701 38.3959 68.271 39.8672 71.0332 39.8672H90.97C93.7322 39.8672 96.3299 38.3959 97.7537 36.026L100.196 31.957H107.107C107.98 31.957 108.689 32.6658 108.689 33.5391V115.805C108.689 116.678 107.98 117.387 107.107 117.387H54.8996H54.8965Z" fill="#5CC1FF"/>
<path d="M88.1191 34.3301H73.8809C73.0076 34.3301 72.2988 33.6213 72.2988 32.748C72.2988 31.8748 73.0076 31.166 73.8809 31.166H88.1191C88.9924 31.166 89.7012 31.8748 89.7012 32.748C89.7012 33.6213 88.9924 34.3301 88.1191 34.3301Z" fill="#003870"/>
<path d="M85.7461 124.506H76.2539C74.0696 124.506 72.2988 126.277 72.2988 128.461C72.2988 130.645 74.0696 132.416 76.2539 132.416H85.7461C87.9304 132.416 89.7012 130.645 89.7012 128.461C89.7012 126.277 87.9304 124.506 85.7461 124.506Z" fill="#5CC1FF"/>
<path d="M85.7461 133.998H76.2539C73.2006 133.998 70.7168 131.514 70.7168 128.461C70.7168 125.408 73.2006 122.924 76.2539 122.924H85.7461C88.7994 122.924 91.2832 125.408 91.2832 128.461C91.2832 131.514 88.7994 133.998 85.7461 133.998ZM76.2539 126.088C74.944 126.088 73.8809 127.151 73.8809 128.461C73.8809 129.771 74.944 130.834 76.2539 130.834H85.7461C87.056 130.834 88.1191 129.771 88.1191 128.461C88.1191 127.151 87.056 126.088 85.7461 126.088H76.2539Z" fill="#003870"/>
<path d="M63.762 87.8027C59.4399 87.7964 55.912 84.3096 55.8392 80.0033L55.6937 77.9657C55.6905 77.8992 55.6874 77.8328 55.6874 77.7663C55.662 74.3966 57.0131 71.106 59.3988 68.7234C64.4107 63.4236 74.0832 61.5378 81.4808 61.5378C95.8456 61.5378 105.591 67.7647 106.303 77.4025C106.316 77.5543 106.316 77.7062 106.303 77.8549L106.145 80.1235C106.018 84.3634 102.493 87.7964 98.2408 87.7964C98.051 87.7964 96.392 87.5939 93.2638 87.1889C89.141 86.9927 85.8599 83.68 85.7143 79.5477L85.5688 77.8581C84.0785 77.4278 82.5376 77.2094 80.9809 77.2094C79.4242 77.2094 77.9054 77.4246 76.4246 77.8517L76.2791 79.5508C76.1304 83.6831 72.8524 86.9959 68.7296 87.1921C65.6014 87.5992 63.9466 87.8027 63.7652 87.8027H63.7589H63.762Z" fill="#003870"/>
<path d="M61.6673 70.9351C70.2451 61.791 101.968 61.6676 103.151 77.6398L102.987 79.9812C102.939 82.5725 100.823 84.6482 98.2281 84.6387C98.1617 84.6387 93.5295 84.0407 93.5295 84.0407C90.9792 83.9774 88.9321 81.9207 88.8783 79.3737L88.6663 76.8931C88.5935 76.0546 88.0335 75.3395 87.2361 75.0706C83.1925 73.7163 78.8134 73.71 74.7666 75.0579C73.9692 75.3237 73.406 76.0419 73.3333 76.8804L73.1213 79.3705C73.0643 81.9176 71.0172 83.9742 68.4701 84.0375C68.4701 84.0375 63.8379 84.6418 63.7683 84.6418C61.139 84.6387 59.0095 82.5061 59.0032 79.8768L58.8513 77.7442C58.8324 75.1876 59.848 72.7323 61.6642 70.9351H61.6673Z" fill="#E6F7FF"/>
</svg>
