<svg width="151" height="150" viewBox="0 0 151 150" fill="none" xmlns="http://www.w3.org/2000/svg">
<path d="M119.631 75.3923C119.631 100.315 99.3808 120.254 74.7693 120.254C49.8462 120.254 29.9077 100.004 29.9077 75.3923C29.9077 74.1462 29.9077 72.9 30.2193 71.6539C32.0885 94.7077 51.4039 113.088 75.0808 113.088C98.7577 113.088 118.073 95.0193 119.942 71.6539C119.631 72.9 119.631 74.1462 119.631 75.3923Z" fill="#EFEFEF"/>
<path d="M88.7885 75.3923C88.7885 83.1808 82.5577 89.4115 74.7692 89.4115C66.9808 89.4115 60.75 83.1808 60.75 75.3923C60.75 74.1462 60.75 73.2115 61.0615 71.9654C62.6192 78.1962 67.9154 82.5577 74.7692 82.5577C81.3115 82.5577 86.9192 77.8846 88.4769 71.9654C88.7885 73.2115 88.7885 74.1462 88.7885 75.3923Z" fill="#EFEFEF"/>
<path d="M134.896 101.873V134.585H102.184C98.7576 134.585 95.9537 137.388 95.9537 140.815C95.9537 144.242 98.7576 147.046 102.184 147.046H141.127C144.554 147.046 147.358 144.242 147.358 140.815V101.873C147.358 98.4462 144.554 95.6423 141.127 95.6423C137.388 95.6423 134.896 98.4462 134.896 101.873ZM8.72296 95.6423C5.29603 95.6423 2.49219 98.4462 2.49219 101.873V140.815C2.49219 144.242 5.29603 147.046 8.72296 147.046H47.6653C51.0922 147.046 53.896 144.242 53.896 140.815C53.896 137.388 51.0922 134.585 47.6653 134.585H14.9537V101.873C14.9537 98.4462 12.1499 95.6423 8.72296 95.6423ZM2.49219 8.72308V47.6654C2.49219 51.0923 5.29603 53.8962 8.72296 53.8962C12.1499 53.8962 14.9537 51.0923 14.9537 47.6654V14.9538H47.6653C51.0922 14.9538 53.896 12.15 53.896 8.72308C53.896 5.29616 51.0922 2.49231 47.6653 2.49231H8.72296C4.9845 2.49231 2.49219 5.29616 2.49219 8.72308ZM95.9537 8.72308C95.9537 12.15 98.7576 14.9538 102.184 14.9538H134.896V47.6654C134.896 51.0923 137.7 53.8962 141.127 53.8962C144.554 53.8962 147.358 51.0923 147.358 47.6654V8.72308C147.358 5.29616 144.554 2.49231 141.127 2.49231H102.184C98.446 2.49231 95.9537 5.29616 95.9537 8.72308Z" fill="#AEDAFF"/>
<path d="M141.127 141.75H102.184C100.315 141.75 98.7576 141.127 97.823 139.881C97.1999 139.258 96.8883 138.635 96.5768 138.012C96.2653 138.946 95.9537 139.569 95.9537 140.815C95.9537 142.373 96.5768 143.931 97.823 145.177C99.0691 146.423 100.627 147.046 102.184 147.046H141.127C144.554 147.046 147.358 144.242 147.358 140.815V135.519C147.358 138.946 144.554 141.75 141.127 141.75ZM53.273 138.323C52.3383 140.504 50.1576 141.75 47.6653 141.75H8.72296C5.29603 141.75 2.49219 138.946 2.49219 135.519V140.815C2.49219 144.242 5.29603 147.046 8.72296 147.046H47.6653C51.0922 147.046 53.896 144.242 53.896 140.815C53.896 139.881 53.5845 138.946 53.273 138.323ZM13.0845 46.4192C11.8383 47.6654 10.2806 48.2885 8.72296 48.2885C5.29603 48.2885 2.49219 45.4846 2.49219 42.0577V47.3538C2.49219 50.7808 5.29603 53.5846 8.72296 53.5846C10.2806 53.5846 11.8383 52.9615 13.0845 51.7154C14.3306 50.4692 14.9537 48.9115 14.9537 47.3538V42.0577C14.9537 43.9269 14.0191 45.4846 13.0845 46.4192ZM53.273 5.91922C52.0268 8.09999 49.846 9.34614 47.6653 9.34614H14.9537V14.6423H47.6653C51.0922 14.6423 53.896 11.8384 53.896 8.41153C53.896 7.47691 53.5845 6.85384 53.273 5.91922ZM145.488 46.4192C144.242 47.6654 142.684 48.2885 141.127 48.2885C137.7 48.2885 134.896 45.4846 134.896 42.0577V47.3538C134.896 50.7808 137.7 53.5846 141.127 53.5846C142.684 53.5846 144.242 52.9615 145.488 51.7154C146.734 50.4692 147.358 48.9115 147.358 47.3538V42.0577C147.358 43.9269 146.423 45.4846 145.488 46.4192ZM134.896 9.34614H102.184C99.6922 9.34614 97.5114 8.09999 96.5768 5.91922C96.2653 6.85384 95.9537 7.47691 95.9537 8.72307C95.9537 12.15 98.7576 14.9538 102.184 14.9538H134.896V9.34614Z" fill="#99C3FF"/>
<path d="M122.123 76.95H127.731C128.977 76.95 130.223 76.0154 130.223 74.4577C130.223 72.9 129.289 71.9654 127.731 71.9654H121.812C120.254 47.9769 100.939 28.9731 76.95 27.7269V21.8077C76.95 20.5615 76.0154 19.3154 74.4577 19.3154C72.9 19.3154 72.5885 20.5615 72.5885 21.8077V28.0384C48.6 29.2846 29.2847 48.2884 27.727 72.2769H21.8077C20.5616 72.2769 19.3154 73.2115 19.3154 74.7692C19.3154 76.3269 20.25 77.2615 21.8077 77.2615H27.727C28.6616 101.873 48.2885 121.5 72.5885 122.746V127.731C72.5885 128.977 73.5231 130.223 75.0808 130.223C76.6385 130.223 77.5731 129.288 77.5731 127.731V122.435C101.562 121.5 121.189 101.562 122.123 76.95ZM32.0885 76.95H36.45C37.6962 76.95 38.9424 76.0154 38.9424 74.4577C38.9424 72.9 38.0077 71.9654 36.45 71.9654H32.0885C33.6462 50.4692 50.7808 33.6461 72.277 32.4V36.1384C72.277 37.3846 73.2116 38.6308 74.7693 38.6308C76.327 38.6308 77.2616 37.6961 77.2616 36.1384V32.4C98.7577 33.6461 115.892 50.4692 117.45 71.9654H113.089C111.842 71.9654 110.596 72.9 110.596 74.4577C110.596 76.0154 111.531 76.95 113.089 76.95H117.45C116.515 98.7577 99.0693 116.515 77.2616 117.762V112.777C77.2616 111.531 76.327 110.285 74.7693 110.285C73.2116 110.285 72.277 111.219 72.277 112.777V117.762C50.4693 116.827 33.0231 99.0692 32.0885 76.95Z" fill="#321765"/>
<path d="M106.546 75.3923C106.546 57.9462 92.2153 43.6154 74.7691 43.6154C57.323 43.6154 42.9922 57.9462 42.9922 75.3923C42.9922 92.8385 57.323 107.169 74.7691 107.169C92.2153 107.169 106.546 92.8385 106.546 75.3923ZM47.6653 75.3923C47.6653 60.4385 59.8153 48.2885 74.7691 48.2885C89.723 48.2885 101.873 60.4385 101.873 75.3923C101.873 90.3462 89.723 102.496 74.7691 102.496C59.8153 102.496 47.6653 90.3462 47.6653 75.3923Z" fill="#321765"/>
<path d="M90.9693 75.3923C90.9693 66.3577 83.4924 59.1923 74.7693 59.1923C65.7347 59.1923 58.5693 66.6692 58.5693 75.3923C58.5693 84.1154 66.0463 91.5923 74.7693 91.5923C83.804 91.9039 90.9693 84.4269 90.9693 75.3923ZM63.2424 75.3923C63.2424 68.85 68.5386 63.8654 74.7693 63.8654C81.3116 63.8654 86.2963 69.1616 86.2963 75.3923C86.2963 81.6231 81.3116 87.2308 74.7693 87.2308C68.227 87.2308 63.2424 81.9346 63.2424 75.3923Z" fill="#321765"/>
<path d="M141.127 0H102.185C97.1999 0 93.4614 3.73846 93.4614 8.72308C93.4614 13.7077 97.1999 17.4462 102.185 17.4462H132.715V47.6654C132.715 52.3385 136.454 56.3885 141.438 56.3885C146.423 56.3885 150.161 52.65 150.161 47.6654V8.72308C149.538 3.73846 145.8 0 141.127 0ZM144.865 47.3538C144.865 49.5346 142.996 51.4038 140.815 51.4038C138.635 51.4038 137.077 49.5346 137.077 47.3538V14.9538C137.077 13.3962 136.142 12.4615 134.896 12.4615H102.185C100.004 12.4615 98.1345 10.5923 98.1345 8.41154C98.1345 6.23077 100.004 4.36154 102.185 4.36154H141.127C143.308 4.36154 145.177 6.23077 145.177 8.41154V47.3538H144.865Z" fill="#321765"/>
<path d="M8.72308 56.0769C13.3962 56.0769 17.4462 52.3385 17.4462 47.3538V17.1346H47.9769C52.65 17.1346 56.7 13.3962 56.7 8.41154C56.7 3.42692 52.3385 0 47.6654 0H8.72308C3.73846 0 0 3.73846 0 8.72308V47.6654C0 52.3385 3.73846 56.0769 8.72308 56.0769ZM4.67308 8.72308C4.67308 6.54231 6.54231 4.67308 8.72308 4.67308H47.6654C49.8461 4.67308 51.7154 6.54231 51.7154 8.72308C51.7154 10.9038 49.5346 12.4615 47.6654 12.4615H14.9538C13.3962 12.4615 12.4615 13.3962 12.4615 14.9538V47.6654C12.4615 49.8461 10.5923 51.7154 8.41154 51.7154C6.23077 51.7154 4.36154 49.8461 4.36154 47.6654V8.72308H4.67308Z" fill="#321765"/>
<path d="M47.6654 132.404H17.1346V102.185C17.1346 97.5115 13.3962 93.4615 8.41154 93.4615C3.42692 93.4615 0 97.2 0 101.873V140.815C0 145.8 3.73846 149.538 8.72308 149.538H47.6654C52.3385 149.538 56.3885 145.8 56.3885 140.815C56.3885 135.831 52.3385 132.404 47.6654 132.404ZM47.6654 144.865H8.72308C6.54231 144.865 4.67308 142.996 4.67308 140.815V101.873C4.67308 99.6923 6.54231 97.8231 8.72308 97.8231C10.9038 97.8231 12.4615 100.004 12.4615 101.873V134.585C12.4615 136.142 13.3962 137.077 14.9538 137.077H47.6654C49.8461 137.077 51.7154 138.946 51.7154 141.127C51.7154 143.308 49.5346 144.865 47.6654 144.865Z" fill="#321765"/>
<path d="M141.127 93.4615C136.454 93.4615 132.404 97.2 132.404 102.185V132.404H101.873C97.1999 132.404 93.1499 136.142 93.1499 141.127C93.1499 146.112 96.8884 149.85 101.873 149.85H140.815C145.488 149.85 149.538 146.112 149.538 141.127V101.873C149.538 97.2 145.8 93.4615 141.127 93.4615ZM144.865 140.815C144.865 142.996 142.996 144.865 140.815 144.865H102.185C100.004 144.865 98.1345 142.996 98.1345 140.815C98.1345 138.635 100.004 136.765 102.185 136.765H134.896C136.142 136.765 137.388 135.831 137.388 134.273V101.873C137.388 99.6923 139.258 97.8231 141.438 97.8231C143.619 97.8231 145.488 99.6923 145.488 101.873V140.815H144.865Z" fill="#321765"/>
</svg>
