<svg width="118" height="49" viewBox="0 0 118 49" fill="none" xmlns="http://www.w3.org/2000/svg">
<mask id="mask0_69_6114" style="mask-type:luminance" maskUnits="userSpaceOnUse" x="2" y="0" width="116" height="49">
<path d="M2.09692 0H117.789V49H2.09692V0Z" fill="white"/>
</mask>
<g mask="url(#mask0_69_6114)">
<mask id="mask1_69_6114" style="mask-type:luminance" maskUnits="userSpaceOnUse" x="1" y="-1" width="117" height="51">
<path d="M117.789 -0.157043H1.88477V49.1571H117.789V-0.157043Z" fill="white"/>
</mask>
<g mask="url(#mask1_69_6114)">
<path d="M106.776 49.0589H109.367C109.367 49.0589 108.576 46.8217 107.483 45.8786C105.843 44.4641 104.127 44.0414 102.064 44.7007C100.236 45.2851 98.5308 48.1166 98.5308 48.1166C98.5308 48.1166 101.126 45.9839 103.007 46.232C104.831 46.4727 106.776 49.0589 106.776 49.0589Z" fill="#1E3354"/>
<path d="M24.0885 49.0589L61.7808 42.4627L69.0837 16.5493L2.5332 17.9627L73.2063 12.1911L67.1991 49.0589H24.0885Z" fill="#1E3354"/>
<path d="M70.3794 -0.0588989L71.4395 6.18389C71.4395 6.18389 74.3842 6.89062 75.0909 7.47956C75.3669 7.70956 75.8922 8.05117 75.7976 8.53966C75.0909 12.1911 74.3842 14.6647 73.7952 18.1983C73.6862 18.8527 74.3842 19.494 74.3842 19.494C74.3842 19.494 75.1614 20.2437 75.0909 20.6719C73.5596 29.9772 69.0837 49.0589 69.0837 49.0589H74.3842L78.6245 21.3786C78.6245 21.3786 78.8987 19.9791 78.8601 19.1406C78.8299 18.4827 78.8413 18.0589 78.5068 17.4916C78.2424 17.0433 77.9929 16.8448 77.5645 16.5493C77.0722 16.2097 76.151 15.9603 76.151 15.9603L77.9178 5.35937C77.9178 5.35937 78.0337 4.83526 77.9178 4.53485C77.7652 4.13919 77.0933 3.82812 77.0933 3.82812L70.3794 -0.0588989Z" fill="#1E3354"/>
<path d="M78.1534 16.0781C78.1534 16.0781 79.4725 17.2965 79.9202 18.3161C80.2432 19.0517 80.4738 19.5194 80.3914 20.3185C79.2135 31.744 76.151 49.0589 76.151 49.0589H96.9995C96.9995 49.0589 98.8569 45.204 101.122 44.1118C103.865 42.7894 108.896 44.7007 108.896 44.7007C108.896 44.7007 105.853 42.66 103.713 42.3449C101.67 42.0439 100.379 42.4823 98.5308 43.405C97.123 44.1078 96.4106 45.0541 95.3505 45.8786C94.8962 46.232 79.8024 47.881 79.8024 47.881L81.3337 21.8498C81.3337 21.8498 84.9492 21.6386 87.1053 22.3209C89.0094 22.9235 90.1684 23.3829 91.5813 24.7945C92.3493 25.5618 92.5236 26.0901 93.1125 26.7969C93.7015 27.5036 94.4082 27.9748 95.4683 27.9748C96.2624 27.9748 96.8059 27.8938 97.4707 28.3281C98.0483 28.7055 98.2037 29.134 98.5308 29.7416C99.4272 31.4066 98.8842 34.5709 98.8842 34.5709C98.8842 34.5709 86.9875 34.6887 86.0452 33.8642C85.1029 33.0397 85.0221 31.1064 84.6318 29.2704C84.1987 27.2332 84.1606 23.381 84.1606 23.381C84.1606 23.381 83.5661 26.7534 83.5717 28.3281C83.577 29.8572 83.8072 31.8618 83.8072 31.8618C83.8072 31.8618 84.1377 34.7807 85.4563 35.5132C86.5164 36.1022 92.8769 36.2199 92.8769 36.2199C92.8769 36.2199 98.5308 36.2199 101.593 36.5733C104.656 36.9267 109.367 38.2402 110.663 38.9291C112.604 39.9614 114.04 40.7492 115.257 42.5805C116.66 44.6917 116.199 48.7055 116.199 48.7055C116.199 48.7055 117.823 45.1275 117.377 42.9339C117.012 41.1387 116.452 39.9073 114.903 38.9291C110.427 36.1022 101.122 34.5709 101.122 34.5709C101.122 34.5709 101.589 31.1248 100.651 29.2704C100.148 28.2768 99.8145 27.6443 98.8842 27.0324C97.8587 26.358 95.8217 26.3257 95.8217 26.3257C95.8217 26.3257 94.8258 24.1473 93.937 22.9098C92.7226 21.2191 91.8542 20.3611 90.1678 19.1406C86.2454 16.3017 78.1534 16.0781 78.1534 16.0781Z" fill="#1E3354"/>
</g>
</g>
<mask id="mask2_69_6114" style="mask-type:luminance" maskUnits="userSpaceOnUse" x="5" y="24" width="20" height="16">
<path d="M5.33984 24.0288H24.186V39.4199H5.33984V24.0288Z" fill="white"/>
</mask>
<g mask="url(#mask2_69_6114)">
<mask id="mask3_69_6114" style="mask-type:luminance" maskUnits="userSpaceOnUse" x="0" y="24" width="25" height="20">
<path d="M0 24.4116L24.2632 24.1736L24.446 42.783L0.182817 43.021L0 24.4116Z" fill="white"/>
</mask>
<g mask="url(#mask3_69_6114)">
<mask id="mask4_69_6114" style="mask-type:luminance" maskUnits="userSpaceOnUse" x="0" y="24" width="25" height="20">
<path d="M0 24.4116L24.2632 24.1736L24.446 42.783L0.182817 43.021L0 24.4116Z" fill="white"/>
</mask>
<g mask="url(#mask4_69_6114)">
<path d="M20.2167 24.2153L8.60599 24.3282C8.10048 24.3331 7.61828 24.7441 7.53362 25.2447L5.34595 38.0751C5.84532 37.9892 6.3447 37.8223 6.82935 37.664C7.02443 37.6002 7.24774 37.5266 7.45755 37.4628C8.5974 37.0702 9.65382 36.8592 10.6931 36.826C11.0317 36.8125 11.3703 36.8236 11.7041 36.8493C13.3654 36.9855 14.958 37.4604 16.5825 38.3082C16.9371 38.4959 17.3101 38.6064 17.7211 38.6542C17.726 38.6542 17.726 38.6542 17.7309 38.6542C18.0266 38.6947 18.337 38.7303 18.6327 38.7646C19.5063 38.8665 20.4045 38.972 21.2609 39.2346C22.0645 38.5119 22.6412 37.5475 22.8216 36.4923L23.0694 35.0543C23.1283 34.7157 23.1676 34.4003 23.17 34.1046C23.1713 33.7378 23.1148 33.3893 22.9639 33.0335C22.9247 32.9439 22.3958 31.9955 22.3394 32.0482C22.9725 31.4605 23.4375 30.6973 23.5762 29.852C23.5811 29.8139 23.5762 29.7759 23.5995 29.7366L23.8203 28.4287C24.2117 26.0778 22.6056 24.192 20.2167 24.2153ZM18.2499 34.7488L18.1738 35.1978C18.0965 35.642 17.672 36.0089 17.2131 36.0126L10.7912 36.0764C10.6906 36.0764 10.6231 35.9966 10.6366 35.896L10.9299 34.1905C10.9483 34.0911 11.0427 34.0089 11.1433 34.0077L17.5653 33.9451C18.0229 33.9451 18.3272 34.2997 18.2499 34.7488ZM18.7775 29.1121L18.7002 29.5612C18.6241 30.0053 18.1935 30.3722 17.7407 30.3759L11.7323 30.4348C11.6329 30.436 11.5605 30.3563 11.5777 30.2556L11.8709 28.5551C11.8893 28.4545 11.9838 28.3723 12.0844 28.371L18.0916 28.3134C18.5493 28.3085 18.8536 28.663 18.7775 29.1121Z" fill="#1E3354"/>
</g>
</g>
</g>
<mask id="mask5_69_6114" style="mask-type:luminance" maskUnits="userSpaceOnUse" x="0" y="41" width="5" height="2">
<path d="M0 41.3045H4.39744V42.2468H0V41.3045Z" fill="white"/>
</mask>
<g mask="url(#mask5_69_6114)">
<mask id="mask6_69_6114" style="mask-type:luminance" maskUnits="userSpaceOnUse" x="0" y="24" width="25" height="20">
<path d="M0 24.4117L24.2632 24.1736L24.446 42.783L0.182817 43.021L0 24.4117Z" fill="white"/>
</mask>
<g mask="url(#mask6_69_6114)">
<mask id="mask7_69_6114" style="mask-type:luminance" maskUnits="userSpaceOnUse" x="0" y="24" width="25" height="20">
<path d="M0 24.4117L24.2632 24.1736L24.446 42.783L0.182817 43.021L0 24.4117Z" fill="white"/>
</mask>
<g mask="url(#mask7_69_6114)">
<path d="M3.62431 41.4873C2.54336 41.5977 0.17041 41.8836 0.17041 41.8836L4.28319 42.0284C4.01939 41.9032 3.79854 41.7143 3.62431 41.4873Z" fill="#1E3354"/>
</g>
</g>
</g>
<mask id="mask8_69_6114" style="mask-type:luminance" maskUnits="userSpaceOnUse" x="14" y="41" width="5" height="2">
<path d="M14.7627 41.6186H18.846V42.5609H14.7627V41.6186Z" fill="white"/>
</mask>
<g mask="url(#mask8_69_6114)">
<mask id="mask9_69_6114" style="mask-type:luminance" maskUnits="userSpaceOnUse" x="0" y="24" width="25" height="20">
<path d="M0 24.4116L24.2632 24.1736L24.446 42.783L0.182817 43.021L0 24.4116Z" fill="white"/>
</mask>
<g mask="url(#mask9_69_6114)">
<mask id="mask10_69_6114" style="mask-type:luminance" maskUnits="userSpaceOnUse" x="0" y="24" width="25" height="20">
<path d="M0 24.4116L24.2632 24.1736L24.446 42.783L0.182817 43.021L0 24.4116Z" fill="white"/>
</mask>
<g mask="url(#mask10_69_6114)">
<path d="M14.8989 42.1633L18.6718 42.2738C18.6277 42.1216 18.6019 41.9695 18.5958 41.8173C18.543 41.8173 14.8989 42.1633 14.8989 42.1633Z" fill="#1E3354"/>
</g>
</g>
</g>
<mask id="mask11_69_6114" style="mask-type:luminance" maskUnits="userSpaceOnUse" x="15" y="40" width="4" height="2">
<path d="M15.3911 40.9904H18.8462V41.6186H15.3911V40.9904Z" fill="white"/>
</mask>
<g mask="url(#mask11_69_6114)">
<mask id="mask12_69_6114" style="mask-type:luminance" maskUnits="userSpaceOnUse" x="0" y="24" width="25" height="20">
<path d="M0 24.4116L24.2632 24.1736L24.446 42.783L0.182817 43.021L0 24.4116Z" fill="white"/>
</mask>
<g mask="url(#mask12_69_6114)">
<mask id="mask13_69_6114" style="mask-type:luminance" maskUnits="userSpaceOnUse" x="0" y="24" width="25" height="20">
<path d="M0 24.4116L24.2632 24.1736L24.446 42.783L0.182817 43.021L0 24.4116Z" fill="white"/>
</mask>
<g mask="url(#mask13_69_6114)">
<path d="M18.5982 41.5928C18.6117 41.4309 18.6436 41.2726 18.6988 41.1205L15.6216 41.4554C15.6167 41.4554 18.5749 41.5928 18.5982 41.5928Z" fill="#1E3354"/>
</g>
</g>
</g>
<mask id="mask14_69_6114" style="mask-type:luminance" maskUnits="userSpaceOnUse" x="16" y="40" width="4" height="1">
<path d="M16.0193 40.3622H19.1603V40.9904H16.0193V40.3622Z" fill="white"/>
</mask>
<g mask="url(#mask14_69_6114)">
<mask id="mask15_69_6114" style="mask-type:luminance" maskUnits="userSpaceOnUse" x="0" y="24" width="25" height="20">
<path d="M0 24.4117L24.2632 24.1736L24.446 42.783L0.182817 43.021L0 24.4117Z" fill="white"/>
</mask>
<g mask="url(#mask15_69_6114)">
<mask id="mask16_69_6114" style="mask-type:luminance" maskUnits="userSpaceOnUse" x="0" y="24" width="25" height="20">
<path d="M0 24.4117L24.2632 24.1736L24.446 42.783L0.182817 43.021L0 24.4117Z" fill="white"/>
</mask>
<g mask="url(#mask16_69_6114)">
<path d="M19.121 40.4247L16.2156 40.7585C16.2156 40.7585 18.4352 40.8984 18.7824 40.9192C18.8302 40.8284 18.8818 40.7364 18.9468 40.6456C18.9983 40.5683 19.0597 40.4971 19.121 40.4247Z" fill="#1E3354"/>
</g>
</g>
</g>
<mask id="mask17_69_6114" style="mask-type:luminance" maskUnits="userSpaceOnUse" x="0" y="40" width="4" height="2">
<path d="M0.628174 40.6763H3.4551V41.3045H0.628174V40.6763Z" fill="white"/>
</mask>
<g mask="url(#mask17_69_6114)">
<mask id="mask18_69_6114" style="mask-type:luminance" maskUnits="userSpaceOnUse" x="0" y="24" width="25" height="20">
<path d="M0 24.4117L24.2632 24.1736L24.446 42.783L0.182817 43.021L0 24.4117Z" fill="white"/>
</mask>
<g mask="url(#mask18_69_6114)">
<mask id="mask19_69_6114" style="mask-type:luminance" maskUnits="userSpaceOnUse" x="0" y="24" width="25" height="20">
<path d="M0 24.4117L24.2632 24.1736L24.446 42.783L0.182817 43.021L0 24.4117Z" fill="white"/>
</mask>
<g mask="url(#mask19_69_6114)">
<path d="M3.25023 40.7892C3.20729 40.7904 0.764404 41.0959 0.764404 41.0959L3.45513 41.2407C3.37293 41.0984 3.30422 40.9462 3.25023 40.7892Z" fill="#1E3354"/>
</g>
</g>
</g>
<mask id="mask20_69_6114" style="mask-type:luminance" maskUnits="userSpaceOnUse" x="1" y="40" width="3" height="1">
<path d="M1.25635 40.0481H3.45507V40.6763H1.25635V40.0481Z" fill="white"/>
</mask>
<g mask="url(#mask20_69_6114)">
<mask id="mask21_69_6114" style="mask-type:luminance" maskUnits="userSpaceOnUse" x="0" y="24" width="25" height="20">
<path d="M0 24.4117L24.2632 24.1736L24.446 42.783L0.182817 43.021L0 24.4117Z" fill="white"/>
</mask>
<g mask="url(#mask21_69_6114)">
<mask id="mask22_69_6114" style="mask-type:luminance" maskUnits="userSpaceOnUse" x="0" y="24" width="25" height="20">
<path d="M0 24.4117L24.2632 24.1736L24.446 42.783L0.182817 43.021L0 24.4117Z" fill="white"/>
</mask>
<g mask="url(#mask22_69_6114)">
<path d="M3.12513 40.1327C3.10059 40.1327 1.42456 40.3597 1.42456 40.3597L3.17053 40.48C3.14599 40.3658 3.13127 40.2517 3.12513 40.1327Z" fill="#1E3354"/>
</g>
</g>
</g>
<mask id="mask23_69_6114" style="mask-type:luminance" maskUnits="userSpaceOnUse" x="4" y="36" width="20" height="7">
<path d="M4.71143 36.907H23.5576V42.5609H4.71143V36.907Z" fill="white"/>
</mask>
<g mask="url(#mask23_69_6114)">
<mask id="mask24_69_6114" style="mask-type:luminance" maskUnits="userSpaceOnUse" x="0" y="24" width="25" height="20">
<path d="M0 24.4117L24.2632 24.1736L24.446 42.783L0.182817 43.021L0 24.4117Z" fill="white"/>
</mask>
<g mask="url(#mask24_69_6114)">
<mask id="mask25_69_6114" style="mask-type:luminance" maskUnits="userSpaceOnUse" x="0" y="24" width="25" height="20">
<path d="M0 24.4117L24.2632 24.1736L24.446 42.783L0.182817 43.021L0 24.4117Z" fill="white"/>
</mask>
<g mask="url(#mask25_69_6114)">
<path d="M22.3749 40.1205C21.224 39.4309 19.8878 39.2776 18.5934 39.1279C18.2928 39.0923 17.9824 39.0579 17.6817 39.0125C17.2229 38.9598 16.8118 38.8359 16.4192 38.6297C14.8376 37.8052 13.288 37.339 11.6794 37.2114C10.3764 37.1058 9.03411 37.2997 7.57525 37.8052C7.36544 37.869 7.15686 37.9377 6.94705 38.0064C6.30534 38.2187 5.64033 38.4395 4.96305 38.4886L4.92133 38.4935L4.88452 38.6616L4.93728 38.6751C5.40966 38.8138 5.91149 38.8371 6.39246 38.8567C6.65012 38.8678 6.9176 38.88 7.18017 38.9107C7.92984 38.9512 8.6832 39.0199 9.41815 39.0837C10.5163 39.1782 11.6475 39.2812 12.7629 39.2997L12.7763 39.1843C11.1187 38.8481 9.63287 38.6334 8.24027 38.5279C9.14945 37.961 10.5065 37.7144 12.0721 37.8273C13.5076 37.9328 14.9518 38.334 15.9493 38.9058C15.8941 39.0727 15.7603 39.0935 15.537 39.1095C15.4941 39.1156 15.4511 39.1156 15.4082 39.1205L15.2794 39.1365L15.3763 39.2211C15.607 39.4236 15.856 39.5168 16.1652 39.5095L16.3419 39.5021C17.8339 39.4493 19.3786 39.3917 20.8228 39.8064C20.1369 39.918 19.5013 40.2824 19.1492 40.7818C18.8425 41.2137 18.7615 41.7155 18.9099 42.2284L18.9737 42.4431L19.024 42.2235C19.2535 41.2051 20.0375 40.4824 21.024 40.372C21.9958 40.2677 22.8681 40.7745 23.3012 41.6996L23.3749 41.8615L23.4068 41.6885C23.5196 41.0248 22.8546 40.388 22.3749 40.1205Z" fill="#1E3354"/>
</g>
</g>
</g>
<mask id="mask26_69_6114" style="mask-type:luminance" maskUnits="userSpaceOnUse" x="3" y="38" width="16" height="5">
<path d="M3.14111 38.7917H18.8462V42.2468H3.14111V38.7917Z" fill="white"/>
</mask>
<g mask="url(#mask26_69_6114)">
<mask id="mask27_69_6114" style="mask-type:luminance" maskUnits="userSpaceOnUse" x="0" y="24" width="25" height="20">
<path d="M0 24.4117L24.2632 24.1736L24.446 42.783L0.182817 43.021L0 24.4117Z" fill="white"/>
</mask>
<g mask="url(#mask27_69_6114)">
<mask id="mask28_69_6114" style="mask-type:luminance" maskUnits="userSpaceOnUse" x="0" y="24" width="25" height="20">
<path d="M0 24.4117L24.2632 24.1736L24.446 42.783L0.182817 43.021L0 24.4117Z" fill="white"/>
</mask>
<g mask="url(#mask28_69_6114)">
<path d="M18.7062 39.8996L18.705 39.7843C15.1038 39.7107 11.4867 39.4592 8.11751 39.1966C7.41568 39.1463 6.70037 39.0776 6.00836 39.0174C5.4734 38.9696 4.92004 38.9181 4.3765 38.8714C3.68449 38.8162 3.42805 39.0285 3.36425 39.7107C3.2391 40.6419 3.75075 41.7622 4.79244 41.9523L4.8452 41.9609L4.85869 41.9094C5.08445 41.0677 5.59364 40.0653 6.72859 40.064C9.38864 39.9671 12.0978 39.9499 14.7149 39.9291C16.0216 39.9303 17.3762 39.9168 18.7062 39.8996Z" fill="#1E3354"/>
</g>
</g>
</g>
<mask id="mask29_69_6114" style="mask-type:luminance" maskUnits="userSpaceOnUse" x="5" y="40" width="6" height="4">
<path d="M5.02563 40.0481H10.0513V43.1891H5.02563V40.0481Z" fill="white"/>
</mask>
<g mask="url(#mask29_69_6114)">
<mask id="mask30_69_6114" style="mask-type:luminance" maskUnits="userSpaceOnUse" x="0" y="24" width="25" height="20">
<path d="M0 24.4117L24.2632 24.1736L24.446 42.783L0.182817 43.021L0 24.4117Z" fill="white"/>
</mask>
<g mask="url(#mask30_69_6114)">
<mask id="mask31_69_6114" style="mask-type:luminance" maskUnits="userSpaceOnUse" x="0" y="24" width="25" height="20">
<path d="M0 24.4117L24.2632 24.1736L24.446 42.783L0.182817 43.021L0 24.4117Z" fill="white"/>
</mask>
<g mask="url(#mask31_69_6114)">
<path d="M8.68325 40.4689C7.8207 40.0775 6.73974 40.1831 6.04896 40.7241C5.38149 41.1977 5.10665 41.9253 5.31892 42.6677L5.37904 42.8762L5.42935 42.6615C5.66247 41.691 6.433 40.983 7.39985 40.8591C8.35688 40.7352 9.25379 41.2223 9.73967 42.1278L9.86114 42.356L9.84887 42.0983C9.81328 41.383 9.38753 40.7916 8.68325 40.4689Z" fill="#1E3354"/>
</g>
</g>
</g>
<mask id="mask32_69_6114" style="mask-type:luminance" maskUnits="userSpaceOnUse" x="24" y="24" width="19" height="15">
<path d="M24.186 24.0288H42.7181V38.1635H24.186V24.0288Z" fill="white"/>
</mask>
<g mask="url(#mask32_69_6114)">
<mask id="mask33_69_6114" style="mask-type:luminance" maskUnits="userSpaceOnUse" x="17" y="23" width="27" height="20">
<path d="M17.1052 24.2436L43.0175 23.9896L43.2003 42.6002L17.288 42.8529L17.1052 24.2436Z" fill="white"/>
</mask>
<g mask="url(#mask33_69_6114)">
<mask id="mask34_69_6114" style="mask-type:luminance" maskUnits="userSpaceOnUse" x="17" y="23" width="27" height="20">
<path d="M17.1052 24.2436L43.0175 23.9896L43.2003 42.6002L17.288 42.8529L17.1052 24.2436Z" fill="white"/>
</mask>
<g mask="url(#mask34_69_6114)">
<path d="M39.0924 24.0411L27.5823 24.154C27.0804 24.1589 26.6044 24.5625 26.5173 25.0595L24.3296 37.8763C24.9468 37.7217 25.5394 37.6334 26.1283 37.6174C26.4142 37.6101 26.7013 37.6174 26.9774 37.6407C27.7148 37.6996 28.4375 37.8407 29.1565 38.064L29.4362 36.4187C29.4509 36.3218 29.5479 36.2395 29.6497 36.2383L37.0262 36.161C39.3942 36.1377 41.6322 34.2273 42.0334 31.901L42.658 28.2263C43.0543 25.8852 41.4555 24.0178 39.0924 24.0411ZM37.6667 28.8999L37.2495 31.3182C37.1722 31.7599 36.7514 32.1219 36.3011 32.1255L30.3417 32.1844C30.2399 32.1857 30.1724 32.1047 30.192 32.0065L30.8153 28.3477C30.83 28.2508 30.927 28.1674 31.0288 28.1661L36.9882 28.1085C37.4336 28.0986 37.7391 28.4545 37.6667 28.8999Z" fill="#1E3354"/>
</g>
</g>
</g>
<mask id="mask35_69_6114" style="mask-type:luminance" maskUnits="userSpaceOnUse" x="17" y="41" width="5" height="2">
<path d="M17.2756 41.3045H21.0449V42.2468H17.2756V41.3045Z" fill="white"/>
</mask>
<g mask="url(#mask35_69_6114)">
<mask id="mask36_69_6114" style="mask-type:luminance" maskUnits="userSpaceOnUse" x="17" y="23" width="27" height="20">
<path d="M17.105 24.2436L43.0172 23.9896L43.2 42.6002L17.2878 42.853L17.105 24.2436Z" fill="white"/>
</mask>
<g mask="url(#mask36_69_6114)">
<mask id="mask37_69_6114" style="mask-type:luminance" maskUnits="userSpaceOnUse" x="17" y="23" width="27" height="20">
<path d="M17.105 24.2436L43.0172 23.9896L43.2 42.6002L17.2878 42.853L17.105 24.2436Z" fill="white"/>
</mask>
<g mask="url(#mask37_69_6114)">
<path d="M20.1811 41.5388C19.2756 41.6296 17.2781 41.8689 17.2781 41.8689L20.7381 41.994C20.516 41.8885 20.3308 41.7265 20.1811 41.5388Z" fill="#1E3354"/>
</g>
</g>
</g>
<mask id="mask38_69_6114" style="mask-type:luminance" maskUnits="userSpaceOnUse" x="29" y="41" width="4" height="2">
<path d="M29.5256 41.6186H32.9808V42.2468H29.5256V41.6186Z" fill="white"/>
</mask>
<g mask="url(#mask38_69_6114)">
<mask id="mask39_69_6114" style="mask-type:luminance" maskUnits="userSpaceOnUse" x="17" y="23" width="27" height="20">
<path d="M17.105 24.2436L43.0172 23.9896L43.2 42.6002L17.2878 42.8529L17.105 24.2436Z" fill="white"/>
</mask>
<g mask="url(#mask39_69_6114)">
<mask id="mask40_69_6114" style="mask-type:luminance" maskUnits="userSpaceOnUse" x="17" y="23" width="27" height="20">
<path d="M17.105 24.2436L43.0172 23.9896L43.2 42.6002L17.2878 42.8529L17.105 24.2436Z" fill="white"/>
</mask>
<g mask="url(#mask40_69_6114)">
<path d="M29.6653 42.1057L32.8382 42.2026C32.8014 42.075 32.7805 41.9474 32.7732 41.8198C32.7327 41.8149 29.6653 42.1057 29.6653 42.1057Z" fill="#1E3354"/>
</g>
</g>
</g>
<mask id="mask41_69_6114" style="mask-type:luminance" maskUnits="userSpaceOnUse" x="30" y="40" width="3" height="2">
<path d="M30.1538 40.9904H32.9807V41.9327H30.1538V40.9904Z" fill="white"/>
</mask>
<g mask="url(#mask41_69_6114)">
<mask id="mask42_69_6114" style="mask-type:luminance" maskUnits="userSpaceOnUse" x="17" y="23" width="27" height="20">
<path d="M17.105 24.2436L43.0172 23.9896L43.2 42.6002L17.2878 42.8529L17.105 24.2436Z" fill="white"/>
</mask>
<g mask="url(#mask42_69_6114)">
<mask id="mask43_69_6114" style="mask-type:luminance" maskUnits="userSpaceOnUse" x="17" y="23" width="27" height="20">
<path d="M17.105 24.2436L43.0172 23.9896L43.2 42.6002L17.2878 42.8529L17.105 24.2436Z" fill="white"/>
</mask>
<g mask="url(#mask43_69_6114)">
<path d="M32.777 41.6308C32.7855 41.4922 32.815 41.3584 32.8604 41.2308L30.269 41.5118C30.269 41.5118 32.7561 41.6308 32.777 41.6308Z" fill="#1E3354"/>
</g>
</g>
</g>
<mask id="mask44_69_6114" style="mask-type:luminance" maskUnits="userSpaceOnUse" x="30" y="40" width="4" height="2">
<path d="M30.468 40.3622H33.2949V41.3045H30.468V40.3622Z" fill="white"/>
</mask>
<g mask="url(#mask44_69_6114)">
<mask id="mask45_69_6114" style="mask-type:luminance" maskUnits="userSpaceOnUse" x="17" y="23" width="27" height="20">
<path d="M17.1052 24.2436L43.0175 23.9896L43.2003 42.6002L17.288 42.853L17.1052 24.2436Z" fill="white"/>
</mask>
<g mask="url(#mask45_69_6114)">
<mask id="mask46_69_6114" style="mask-type:luminance" maskUnits="userSpaceOnUse" x="17" y="23" width="27" height="20">
<path d="M17.1052 24.2436L43.0175 23.9896L43.2003 42.6002L17.288 42.853L17.1052 24.2436Z" fill="white"/>
</mask>
<g mask="url(#mask46_69_6114)">
<path d="M33.2178 40.6432L30.7749 40.9229C30.7749 40.9229 32.6387 41.0431 32.9307 41.0554C32.9699 40.9793 33.0153 40.902 33.0656 40.8297C33.111 40.7671 33.1626 40.7057 33.2178 40.6432Z" fill="#1E3354"/>
</g>
</g>
</g>
<mask id="mask47_69_6114" style="mask-type:luminance" maskUnits="userSpaceOnUse" x="17" y="40" width="4" height="2">
<path d="M17.5898 40.6763H20.1027V41.6186H17.5898V40.6763Z" fill="white"/>
</mask>
<g mask="url(#mask47_69_6114)">
<mask id="mask48_69_6114" style="mask-type:luminance" maskUnits="userSpaceOnUse" x="17" y="23" width="27" height="20">
<path d="M17.1052 24.2436L43.0175 23.9896L43.2003 42.6002L17.288 42.853L17.1052 24.2436Z" fill="white"/>
</mask>
<g mask="url(#mask48_69_6114)">
<mask id="mask49_69_6114" style="mask-type:luminance" maskUnits="userSpaceOnUse" x="17" y="23" width="27" height="20">
<path d="M17.1052 24.2436L43.0175 23.9896L43.2003 42.6002L17.288 42.853L17.1052 24.2436Z" fill="white"/>
</mask>
<g mask="url(#mask49_69_6114)">
<path d="M19.8683 40.9536C19.8328 40.9536 17.7776 41.2088 17.7776 41.2088L20.0401 41.3352C19.9726 41.2137 19.915 41.0861 19.8683 40.9536Z" fill="#1E3354"/>
</g>
</g>
</g>
<mask id="mask50_69_6114" style="mask-type:luminance" maskUnits="userSpaceOnUse" x="18" y="40" width="3" height="1">
<path d="M18.218 40.3622H20.1026V40.9904H18.218V40.3622Z" fill="white"/>
</mask>
<g mask="url(#mask50_69_6114)">
<mask id="mask51_69_6114" style="mask-type:luminance" maskUnits="userSpaceOnUse" x="17" y="23" width="27" height="20">
<path d="M17.1052 24.2436L43.0175 23.9896L43.2003 42.6002L17.288 42.853L17.1052 24.2436Z" fill="white"/>
</mask>
<g mask="url(#mask51_69_6114)">
<mask id="mask52_69_6114" style="mask-type:luminance" maskUnits="userSpaceOnUse" x="17" y="23" width="27" height="20">
<path d="M17.1052 24.2436L43.0175 23.9896L43.2003 42.6002L17.288 42.853L17.1052 24.2436Z" fill="white"/>
</mask>
<g mask="url(#mask52_69_6114)">
<path d="M19.7602 40.4027C19.7394 40.4027 18.3296 40.5904 18.3296 40.5904L19.7983 40.6935C19.7774 40.5966 19.7664 40.4996 19.7602 40.4027Z" fill="#1E3354"/>
</g>
</g>
</g>
<mask id="mask53_69_6114" style="mask-type:luminance" maskUnits="userSpaceOnUse" x="21" y="37" width="17" height="6">
<path d="M21.0449 37.8494H37.0642V42.5609H21.0449V37.8494Z" fill="white"/>
</mask>
<g mask="url(#mask53_69_6114)">
<mask id="mask54_69_6114" style="mask-type:luminance" maskUnits="userSpaceOnUse" x="17" y="23" width="27" height="20">
<path d="M17.105 24.2436L43.0172 23.9896L43.2 42.6002L17.2878 42.853L17.105 24.2436Z" fill="white"/>
</mask>
<g mask="url(#mask54_69_6114)">
<mask id="mask55_69_6114" style="mask-type:luminance" maskUnits="userSpaceOnUse" x="17" y="23" width="27" height="20">
<path d="M17.105 24.2436L43.0172 23.9896L43.2 42.6002L17.2878 42.853L17.105 24.2436Z" fill="white"/>
</mask>
<g mask="url(#mask55_69_6114)">
<path d="M35.9523 40.3867C34.9842 39.8076 33.8578 39.6751 32.772 39.5487C32.5204 39.5205 32.2591 39.4861 32.0039 39.453C31.6198 39.4113 31.2702 39.3021 30.9413 39.1315C29.615 38.4383 28.3058 38.0469 26.9549 37.9377C25.8593 37.8506 24.7292 38.0101 23.501 38.4371C23.328 38.4898 23.1489 38.5475 22.9759 38.6052C22.4348 38.7843 21.879 38.9696 21.3072 39.0113H21.2704L21.241 39.1499L21.2827 39.1647C21.6827 39.2788 22.1023 39.2996 22.5072 39.3156C22.7268 39.3242 22.9526 39.3377 23.1673 39.361C23.7967 39.3953 24.4323 39.4505 25.0519 39.5058C25.9734 39.5892 26.9255 39.6714 27.8617 39.6886L27.8715 39.5916C26.4764 39.3082 25.2261 39.1315 24.0593 39.0395C24.8274 38.5671 25.966 38.3561 27.2813 38.4506C28.4899 38.5365 29.7058 38.8776 30.545 39.3597C30.4947 39.5045 30.3818 39.5156 30.1978 39.5328C30.1622 39.5328 30.1266 39.5389 30.0911 39.5438L29.9831 39.5548L30.0665 39.626C30.2628 39.7978 30.4726 39.8726 30.7291 39.8702L30.8763 39.864C32.1352 39.8199 33.4284 39.772 34.6443 40.118C34.0676 40.2113 33.5339 40.518 33.2358 40.9401C32.9781 41.3008 32.9106 41.7266 33.0382 42.1597L33.091 42.3388L33.1302 42.1535C33.3204 41.2971 33.9805 40.6873 34.8075 40.5978C35.6259 40.5082 36.3621 40.9352 36.7277 41.7143L36.7903 41.8468L36.8197 41.7032C36.9166 41.1499 36.3584 40.6125 35.9523 40.3867Z" fill="#1E3354"/>
</g>
</g>
</g>
<mask id="mask56_69_6114" style="mask-type:luminance" maskUnits="userSpaceOnUse" x="19" y="39" width="14" height="4">
<path d="M19.7886 39.1057H32.9809V42.2468H19.7886V39.1057Z" fill="white"/>
</mask>
<g mask="url(#mask56_69_6114)">
<mask id="mask57_69_6114" style="mask-type:luminance" maskUnits="userSpaceOnUse" x="17" y="23" width="27" height="20">
<path d="M17.1052 24.2436L43.0175 23.9896L43.2003 42.6002L17.288 42.8529L17.1052 24.2436Z" fill="white"/>
</mask>
<g mask="url(#mask57_69_6114)">
<mask id="mask58_69_6114" style="mask-type:luminance" maskUnits="userSpaceOnUse" x="17" y="23" width="27" height="20">
<path d="M17.1052 24.2436L43.0175 23.9896L43.2003 42.6002L17.288 42.8529L17.1052 24.2436Z" fill="white"/>
</mask>
<g mask="url(#mask58_69_6114)">
<path d="M32.8655 40.2027L32.8642 40.1045C29.8349 40.0419 26.7945 39.8321 23.9626 39.6137C23.3688 39.5683 22.77 39.5131 22.186 39.4628C21.7357 39.4211 21.2694 39.3794 20.8142 39.3426C20.2351 39.2972 20.0167 39.4738 19.9615 40.0517C19.856 40.8358 20.2854 41.7781 21.1615 41.9388L21.2081 41.9486L21.2179 41.9069C21.4056 41.199 21.8363 40.356 22.7933 40.3573C25.0338 40.2738 27.3098 40.2616 29.5097 40.2456C30.6091 40.2297 31.7502 40.2186 32.8655 40.2027Z" fill="#1E3354"/>
</g>
</g>
</g>
<mask id="mask59_69_6114" style="mask-type:luminance" maskUnits="userSpaceOnUse" x="21" y="40" width="5" height="3">
<path d="M21.3589 40.3622H25.4422V42.875H21.3589V40.3622Z" fill="white"/>
</mask>
<g mask="url(#mask59_69_6114)">
<mask id="mask60_69_6114" style="mask-type:luminance" maskUnits="userSpaceOnUse" x="17" y="23" width="27" height="20">
<path d="M17.105 24.2436L43.0172 23.9896L43.2 42.6002L17.2878 42.853L17.105 24.2436Z" fill="white"/>
</mask>
<g mask="url(#mask60_69_6114)">
<mask id="mask61_69_6114" style="mask-type:luminance" maskUnits="userSpaceOnUse" x="17" y="23" width="27" height="20">
<path d="M17.105 24.2436L43.0172 23.9896L43.2 42.6002L17.2878 42.853L17.105 24.2436Z" fill="white"/>
</mask>
<g mask="url(#mask61_69_6114)">
<path d="M24.4386 40.6836C23.7147 40.3536 22.8042 40.4444 22.2251 40.8947C21.6619 41.2947 21.4325 41.9057 21.6129 42.5278L21.6607 42.7057L21.7049 42.5265C21.9012 41.7118 22.5503 41.1167 23.3625 41.0112C24.1699 40.9057 24.9208 41.318 25.3269 42.0824L25.4263 42.2701L25.414 42.0554C25.3882 41.4517 25.03 40.9536 24.4386 40.6836Z" fill="#1E3354"/>
</g>
</g>
</g>
<mask id="mask62_69_6114" style="mask-type:luminance" maskUnits="userSpaceOnUse" x="40" y="23" width="19" height="16">
<path d="M40.2051 23.7147H58.423V38.4775H40.2051V23.7147Z" fill="white"/>
</mask>
<g mask="url(#mask62_69_6114)">
<mask id="mask63_69_6114" style="mask-type:luminance" maskUnits="userSpaceOnUse" x="34" y="23" width="28" height="20">
<path d="M34.7266 24.0718L61.11 23.8129L61.2915 42.4222L34.9082 42.6811L34.7266 24.0718Z" fill="white"/>
</mask>
<g mask="url(#mask63_69_6114)">
<mask id="mask64_69_6114" style="mask-type:luminance" maskUnits="userSpaceOnUse" x="34" y="23" width="28" height="20">
<path d="M34.7266 24.0718L61.11 23.8129L61.2915 42.4222L34.9082 42.6811L34.7266 24.0718Z" fill="white"/>
</mask>
<g mask="url(#mask64_69_6114)">
<path d="M43.1534 36.4004C44.4429 35.9562 45.6404 35.7182 46.8183 35.6802C47.2023 35.6654 47.5864 35.6777 47.9606 35.7059C49.8403 35.8605 51.6452 36.4016 53.4795 37.3562C53.8819 37.5684 54.304 37.6961 54.7678 37.7488C54.7727 37.7488 54.7727 37.7488 54.7776 37.7488C55.115 37.7979 55.4623 37.8372 55.7997 37.8752C56.5898 37.9672 57.3959 38.0605 58.1812 38.247L53.6194 24.7123C53.3212 23.889 52.5384 23.9185 52.5384 23.9185C52.1225 23.9222 51.7593 23.9148 51.428 23.9185C51.3335 23.9197 51.2538 23.9197 51.1593 23.9209L51.044 23.9222C50.7863 23.9197 50.5495 23.9222 50.3286 23.9295V23.9442C50.3237 23.9455 50.3237 23.9455 50.3176 23.9455V23.9344C49.5127 23.9737 48.9201 24.132 48.4637 24.7626L40.4663 37.1415C41.1289 37.0666 41.7951 36.8445 42.4393 36.6335C42.6601 36.5574 42.9116 36.4764 43.1534 36.4004ZM50.4464 30.0938L51.7814 34.1845L47.7937 34.2237L50.4464 30.0938Z" fill="#1E3354"/>
</g>
</g>
</g>
<mask id="mask65_69_6114" style="mask-type:luminance" maskUnits="userSpaceOnUse" x="34" y="40" width="6" height="2">
<path d="M34.8655 40.6763H39.577V41.6186H34.8655V40.6763Z" fill="white"/>
</mask>
<g mask="url(#mask65_69_6114)">
<mask id="mask66_69_6114" style="mask-type:luminance" maskUnits="userSpaceOnUse" x="34" y="23" width="28" height="20">
<path d="M34.7268 24.0718L61.1102 23.8129L61.2918 42.4223L34.9084 42.6812L34.7268 24.0718Z" fill="white"/>
</mask>
<g mask="url(#mask66_69_6114)">
<mask id="mask67_69_6114" style="mask-type:luminance" maskUnits="userSpaceOnUse" x="34" y="23" width="28" height="20">
<path d="M34.7268 24.0718L61.1102 23.8129L61.2918 42.4223L34.9084 42.6812L34.7268 24.0718Z" fill="white"/>
</mask>
<g mask="url(#mask67_69_6114)">
<path d="M38.8102 40.9622C37.5906 41.0837 34.906 41.41 34.906 41.41L39.5587 41.5757C39.2617 41.4309 39.0127 41.2174 38.8102 40.9622Z" fill="#1E3354"/>
</g>
</g>
</g>
<mask id="mask68_69_6114" style="mask-type:luminance" maskUnits="userSpaceOnUse" x="51" y="41" width="5" height="1">
<path d="M51.5127 41.3045H55.9101V41.9327H51.5127V41.3045Z" fill="white"/>
</mask>
<g mask="url(#mask68_69_6114)">
<mask id="mask69_69_6114" style="mask-type:luminance" maskUnits="userSpaceOnUse" x="34" y="23" width="28" height="20">
<path d="M34.7266 24.0718L61.11 23.8129L61.2915 42.4222L34.9082 42.6811L34.7266 24.0718Z" fill="white"/>
</mask>
<g mask="url(#mask69_69_6114)">
<mask id="mask70_69_6114" style="mask-type:luminance" maskUnits="userSpaceOnUse" x="34" y="23" width="28" height="20">
<path d="M34.7266 24.0718L61.11 23.8129L61.2915 42.4222L34.9082 42.6811L34.7266 24.0718Z" fill="white"/>
</mask>
<g mask="url(#mask70_69_6114)">
<path d="M51.5752 41.7266L55.8438 41.853C55.7947 41.68 55.7665 41.5058 55.7604 41.3377C55.7015 41.3328 51.5752 41.7266 51.5752 41.7266Z" fill="#1E3354"/>
</g>
</g>
</g>
<mask id="mask71_69_6114" style="mask-type:luminance" maskUnits="userSpaceOnUse" x="52" y="40" width="4" height="2">
<path d="M52.1411 40.3622H55.9103V41.3045H52.1411V40.3622Z" fill="white"/>
</mask>
<g mask="url(#mask71_69_6114)">
<mask id="mask72_69_6114" style="mask-type:luminance" maskUnits="userSpaceOnUse" x="34" y="23" width="28" height="20">
<path d="M34.7268 24.0718L61.1102 23.8129L61.2918 42.4222L34.9084 42.6811L34.7268 24.0718Z" fill="white"/>
</mask>
<g mask="url(#mask72_69_6114)">
<mask id="mask73_69_6114" style="mask-type:luminance" maskUnits="userSpaceOnUse" x="34" y="23" width="28" height="20">
<path d="M34.7268 24.0718L61.1102 23.8129L61.2918 42.4222L34.9084 42.6811L34.7268 24.0718Z" fill="white"/>
</mask>
<g mask="url(#mask73_69_6114)">
<path d="M55.7631 41.08C55.7766 40.8959 55.8121 40.7168 55.8735 40.5426L52.3889 40.9242C52.3889 40.9242 55.7361 41.0849 55.7631 41.08Z" fill="#1E3354"/>
</g>
</g>
</g>
<mask id="mask74_69_6114" style="mask-type:luminance" maskUnits="userSpaceOnUse" x="52" y="39" width="5" height="2">
<path d="M52.7693 39.734H56.5385V40.3622H52.7693V39.734Z" fill="white"/>
</mask>
<g mask="url(#mask74_69_6114)">
<mask id="mask75_69_6114" style="mask-type:luminance" maskUnits="userSpaceOnUse" x="34" y="23" width="28" height="20">
<path d="M34.7268 24.0718L61.1102 23.8129L61.2918 42.4222L34.9084 42.6811L34.7268 24.0718Z" fill="white"/>
</mask>
<g mask="url(#mask75_69_6114)">
<mask id="mask76_69_6114" style="mask-type:luminance" maskUnits="userSpaceOnUse" x="34" y="23" width="28" height="20">
<path d="M34.7268 24.0718L61.1102 23.8129L61.2918 42.4222L34.9084 42.6811L34.7268 24.0718Z" fill="white"/>
</mask>
<g mask="url(#mask76_69_6114)">
<path d="M56.3605 39.7585L53.0698 40.1327C53.0698 40.1327 55.5814 40.2922 55.9765 40.3156C56.028 40.2088 56.0906 40.1082 56.163 40.0076C56.2145 39.9229 56.282 39.8383 56.3605 39.7585Z" fill="#1E3354"/>
</g>
</g>
</g>
<mask id="mask77_69_6114" style="mask-type:luminance" maskUnits="userSpaceOnUse" x="35" y="40" width="4" height="1">
<path d="M35.4937 40.0481H38.6347V40.9904H35.4937V40.0481Z" fill="white"/>
</mask>
<g mask="url(#mask77_69_6114)">
<mask id="mask78_69_6114" style="mask-type:luminance" maskUnits="userSpaceOnUse" x="34" y="23" width="28" height="20">
<path d="M34.7268 24.0718L61.1102 23.8129L61.2918 42.4222L34.9084 42.6811L34.7268 24.0718Z" fill="white"/>
</mask>
<g mask="url(#mask78_69_6114)">
<mask id="mask79_69_6114" style="mask-type:luminance" maskUnits="userSpaceOnUse" x="34" y="23" width="28" height="20">
<path d="M34.7268 24.0718L61.1102 23.8129L61.2918 42.4222L34.9084 42.6811L34.7268 24.0718Z" fill="white"/>
</mask>
<g mask="url(#mask79_69_6114)">
<path d="M38.3918 40.1721C38.3452 40.1721 35.5759 40.5144 35.5759 40.5144L38.6237 40.68C38.5268 40.523 38.4519 40.35 38.3918 40.1721Z" fill="#1E3354"/>
</g>
</g>
</g>
<mask id="mask80_69_6114" style="mask-type:luminance" maskUnits="userSpaceOnUse" x="36" y="39" width="3" height="2">
<path d="M36.1218 39.4199H38.3205V40.0481H36.1218V39.4199Z" fill="white"/>
</mask>
<g mask="url(#mask80_69_6114)">
<mask id="mask81_69_6114" style="mask-type:luminance" maskUnits="userSpaceOnUse" x="34" y="23" width="28" height="20">
<path d="M34.7268 24.0718L61.1102 23.8129L61.2918 42.4222L34.9084 42.6811L34.7268 24.0718Z" fill="white"/>
</mask>
<g mask="url(#mask81_69_6114)">
<mask id="mask82_69_6114" style="mask-type:luminance" maskUnits="userSpaceOnUse" x="34" y="23" width="28" height="20">
<path d="M34.7268 24.0718L61.1102 23.8129L61.2918 42.4222L34.9084 42.6811L34.7268 24.0718Z" fill="white"/>
</mask>
<g mask="url(#mask82_69_6114)">
<path d="M38.2481 39.431C38.2211 39.431 36.3242 39.6862 36.3242 39.6862L38.2996 39.8248C38.2714 39.6935 38.2542 39.5623 38.2481 39.431Z" fill="#1E3354"/>
</g>
</g>
</g>
<mask id="mask83_69_6114" style="mask-type:luminance" maskUnits="userSpaceOnUse" x="40" y="35" width="22" height="8">
<path d="M40.2051 35.9647H61.25V42.2468H40.2051V35.9647Z" fill="white"/>
</mask>
<g mask="url(#mask83_69_6114)">
<mask id="mask84_69_6114" style="mask-type:luminance" maskUnits="userSpaceOnUse" x="34" y="23" width="28" height="20">
<path d="M34.7266 24.0718L61.11 23.8129L61.2915 42.4222L34.9082 42.6811L34.7266 24.0718Z" fill="white"/>
</mask>
<g mask="url(#mask84_69_6114)">
<mask id="mask85_69_6114" style="mask-type:luminance" maskUnits="userSpaceOnUse" x="34" y="23" width="28" height="20">
<path d="M34.7266 24.0718L61.11 23.8129L61.2915 42.4222L34.9082 42.6811L34.7266 24.0718Z" fill="white"/>
</mask>
<g mask="url(#mask85_69_6114)">
<path d="M60.04 39.4125C58.737 38.6309 57.2204 38.4567 55.7567 38.2862C55.4144 38.2481 55.0659 38.204 54.7236 38.1598C54.2083 38.1021 53.7383 37.9586 53.2942 37.7267C51.5065 36.7917 49.7495 36.2666 47.9274 36.1218C46.4526 36.004 44.9349 36.2249 43.2785 36.793C43.0417 36.8641 42.8012 36.9451 42.5693 37.0212C41.8405 37.2604 41.0908 37.5095 40.3239 37.5696L40.2761 37.5745L40.2356 37.7647L40.2945 37.7807C40.8319 37.9377 41.3951 37.9586 41.9374 37.9843C42.2319 37.9978 42.5325 38.0101 42.8269 38.0445C43.6748 38.0948 44.5324 38.1647 45.3594 38.2408C46.6023 38.35 47.8869 38.4629 49.1446 38.4825L49.1593 38.3561C47.2833 37.9745 45.6023 37.7328 44.0281 37.6175C45.0576 36.9758 46.5913 36.6973 48.3655 36.8224C49.9924 36.9377 51.6279 37.3954 52.7555 38.042C52.688 38.2322 52.5408 38.2543 52.2893 38.2727C52.2414 38.2788 52.1948 38.2788 52.142 38.2849L51.9948 38.3021L52.1065 38.4015C52.3666 38.6297 52.6512 38.7377 52.9985 38.7291L53.1936 38.7217C54.8819 38.6628 56.6278 38.599 58.2634 39.0665C57.4904 39.1904 56.7689 39.6076 56.364 40.1745C56.0168 40.6616 55.9272 41.2309 56.0965 41.8137L56.1665 42.0542L56.2217 41.8063C56.4794 40.6579 57.3652 39.8334 58.4854 39.7119C59.5885 39.5904 60.5786 40.1696 61.067 41.2174L61.1529 41.3953L61.1934 41.2002C61.3332 40.4419 60.5786 39.718 60.04 39.4125Z" fill="#1E3354"/>
</g>
</g>
</g>
<mask id="mask86_69_6114" style="mask-type:luminance" maskUnits="userSpaceOnUse" x="38" y="37" width="18" height="5">
<path d="M38.3206 37.8494H55.9103V41.6186H38.3206V37.8494Z" fill="white"/>
</mask>
<g mask="url(#mask86_69_6114)">
<mask id="mask87_69_6114" style="mask-type:luminance" maskUnits="userSpaceOnUse" x="34" y="23" width="28" height="20">
<path d="M34.7268 24.0718L61.1102 23.8129L61.2918 42.4222L34.9084 42.6811L34.7268 24.0718Z" fill="white"/>
</mask>
<g mask="url(#mask87_69_6114)">
<mask id="mask88_69_6114" style="mask-type:luminance" maskUnits="userSpaceOnUse" x="34" y="23" width="28" height="20">
<path d="M34.7268 24.0718L61.1102 23.8129L61.2918 42.4222L34.9084 42.6811L34.7268 24.0718Z" fill="white"/>
</mask>
<g mask="url(#mask88_69_6114)">
<path d="M55.8858 39.1635L55.8846 39.0322C51.8062 38.9512 47.7155 38.6654 43.9045 38.3709C43.1095 38.3108 42.2984 38.2396 41.5132 38.1684C40.9083 38.1108 40.2813 38.0543 39.6654 38.0077C38.8863 37.9414 38.593 38.1856 38.5218 38.9598C38.3857 40.0138 38.9611 41.2812 40.1365 41.496L40.1942 41.5058L40.2089 41.4481C40.4629 40.4935 41.0408 39.3623 42.3242 39.3647C45.3389 39.2567 48.4001 39.2322 51.362 39.2138C52.8454 39.1991 54.3816 39.1893 55.8858 39.1635Z" fill="#1E3354"/>
</g>
</g>
</g>
<mask id="mask89_69_6114" style="mask-type:luminance" maskUnits="userSpaceOnUse" x="40" y="39" width="7" height="4">
<path d="M40.5193 39.4199H46.1731V42.5609H40.5193V39.4199Z" fill="white"/>
</mask>
<g mask="url(#mask89_69_6114)">
<mask id="mask90_69_6114" style="mask-type:luminance" maskUnits="userSpaceOnUse" x="34" y="23" width="28" height="20">
<path d="M34.7268 24.0718L61.1102 23.8129L61.2918 42.4222L34.9084 42.6811L34.7268 24.0718Z" fill="white"/>
</mask>
<g mask="url(#mask90_69_6114)">
<mask id="mask91_69_6114" style="mask-type:luminance" maskUnits="userSpaceOnUse" x="34" y="23" width="28" height="20">
<path d="M34.7268 24.0718L61.1102 23.8129L61.2918 42.4222L34.9084 42.6811L34.7268 24.0718Z" fill="white"/>
</mask>
<g mask="url(#mask91_69_6114)">
<path d="M44.5438 39.8113C43.5659 39.3684 42.3414 39.4862 41.5635 40.0984C40.8064 40.6321 40.4985 41.4554 40.7377 42.2947L40.804 42.5315L40.8592 42.2885C41.1218 41.1916 41.9978 40.3892 43.0861 40.2469C44.1683 40.1045 45.1842 40.6579 45.7351 41.6836L45.8701 41.9401L45.8566 41.6505C45.8173 40.8456 45.3364 40.172 44.5438 39.8113Z" fill="#1E3354"/>
</g>
</g>
</g>
</svg>
