<svg width="500" height="208" viewBox="0 0 500 208" fill="none" xmlns="http://www.w3.org/2000/svg">
<mask id="mask0_20_5716" style="mask-type:luminance" maskUnits="userSpaceOnUse" x="8" y="0" width="493" height="208">
<path d="M8.90112 0H500V208H8.90112V0Z" fill="white"/>
</mask>
<g mask="url(#mask0_20_5716)">
<mask id="mask1_20_5716" style="mask-type:luminance" maskUnits="userSpaceOnUse" x="8" y="-1" width="493" height="210">
<path d="M500 -0.666672H8.00012V208.667H500V-0.666672Z" fill="white"/>
</mask>
<g mask="url(#mask1_20_5716)">
<path d="M453.252 208.25H464.252C464.252 208.25 460.892 198.753 456.252 194.75C449.293 188.745 442.008 186.951 433.252 189.75C425.492 192.231 418.252 204.25 418.252 204.25C418.252 204.25 429.271 195.197 437.252 196.25C444.996 197.272 453.252 208.25 453.252 208.25Z" fill="#1E3354"/>
<path d="M102.252 208.25L262.252 180.25L293.252 70.25L10.7524 76.25L310.752 51.75L285.252 208.25H102.252Z" fill="#1E3354"/>
<path d="M298.752 -0.250046L303.252 26.25C303.252 26.25 315.752 29.25 318.752 31.75C319.924 32.7263 322.154 34.1764 321.752 36.25C318.752 51.75 315.752 62.25 313.252 77.25C312.789 80.0277 315.752 82.75 315.752 82.75C315.752 82.75 319.052 85.9323 318.752 87.75C312.252 127.25 293.252 208.25 293.252 208.25H315.752L333.752 90.75C333.752 90.75 334.916 84.8094 334.752 81.25C334.624 78.4572 334.673 76.6581 333.252 74.25C332.13 72.3471 331.071 71.5043 329.252 70.25C327.163 68.8087 323.252 67.75 323.252 67.75L330.752 22.75C330.752 22.75 331.244 20.5252 330.752 19.25C330.104 17.5704 327.252 16.25 327.252 16.25L298.752 -0.250046Z" fill="#1E3354"/>
<path d="M331.752 68.25C331.752 68.25 337.352 73.422 339.252 77.75C340.623 80.8723 341.602 82.8578 341.252 86.25C336.252 134.75 323.252 208.25 323.252 208.25H411.752C411.752 208.25 419.637 191.887 429.252 187.25C440.894 181.637 462.252 189.75 462.252 189.75C462.252 189.75 449.334 181.087 440.252 179.75C431.577 178.472 426.098 180.333 418.252 184.25C412.277 187.233 409.252 191.25 404.752 194.75C402.824 196.25 338.752 203.25 338.752 203.25L345.252 92.75C345.252 92.75 360.6 91.8535 369.752 94.75C377.835 97.3078 382.755 99.2581 388.752 105.25C392.013 108.507 392.752 110.75 395.252 113.75C397.752 116.75 400.752 118.75 405.252 118.75C408.623 118.75 410.931 118.406 413.752 120.25C416.204 121.852 416.864 123.671 418.252 126.25C422.058 133.318 419.752 146.75 419.752 146.75C419.752 146.75 369.252 147.25 365.252 143.75C361.252 140.25 360.909 132.043 359.252 124.25C357.414 115.602 357.252 99.25 357.252 99.25C357.252 99.25 354.729 113.565 354.752 120.25C354.775 126.741 355.752 135.25 355.752 135.25C355.752 135.25 357.155 147.64 362.752 150.75C367.252 153.25 394.252 153.75 394.252 153.75C394.252 153.75 418.252 153.75 431.252 155.25C444.252 156.75 464.252 162.326 469.752 165.25C477.994 169.632 484.086 172.976 489.252 180.75C495.209 189.712 493.252 206.75 493.252 206.75C493.252 206.75 500.144 191.562 498.252 182.25C496.704 174.629 494.327 169.402 487.752 165.25C468.752 153.25 429.252 146.75 429.252 146.75C429.252 146.75 431.235 132.121 427.252 124.25C425.119 120.032 423.702 117.347 419.752 114.75C415.399 111.887 406.752 111.75 406.752 111.75C406.752 111.75 402.525 102.503 398.752 97.25C393.597 90.0728 389.911 86.4309 382.752 81.25C366.102 69.1992 331.752 68.25 331.752 68.25Z" fill="#1E3354"/>
</g>
</g>
<mask id="mask2_20_5716" style="mask-type:luminance" maskUnits="userSpaceOnUse" x="22" y="102" width="81" height="66">
<path d="M22.6667 102H102.667V167.333H22.6667V102Z" fill="white"/>
</mask>
<g mask="url(#mask2_20_5716)">
<mask id="mask3_20_5716" style="mask-type:luminance" maskUnits="userSpaceOnUse" x="0" y="102" width="104" height="81">
<path d="M0.00012207 103.625L102.995 102.615L103.771 181.609L0.776163 182.62L0.00012207 103.625Z" fill="white"/>
</mask>
<g mask="url(#mask3_20_5716)">
<mask id="mask4_20_5716" style="mask-type:luminance" maskUnits="userSpaceOnUse" x="0" y="102" width="104" height="81">
<path d="M0.00012207 103.625L102.995 102.615L103.771 181.609L0.776163 182.62L0.00012207 103.625Z" fill="white"/>
</mask>
<g mask="url(#mask4_20_5716)">
<path d="M85.8179 102.792L36.5314 103.271C34.3856 103.292 32.3387 105.036 31.9793 107.161L22.6929 161.625C24.8127 161.26 26.9325 160.552 28.9897 159.88C29.8179 159.609 30.7658 159.297 31.6564 159.026C36.495 157.359 40.9793 156.464 45.3908 156.323C46.8283 156.266 48.2658 156.313 49.6825 156.422C56.7345 157 63.495 159.016 70.3908 162.615C71.896 163.411 73.4793 163.88 75.2241 164.083C75.245 164.083 75.245 164.083 75.2658 164.083C76.521 164.255 77.8387 164.406 79.0939 164.552C82.8022 164.984 86.6147 165.432 90.2502 166.547C93.6616 163.479 96.1095 159.385 96.8752 154.906L97.9272 148.802C98.1772 147.365 98.3439 146.026 98.3543 144.771C98.3595 143.214 98.12 141.734 97.4793 140.224C97.3127 139.844 95.0679 135.818 94.8283 136.042C97.5158 133.547 99.4897 130.307 100.078 126.719C100.099 126.557 100.078 126.396 100.177 126.229L101.115 120.677C102.776 110.698 95.9585 102.693 85.8179 102.792ZM77.4689 147.505L77.146 149.411C76.8179 151.297 75.0158 152.854 73.0679 152.87L45.8075 153.141C45.3804 153.141 45.0939 152.802 45.1512 152.375L46.396 145.135C46.4741 144.714 46.8752 144.365 47.3022 144.359L74.5627 144.094C76.5054 144.094 77.797 145.599 77.4689 147.505ZM79.7085 123.578L79.3804 125.484C79.0575 127.37 77.2293 128.927 75.3075 128.943L49.8022 129.193C49.3804 129.198 49.0731 128.859 49.146 128.432L50.3908 121.214C50.4689 120.786 50.87 120.438 51.297 120.432L76.797 120.188C78.7397 120.167 80.0314 121.672 79.7085 123.578Z" fill="#1E3354"/>
</g>
</g>
</g>
<mask id="mask5_20_5716" style="mask-type:luminance" maskUnits="userSpaceOnUse" x="0" y="175" width="19" height="5">
<path d="M0 175.333H18.6667V179.333H0V175.333Z" fill="white"/>
</mask>
<g mask="url(#mask5_20_5716)">
<mask id="mask6_20_5716" style="mask-type:luminance" maskUnits="userSpaceOnUse" x="0" y="102" width="104" height="81">
<path d="M0 103.625L102.995 102.615L103.771 181.609L0.776041 182.62L0 103.625Z" fill="white"/>
</mask>
<g mask="url(#mask6_20_5716)">
<mask id="mask7_20_5716" style="mask-type:luminance" maskUnits="userSpaceOnUse" x="0" y="102" width="104" height="81">
<path d="M0 103.625L102.995 102.615L103.771 181.609L0.776041 182.62L0 103.625Z" fill="white"/>
</mask>
<g mask="url(#mask7_20_5716)">
<path d="M15.3855 176.109C10.7969 176.578 0.723999 177.792 0.723999 177.792L18.1823 178.406C17.0625 177.875 16.125 177.073 15.3855 176.109Z" fill="#1E3354"/>
</g>
</g>
</g>
<mask id="mask8_20_5716" style="mask-type:luminance" maskUnits="userSpaceOnUse" x="62" y="176" width="19" height="5">
<path d="M62.6667 176.667H80.0001V180.667H62.6667V176.667Z" fill="white"/>
</mask>
<g mask="url(#mask8_20_5716)">
<mask id="mask9_20_5716" style="mask-type:luminance" maskUnits="userSpaceOnUse" x="0" y="102" width="104" height="81">
<path d="M0.00012207 103.625L102.995 102.615L103.771 181.609L0.776163 182.62L0.00012207 103.625Z" fill="white"/>
</mask>
<g mask="url(#mask9_20_5716)">
<mask id="mask10_20_5716" style="mask-type:luminance" maskUnits="userSpaceOnUse" x="0" y="102" width="104" height="81">
<path d="M0.00012207 103.625L102.995 102.615L103.771 181.609L0.776163 182.62L0.00012207 103.625Z" fill="white"/>
</mask>
<g mask="url(#mask10_20_5716)">
<path d="M63.2449 178.979L79.2605 179.448C79.073 178.802 78.9636 178.156 78.9376 177.51C78.7136 177.51 63.2449 178.979 63.2449 178.979Z" fill="#1E3354"/>
</g>
</g>
</g>
<mask id="mask11_20_5716" style="mask-type:luminance" maskUnits="userSpaceOnUse" x="65" y="174" width="15" height="3">
<path d="M65.3333 174H79.9999V176.667H65.3333V174Z" fill="white"/>
</mask>
<g mask="url(#mask11_20_5716)">
<mask id="mask12_20_5716" style="mask-type:luminance" maskUnits="userSpaceOnUse" x="-1" y="102" width="105" height="81">
<path d="M-0.00012207 103.625L102.995 102.615L103.771 181.609L0.775919 182.62L-0.00012207 103.625Z" fill="white"/>
</mask>
<g mask="url(#mask12_20_5716)">
<mask id="mask13_20_5716" style="mask-type:luminance" maskUnits="userSpaceOnUse" x="-1" y="102" width="105" height="81">
<path d="M-0.00012207 103.625L102.995 102.615L103.771 181.609L0.775919 182.62L-0.00012207 103.625Z" fill="white"/>
</mask>
<g mask="url(#mask13_20_5716)">
<path d="M78.9478 176.557C79.0051 175.87 79.1405 175.198 79.3749 174.552L66.3124 175.974C66.2916 175.974 78.8489 176.557 78.9478 176.557Z" fill="#1E3354"/>
</g>
</g>
</g>
<mask id="mask14_20_5716" style="mask-type:luminance" maskUnits="userSpaceOnUse" x="68" y="171" width="14" height="3">
<path d="M68 171.333H81.3333V174H68V171.333Z" fill="white"/>
</mask>
<g mask="url(#mask14_20_5716)">
<mask id="mask15_20_5716" style="mask-type:luminance" maskUnits="userSpaceOnUse" x="0" y="102" width="104" height="81">
<path d="M0 103.625L102.995 102.615L103.771 181.609L0.776041 182.62L0 103.625Z" fill="white"/>
</mask>
<g mask="url(#mask15_20_5716)">
<mask id="mask16_20_5716" style="mask-type:luminance" maskUnits="userSpaceOnUse" x="0" y="102" width="104" height="81">
<path d="M0 103.625L102.995 102.615L103.771 181.609L0.776041 182.62L0 103.625Z" fill="white"/>
</mask>
<g mask="url(#mask16_20_5716)">
<path d="M81.1667 171.599L68.8334 173.016C68.8334 173.016 78.2552 173.609 79.7292 173.698C79.9323 173.313 80.1511 172.922 80.4271 172.536C80.6459 172.208 80.9063 171.906 81.1667 171.599Z" fill="#1E3354"/>
</g>
</g>
</g>
<mask id="mask17_20_5716" style="mask-type:luminance" maskUnits="userSpaceOnUse" x="2" y="172" width="13" height="4">
<path d="M2.66675 172.667H14.6667V175.333H2.66675V172.667Z" fill="white"/>
</mask>
<g mask="url(#mask17_20_5716)">
<mask id="mask18_20_5716" style="mask-type:luminance" maskUnits="userSpaceOnUse" x="0" y="102" width="104" height="81">
<path d="M0.00012207 103.625L102.995 102.615L103.771 181.609L0.776163 182.62L0.00012207 103.625Z" fill="white"/>
</mask>
<g mask="url(#mask18_20_5716)">
<mask id="mask19_20_5716" style="mask-type:luminance" maskUnits="userSpaceOnUse" x="0" y="102" width="104" height="81">
<path d="M0.00012207 103.625L102.995 102.615L103.771 181.609L0.776163 182.62L0.00012207 103.625Z" fill="white"/>
</mask>
<g mask="url(#mask19_20_5716)">
<path d="M13.797 173.146C13.6147 173.151 3.24487 174.448 3.24487 174.448L14.6667 175.063C14.3178 174.458 14.0261 173.813 13.797 173.146Z" fill="#1E3354"/>
</g>
</g>
</g>
<mask id="mask20_20_5716" style="mask-type:luminance" maskUnits="userSpaceOnUse" x="5" y="170" width="10" height="3">
<path d="M5.33325 170H14.6666V172.667H5.33325V170Z" fill="white"/>
</mask>
<g mask="url(#mask20_20_5716)">
<mask id="mask21_20_5716" style="mask-type:luminance" maskUnits="userSpaceOnUse" x="-1" y="102" width="105" height="81">
<path d="M-0.00012207 103.625L102.995 102.615L103.771 181.609L0.775919 182.62L-0.00012207 103.625Z" fill="white"/>
</mask>
<g mask="url(#mask21_20_5716)">
<mask id="mask22_20_5716" style="mask-type:luminance" maskUnits="userSpaceOnUse" x="-1" y="102" width="105" height="81">
<path d="M-0.00012207 103.625L102.995 102.615L103.771 181.609L0.775919 182.62L-0.00012207 103.625Z" fill="white"/>
</mask>
<g mask="url(#mask22_20_5716)">
<path d="M13.2655 170.359C13.1613 170.359 6.04675 171.323 6.04675 171.323L13.4582 171.833C13.354 171.349 13.2915 170.865 13.2655 170.359Z" fill="#1E3354"/>
</g>
</g>
</g>
<mask id="mask23_20_5716" style="mask-type:luminance" maskUnits="userSpaceOnUse" x="20" y="156" width="80" height="25">
<path d="M20 156.667H100V180.667H20V156.667Z" fill="white"/>
</mask>
<g mask="url(#mask23_20_5716)">
<mask id="mask24_20_5716" style="mask-type:luminance" maskUnits="userSpaceOnUse" x="0" y="102" width="104" height="81">
<path d="M0 103.625L102.995 102.615L103.771 181.609L0.776041 182.62L0 103.625Z" fill="white"/>
</mask>
<g mask="url(#mask24_20_5716)">
<mask id="mask25_20_5716" style="mask-type:luminance" maskUnits="userSpaceOnUse" x="0" y="102" width="104" height="81">
<path d="M0 103.625L102.995 102.615L103.771 181.609L0.776041 182.62L0 103.625Z" fill="white"/>
</mask>
<g mask="url(#mask25_20_5716)">
<path d="M94.9792 170.307C90.0938 167.38 84.4219 166.729 78.9271 166.094C77.651 165.943 76.3333 165.797 75.0573 165.604C73.1094 165.38 71.3646 164.854 69.6979 163.979C62.9844 160.479 56.4062 158.5 49.5781 157.958C44.0469 157.51 38.349 158.333 32.1562 160.479C31.2656 160.75 30.3802 161.042 29.4896 161.333C26.7656 162.234 23.9427 163.172 21.0677 163.38L20.8906 163.401L20.7344 164.115L20.9583 164.172C22.9635 164.76 25.0938 164.859 27.1354 164.943C28.2292 164.99 29.3646 165.042 30.4792 165.172C33.6615 165.344 36.8594 165.635 39.9792 165.906C44.6406 166.307 49.4427 166.745 54.1771 166.823L54.2344 166.333C47.1979 164.906 40.8906 163.995 34.9792 163.547C38.8385 161.141 44.599 160.094 51.2448 160.573C57.3385 161.021 63.4688 162.724 67.7031 165.151C67.4688 165.859 66.901 165.948 65.9531 166.016C65.7708 166.042 65.5885 166.042 65.4062 166.063L64.8594 166.13L65.2708 166.49C66.25 167.349 67.3073 167.745 68.6198 167.714L69.3698 167.682C75.7031 167.458 82.2604 167.214 88.3906 168.974C85.4792 169.448 82.7813 170.995 81.2865 173.115C79.9844 174.948 79.6406 177.078 80.2708 179.255L80.5417 180.167L80.7552 179.234C81.7292 174.911 85.0573 171.844 89.2448 171.375C93.3698 170.932 97.0729 173.083 98.9115 177.01L99.224 177.698L99.3594 176.964C99.8385 174.146 97.0156 171.443 94.9792 170.307Z" fill="#1E3354"/>
</g>
</g>
</g>
<mask id="mask26_20_5716" style="mask-type:luminance" maskUnits="userSpaceOnUse" x="13" y="164" width="67" height="16">
<path d="M13.3333 164.667H79.9999V179.333H13.3333V164.667Z" fill="white"/>
</mask>
<g mask="url(#mask26_20_5716)">
<mask id="mask27_20_5716" style="mask-type:luminance" maskUnits="userSpaceOnUse" x="-1" y="102" width="105" height="81">
<path d="M-0.00012207 103.625L102.995 102.615L103.771 181.609L0.775919 182.62L-0.00012207 103.625Z" fill="white"/>
</mask>
<g mask="url(#mask27_20_5716)">
<mask id="mask28_20_5716" style="mask-type:luminance" maskUnits="userSpaceOnUse" x="-1" y="102" width="105" height="81">
<path d="M-0.00012207 103.625L102.995 102.615L103.771 181.609L0.775919 182.62L-0.00012207 103.625Z" fill="white"/>
</mask>
<g mask="url(#mask28_20_5716)">
<path d="M79.4061 169.37L79.4009 168.88C64.1145 168.568 48.7603 167.5 34.4582 166.385C31.479 166.172 28.4426 165.88 25.5051 165.625C23.2343 165.422 20.8853 165.203 18.578 165.005C15.6405 164.771 14.552 165.672 14.2811 168.568C13.7499 172.521 15.9218 177.276 20.3436 178.083L20.5676 178.12L20.6249 177.901C21.5832 174.328 23.7447 170.073 28.5624 170.068C39.854 169.656 51.354 169.583 62.4634 169.495C68.0103 169.5 73.7603 169.443 79.4061 169.37Z" fill="#1E3354"/>
</g>
</g>
</g>
<mask id="mask29_20_5716" style="mask-type:luminance" maskUnits="userSpaceOnUse" x="21" y="170" width="22" height="14">
<path d="M21.3333 170H42.6666V183.333H21.3333V170Z" fill="white"/>
</mask>
<g mask="url(#mask29_20_5716)">
<mask id="mask30_20_5716" style="mask-type:luminance" maskUnits="userSpaceOnUse" x="-1" y="102" width="105" height="81">
<path d="M-0.00012207 103.625L102.995 102.615L103.771 181.609L0.775919 182.62L-0.00012207 103.625Z" fill="white"/>
</mask>
<g mask="url(#mask30_20_5716)">
<mask id="mask31_20_5716" style="mask-type:luminance" maskUnits="userSpaceOnUse" x="-1" y="102" width="105" height="81">
<path d="M-0.00012207 103.625L102.995 102.615L103.771 181.609L0.775919 182.62L-0.00012207 103.625Z" fill="white"/>
</mask>
<g mask="url(#mask31_20_5716)">
<path d="M36.8592 171.786C33.1977 170.125 28.6092 170.573 25.6769 172.87C22.8436 174.88 21.6769 177.969 22.5779 181.12L22.8332 182.005L23.0467 181.094C24.0363 176.974 27.3071 173.969 31.4113 173.443C35.4738 172.917 39.2811 174.984 41.3436 178.828L41.8592 179.797L41.8071 178.703C41.6561 175.667 39.8488 173.156 36.8592 171.786Z" fill="#1E3354"/>
</g>
</g>
</g>
<mask id="mask32_20_5716" style="mask-type:luminance" maskUnits="userSpaceOnUse" x="102" y="102" width="80" height="60">
<path d="M102.667 102H181.333V162H102.667V102Z" fill="white"/>
</mask>
<g mask="url(#mask32_20_5716)">
<mask id="mask33_20_5716" style="mask-type:luminance" maskUnits="userSpaceOnUse" x="72" y="101" width="112" height="81">
<path d="M72.6095 102.911L182.604 101.833L183.38 180.833L73.3855 181.906L72.6095 102.911Z" fill="white"/>
</mask>
<g mask="url(#mask33_20_5716)">
<mask id="mask34_20_5716" style="mask-type:luminance" maskUnits="userSpaceOnUse" x="72" y="101" width="112" height="81">
<path d="M72.6095 102.911L182.604 101.833L183.38 180.833L73.3855 181.906L72.6095 102.911Z" fill="white"/>
</mask>
<g mask="url(#mask34_20_5716)">
<path d="M165.943 102.052L117.083 102.531C114.953 102.552 112.932 104.266 112.563 106.375L103.276 160.781C105.896 160.125 108.412 159.75 110.912 159.682C112.125 159.651 113.344 159.682 114.516 159.781C117.646 160.031 120.714 160.63 123.766 161.578L124.953 154.594C125.016 154.182 125.427 153.833 125.859 153.828L157.172 153.5C167.224 153.401 176.724 145.292 178.427 135.417L181.078 119.818C182.76 109.88 175.974 101.953 165.943 102.052ZM159.891 122.677L158.12 132.943C157.792 134.818 156.005 136.354 154.094 136.37L128.797 136.62C128.365 136.625 128.078 136.281 128.162 135.865L130.807 120.333C130.87 119.922 131.281 119.568 131.714 119.563L157.01 119.318C158.901 119.276 160.198 120.786 159.891 122.677Z" fill="#1E3354"/>
</g>
</g>
</g>
<mask id="mask35_20_5716" style="mask-type:luminance" maskUnits="userSpaceOnUse" x="73" y="175" width="17" height="5">
<path d="M73.3333 175.333H89.3333V179.333H73.3333V175.333Z" fill="white"/>
</mask>
<g mask="url(#mask35_20_5716)">
<mask id="mask36_20_5716" style="mask-type:luminance" maskUnits="userSpaceOnUse" x="72" y="101" width="112" height="81">
<path d="M72.6093 102.911L182.604 101.833L183.38 180.833L73.3853 181.906L72.6093 102.911Z" fill="white"/>
</mask>
<g mask="url(#mask36_20_5716)">
<mask id="mask37_20_5716" style="mask-type:luminance" maskUnits="userSpaceOnUse" x="72" y="101" width="112" height="81">
<path d="M72.6093 102.911L182.604 101.833L183.38 180.833L73.3853 181.906L72.6093 102.911Z" fill="white"/>
</mask>
<g mask="url(#mask37_20_5716)">
<path d="M85.6665 176.328C81.8228 176.714 73.3436 177.729 73.3436 177.729L88.0311 178.26C87.0884 177.813 86.302 177.125 85.6665 176.328Z" fill="#1E3354"/>
</g>
</g>
</g>
<mask id="mask38_20_5716" style="mask-type:luminance" maskUnits="userSpaceOnUse" x="125" y="176" width="15" height="4">
<path d="M125.333 176.667H140V179.333H125.333V176.667Z" fill="white"/>
</mask>
<g mask="url(#mask38_20_5716)">
<mask id="mask39_20_5716" style="mask-type:luminance" maskUnits="userSpaceOnUse" x="72" y="101" width="112" height="81">
<path d="M72.6093 102.912L182.604 101.833L183.38 180.833L73.3853 181.906L72.6093 102.912Z" fill="white"/>
</mask>
<g mask="url(#mask39_20_5716)">
<mask id="mask40_20_5716" style="mask-type:luminance" maskUnits="userSpaceOnUse" x="72" y="101" width="112" height="81">
<path d="M72.6093 102.912L182.604 101.833L183.38 180.833L73.3853 181.906L72.6093 102.912Z" fill="white"/>
</mask>
<g mask="url(#mask40_20_5716)">
<path d="M125.927 178.734L139.396 179.146C139.24 178.604 139.151 178.063 139.12 177.521C138.948 177.5 125.927 178.734 125.927 178.734Z" fill="#1E3354"/>
</g>
</g>
</g>
<mask id="mask41_20_5716" style="mask-type:luminance" maskUnits="userSpaceOnUse" x="128" y="174" width="12" height="4">
<path d="M128 174H140V178H128V174Z" fill="white"/>
</mask>
<g mask="url(#mask41_20_5716)">
<mask id="mask42_20_5716" style="mask-type:luminance" maskUnits="userSpaceOnUse" x="72" y="101" width="112" height="81">
<path d="M72.6094 102.911L182.604 101.833L183.38 180.833L73.3854 181.906L72.6094 102.911Z" fill="white"/>
</mask>
<g mask="url(#mask42_20_5716)">
<mask id="mask43_20_5716" style="mask-type:luminance" maskUnits="userSpaceOnUse" x="72" y="101" width="112" height="81">
<path d="M72.6094 102.911L182.604 101.833L183.38 180.833L73.3854 181.906L72.6094 102.911Z" fill="white"/>
</mask>
<g mask="url(#mask43_20_5716)">
<path d="M139.135 176.719C139.172 176.13 139.297 175.563 139.49 175.021L128.49 176.214C128.49 176.214 139.047 176.719 139.135 176.719Z" fill="#1E3354"/>
</g>
</g>
</g>
<mask id="mask44_20_5716" style="mask-type:luminance" maskUnits="userSpaceOnUse" x="129" y="171" width="13" height="5">
<path d="M129.333 171.333H141.333V175.333H129.333V171.333Z" fill="white"/>
</mask>
<g mask="url(#mask44_20_5716)">
<mask id="mask45_20_5716" style="mask-type:luminance" maskUnits="userSpaceOnUse" x="72" y="101" width="112" height="81">
<path d="M72.6093 102.911L182.604 101.833L183.38 180.833L73.3853 181.906L72.6093 102.911Z" fill="white"/>
</mask>
<g mask="url(#mask45_20_5716)">
<mask id="mask46_20_5716" style="mask-type:luminance" maskUnits="userSpaceOnUse" x="72" y="101" width="112" height="81">
<path d="M72.6093 102.911L182.604 101.833L183.38 180.833L73.3853 181.906L72.6093 102.911Z" fill="white"/>
</mask>
<g mask="url(#mask46_20_5716)">
<path d="M141.005 172.526L130.635 173.714C130.635 173.714 138.547 174.224 139.786 174.276C139.953 173.953 140.146 173.625 140.359 173.318C140.552 173.052 140.771 172.792 141.005 172.526Z" fill="#1E3354"/>
</g>
</g>
</g>
<mask id="mask47_20_5716" style="mask-type:luminance" maskUnits="userSpaceOnUse" x="74" y="172" width="12" height="5">
<path d="M74.6667 172.667H85.3334V176.667H74.6667V172.667Z" fill="white"/>
</mask>
<g mask="url(#mask47_20_5716)">
<mask id="mask48_20_5716" style="mask-type:luminance" maskUnits="userSpaceOnUse" x="72" y="101" width="112" height="81">
<path d="M72.6095 102.912L182.604 101.833L183.38 180.833L73.3855 181.906L72.6095 102.912Z" fill="white"/>
</mask>
<g mask="url(#mask48_20_5716)">
<mask id="mask49_20_5716" style="mask-type:luminance" maskUnits="userSpaceOnUse" x="72" y="101" width="112" height="81">
<path d="M72.6095 102.912L182.604 101.833L183.38 180.833L73.3855 181.906L72.6095 102.912Z" fill="white"/>
</mask>
<g mask="url(#mask49_20_5716)">
<path d="M84.3386 173.844C84.1876 173.844 75.4636 174.927 75.4636 174.927L85.0678 175.464C84.7813 174.948 84.5365 174.406 84.3386 173.844Z" fill="#1E3354"/>
</g>
</g>
</g>
<mask id="mask50_20_5716" style="mask-type:luminance" maskUnits="userSpaceOnUse" x="77" y="171" width="9" height="3">
<path d="M77.3333 171.333H85.3333V174H77.3333V171.333Z" fill="white"/>
</mask>
<g mask="url(#mask50_20_5716)">
<mask id="mask51_20_5716" style="mask-type:luminance" maskUnits="userSpaceOnUse" x="72" y="101" width="112" height="81">
<path d="M72.6093 102.911L182.604 101.833L183.38 180.833L73.3853 181.906L72.6093 102.911Z" fill="white"/>
</mask>
<g mask="url(#mask51_20_5716)">
<mask id="mask52_20_5716" style="mask-type:luminance" maskUnits="userSpaceOnUse" x="72" y="101" width="112" height="81">
<path d="M72.6093 102.911L182.604 101.833L183.38 180.833L73.3853 181.906L72.6093 102.911Z" fill="white"/>
</mask>
<g mask="url(#mask52_20_5716)">
<path d="M83.88 171.505C83.7915 171.505 77.8071 172.302 77.8071 172.302L84.0415 172.74C83.953 172.328 83.9061 171.917 83.88 171.505Z" fill="#1E3354"/>
</g>
</g>
</g>
<mask id="mask53_20_5716" style="mask-type:luminance" maskUnits="userSpaceOnUse" x="89" y="160" width="69" height="21">
<path d="M89.3333 160.667H157.333V180.667H89.3333V160.667Z" fill="white"/>
</mask>
<g mask="url(#mask53_20_5716)">
<mask id="mask54_20_5716" style="mask-type:luminance" maskUnits="userSpaceOnUse" x="72" y="101" width="112" height="81">
<path d="M72.6093 102.911L182.604 101.833L183.38 180.833L73.3853 181.906L72.6093 102.911Z" fill="white"/>
</mask>
<g mask="url(#mask54_20_5716)">
<mask id="mask55_20_5716" style="mask-type:luminance" maskUnits="userSpaceOnUse" x="72" y="101" width="112" height="81">
<path d="M72.6093 102.911L182.604 101.833L183.38 180.833L73.3853 181.906L72.6093 102.911Z" fill="white"/>
</mask>
<g mask="url(#mask55_20_5716)">
<path d="M152.614 171.438C148.505 168.979 143.724 168.417 139.114 167.88C138.047 167.76 136.937 167.615 135.854 167.474C134.224 167.297 132.739 166.833 131.344 166.109C125.713 163.167 120.156 161.505 114.422 161.042C109.771 160.672 104.974 161.349 99.7603 163.161C99.0259 163.385 98.2655 163.63 97.5311 163.875C95.2342 164.635 92.8748 165.422 90.4478 165.599H90.2915L90.1665 166.188L90.3436 166.25C92.0415 166.734 93.8228 166.823 95.5415 166.891C96.4738 166.927 97.4321 166.984 98.3436 167.083C101.015 167.229 103.713 167.464 106.344 167.698C110.255 168.052 114.297 168.401 118.271 168.474L118.312 168.063C112.39 166.859 107.083 166.109 102.13 165.719C105.39 163.714 110.224 162.818 115.807 163.219C120.937 163.583 126.099 165.031 129.661 167.078C129.448 167.693 128.969 167.74 128.187 167.813C128.036 167.813 127.885 167.839 127.734 167.859L127.276 167.906L127.63 168.208C128.463 168.938 129.354 169.255 130.443 169.245L131.068 169.219C136.411 169.031 141.901 168.828 147.062 170.297C144.614 170.693 142.349 171.995 141.083 173.786C139.989 175.318 139.703 177.125 140.245 178.964L140.469 179.724L140.635 178.938C141.443 175.302 144.245 172.714 147.755 172.333C151.229 171.953 154.354 173.766 155.906 177.073L156.172 177.635L156.297 177.026C156.708 174.677 154.338 172.396 152.614 171.438Z" fill="#1E3354"/>
</g>
</g>
</g>
<mask id="mask56_20_5716" style="mask-type:luminance" maskUnits="userSpaceOnUse" x="84" y="166" width="56" height="14">
<path d="M84 166H140V179.333H84V166Z" fill="white"/>
</mask>
<g mask="url(#mask56_20_5716)">
<mask id="mask57_20_5716" style="mask-type:luminance" maskUnits="userSpaceOnUse" x="72" y="101" width="112" height="81">
<path d="M72.6094 102.911L182.604 101.833L183.38 180.833L73.3854 181.906L72.6094 102.911Z" fill="white"/>
</mask>
<g mask="url(#mask57_20_5716)">
<mask id="mask58_20_5716" style="mask-type:luminance" maskUnits="userSpaceOnUse" x="72" y="101" width="112" height="81">
<path d="M72.6094 102.911L182.604 101.833L183.38 180.833L73.3854 181.906L72.6094 102.911Z" fill="white"/>
</mask>
<g mask="url(#mask58_20_5716)">
<path d="M139.51 170.656L139.505 170.24C126.646 169.974 113.74 169.083 101.719 168.156C99.1979 167.964 96.6562 167.729 94.1771 167.516C92.2656 167.339 90.2864 167.161 88.3541 167.005C85.8958 166.812 84.9687 167.562 84.7344 170.016C84.2864 173.344 86.1094 177.344 89.8281 178.026L90.026 178.068L90.0677 177.891C90.8646 174.885 92.6927 171.307 96.7552 171.312C106.266 170.958 115.927 170.906 125.266 170.839C129.932 170.771 134.776 170.724 139.51 170.656Z" fill="#1E3354"/>
</g>
</g>
</g>
<mask id="mask59_20_5716" style="mask-type:luminance" maskUnits="userSpaceOnUse" x="90" y="171" width="19" height="11">
<path d="M90.6667 171.333H108V182H90.6667V171.333Z" fill="white"/>
</mask>
<g mask="url(#mask59_20_5716)">
<mask id="mask60_20_5716" style="mask-type:luminance" maskUnits="userSpaceOnUse" x="72" y="101" width="112" height="81">
<path d="M72.6095 102.911L182.604 101.833L183.38 180.833L73.3855 181.906L72.6095 102.911Z" fill="white"/>
</mask>
<g mask="url(#mask60_20_5716)">
<mask id="mask61_20_5716" style="mask-type:luminance" maskUnits="userSpaceOnUse" x="72" y="101" width="112" height="81">
<path d="M72.6095 102.911L182.604 101.833L183.38 180.833L73.3855 181.906L72.6095 102.911Z" fill="white"/>
</mask>
<g mask="url(#mask61_20_5716)">
<path d="M103.74 172.698C100.667 171.297 96.8022 171.682 94.3439 173.594C91.9533 175.292 90.9793 177.885 91.7449 180.526L91.948 181.281L92.1355 180.521C92.9689 177.063 95.7241 174.536 99.172 174.089C102.599 173.641 105.787 175.391 107.511 178.635L107.932 179.432L107.88 178.521C107.771 175.958 106.25 173.844 103.74 172.698Z" fill="#1E3354"/>
</g>
</g>
</g>
<mask id="mask62_20_5716" style="mask-type:luminance" maskUnits="userSpaceOnUse" x="170" y="100" width="79" height="64">
<path d="M170.667 100.667H248V163.333H170.667V100.667Z" fill="white"/>
</mask>
<g mask="url(#mask62_20_5716)">
<mask id="mask63_20_5716" style="mask-type:luminance" maskUnits="userSpaceOnUse" x="147" y="101" width="114" height="81">
<path d="M147.411 102.182L259.406 101.083L260.177 180.078L148.182 181.177L147.411 102.182Z" fill="white"/>
</mask>
<g mask="url(#mask63_20_5716)">
<mask id="mask64_20_5716" style="mask-type:luminance" maskUnits="userSpaceOnUse" x="147" y="101" width="114" height="81">
<path d="M147.411 102.182L259.406 101.083L260.177 180.078L148.182 181.177L147.411 102.182Z" fill="white"/>
</mask>
<g mask="url(#mask64_20_5716)">
<path d="M183.182 154.516C188.656 152.63 193.74 151.62 198.74 151.458C200.37 151.396 202 151.448 203.589 151.568C211.568 152.224 219.229 154.521 227.016 158.573C228.724 159.474 230.516 160.016 232.484 160.24C232.505 160.24 232.505 160.24 232.526 160.24C233.958 160.448 235.432 160.615 236.865 160.776C240.219 161.167 243.641 161.563 246.974 162.354L227.609 104.901C226.344 101.406 223.021 101.531 223.021 101.531C221.255 101.547 219.714 101.516 218.307 101.531C217.906 101.536 217.568 101.536 217.167 101.542L216.677 101.547C215.583 101.536 214.578 101.547 213.641 101.578V101.641C213.62 101.646 213.62 101.646 213.594 101.646V101.599C210.177 101.766 207.662 102.438 205.724 105.115L171.776 157.661C174.589 157.344 177.417 156.401 180.151 155.505C181.089 155.182 182.156 154.839 183.182 154.516ZM214.141 127.745L219.807 145.109L202.88 145.276L214.141 127.745Z" fill="#1E3354"/>
</g>
</g>
</g>
<mask id="mask65_20_5716" style="mask-type:luminance" maskUnits="userSpaceOnUse" x="148" y="172" width="20" height="5">
<path d="M148 172.667H168V176.667H148V172.667Z" fill="white"/>
</mask>
<g mask="url(#mask65_20_5716)">
<mask id="mask66_20_5716" style="mask-type:luminance" maskUnits="userSpaceOnUse" x="147" y="101" width="114" height="81">
<path d="M147.411 102.182L259.406 101.083L260.177 180.078L148.182 181.177L147.411 102.182Z" fill="white"/>
</mask>
<g mask="url(#mask66_20_5716)">
<mask id="mask67_20_5716" style="mask-type:luminance" maskUnits="userSpaceOnUse" x="147" y="101" width="114" height="81">
<path d="M147.411 102.182L259.406 101.083L260.177 180.078L148.182 181.177L147.411 102.182Z" fill="white"/>
</mask>
<g mask="url(#mask67_20_5716)">
<path d="M164.745 173.88C159.568 174.396 148.172 175.781 148.172 175.781L167.922 176.484C166.661 175.87 165.604 174.964 164.745 173.88Z" fill="#1E3354"/>
</g>
</g>
</g>
<mask id="mask68_20_5716" style="mask-type:luminance" maskUnits="userSpaceOnUse" x="218" y="175" width="20" height="3">
<path d="M218.667 175.333H237.333V178H218.667V175.333Z" fill="white"/>
</mask>
<g mask="url(#mask68_20_5716)">
<mask id="mask69_20_5716" style="mask-type:luminance" maskUnits="userSpaceOnUse" x="147" y="101" width="114" height="81">
<path d="M147.411 102.182L259.406 101.083L260.177 180.078L148.182 181.177L147.411 102.182Z" fill="white"/>
</mask>
<g mask="url(#mask69_20_5716)">
<mask id="mask70_20_5716" style="mask-type:luminance" maskUnits="userSpaceOnUse" x="147" y="101" width="114" height="81">
<path d="M147.411 102.182L259.406 101.083L260.177 180.078L148.182 181.177L147.411 102.182Z" fill="white"/>
</mask>
<g mask="url(#mask70_20_5716)">
<path d="M218.932 177.125L237.052 177.662C236.844 176.927 236.724 176.188 236.698 175.474C236.448 175.453 218.932 177.125 218.932 177.125Z" fill="#1E3354"/>
</g>
</g>
</g>
<mask id="mask71_20_5716" style="mask-type:luminance" maskUnits="userSpaceOnUse" x="221" y="171" width="17" height="5">
<path d="M221.333 171.333H237.333V175.333H221.333V171.333Z" fill="white"/>
</mask>
<g mask="url(#mask71_20_5716)">
<mask id="mask72_20_5716" style="mask-type:luminance" maskUnits="userSpaceOnUse" x="147" y="101" width="114" height="81">
<path d="M147.411 102.182L259.406 101.083L260.177 180.078L148.182 181.177L147.411 102.182Z" fill="white"/>
</mask>
<g mask="url(#mask72_20_5716)">
<mask id="mask73_20_5716" style="mask-type:luminance" maskUnits="userSpaceOnUse" x="147" y="101" width="114" height="81">
<path d="M147.411 102.182L259.406 101.083L260.177 180.078L148.182 181.177L147.411 102.182Z" fill="white"/>
</mask>
<g mask="url(#mask73_20_5716)">
<path d="M236.708 174.38C236.766 173.599 236.917 172.839 237.177 172.099L222.385 173.719C222.385 173.719 236.594 174.401 236.708 174.38Z" fill="#1E3354"/>
</g>
</g>
</g>
<mask id="mask74_20_5716" style="mask-type:luminance" maskUnits="userSpaceOnUse" x="224" y="168" width="16" height="4">
<path d="M224 168.667H240V171.333H224V168.667Z" fill="white"/>
</mask>
<g mask="url(#mask74_20_5716)">
<mask id="mask75_20_5716" style="mask-type:luminance" maskUnits="userSpaceOnUse" x="147" y="101" width="114" height="81">
<path d="M147.411 102.182L259.406 101.083L260.177 180.078L148.182 181.177L147.411 102.182Z" fill="white"/>
</mask>
<g mask="url(#mask75_20_5716)">
<mask id="mask76_20_5716" style="mask-type:luminance" maskUnits="userSpaceOnUse" x="147" y="101" width="114" height="81">
<path d="M147.411 102.182L259.406 101.083L260.177 180.078L148.182 181.177L147.411 102.182Z" fill="white"/>
</mask>
<g mask="url(#mask76_20_5716)">
<path d="M239.245 168.771L225.276 170.359C225.276 170.359 235.938 171.037 237.615 171.136C237.833 170.682 238.099 170.255 238.406 169.828C238.625 169.469 238.912 169.109 239.245 168.771Z" fill="#1E3354"/>
</g>
</g>
</g>
<mask id="mask77_20_5716" style="mask-type:luminance" maskUnits="userSpaceOnUse" x="150" y="170" width="14" height="4">
<path d="M150.667 170H164V174H150.667V170Z" fill="white"/>
</mask>
<g mask="url(#mask77_20_5716)">
<mask id="mask78_20_5716" style="mask-type:luminance" maskUnits="userSpaceOnUse" x="147" y="101" width="114" height="81">
<path d="M147.411 102.182L259.406 101.083L260.177 180.078L148.182 181.177L147.411 102.182Z" fill="white"/>
</mask>
<g mask="url(#mask78_20_5716)">
<mask id="mask79_20_5716" style="mask-type:luminance" maskUnits="userSpaceOnUse" x="147" y="101" width="114" height="81">
<path d="M147.411 102.182L259.406 101.083L260.177 180.078L148.182 181.177L147.411 102.182Z" fill="white"/>
</mask>
<g mask="url(#mask79_20_5716)">
<path d="M162.969 170.526C162.771 170.526 151.016 171.979 151.016 171.979L163.953 172.682C163.542 172.016 163.224 171.281 162.969 170.526Z" fill="#1E3354"/>
</g>
</g>
</g>
<mask id="mask80_20_5716" style="mask-type:luminance" maskUnits="userSpaceOnUse" x="153" y="167" width="10" height="3">
<path d="M153.333 167.333H162.667V170H153.333V167.333Z" fill="white"/>
</mask>
<g mask="url(#mask80_20_5716)">
<mask id="mask81_20_5716" style="mask-type:luminance" maskUnits="userSpaceOnUse" x="147" y="101" width="114" height="81">
<path d="M147.411 102.182L259.406 101.083L260.177 180.078L148.182 181.177L147.411 102.182Z" fill="white"/>
</mask>
<g mask="url(#mask81_20_5716)">
<mask id="mask82_20_5716" style="mask-type:luminance" maskUnits="userSpaceOnUse" x="147" y="101" width="114" height="81">
<path d="M147.411 102.182L259.406 101.083L260.177 180.078L148.182 181.177L147.411 102.182Z" fill="white"/>
</mask>
<g mask="url(#mask82_20_5716)">
<path d="M162.359 167.38C162.245 167.38 154.193 168.464 154.193 168.464L162.578 169.052C162.458 168.495 162.385 167.938 162.359 167.38Z" fill="#1E3354"/>
</g>
</g>
</g>
<mask id="mask83_20_5716" style="mask-type:luminance" maskUnits="userSpaceOnUse" x="170" y="152" width="91" height="28">
<path d="M170.667 152.667H260V179.333H170.667V152.667Z" fill="white"/>
</mask>
<g mask="url(#mask83_20_5716)">
<mask id="mask84_20_5716" style="mask-type:luminance" maskUnits="userSpaceOnUse" x="147" y="101" width="114" height="81">
<path d="M147.411 102.182L259.406 101.083L260.177 180.078L148.182 181.177L147.411 102.182Z" fill="white"/>
</mask>
<g mask="url(#mask84_20_5716)">
<mask id="mask85_20_5716" style="mask-type:luminance" maskUnits="userSpaceOnUse" x="147" y="101" width="114" height="81">
<path d="M147.411 102.182L259.406 101.083L260.177 180.078L148.182 181.177L147.411 102.182Z" fill="white"/>
</mask>
<g mask="url(#mask85_20_5716)">
<path d="M254.865 167.302C249.333 163.984 242.896 163.245 236.682 162.521C235.229 162.359 233.75 162.172 232.297 161.984C230.109 161.74 228.115 161.13 226.229 160.146C218.641 156.177 211.182 153.948 203.448 153.333C197.188 152.833 190.745 153.771 183.714 156.182C182.708 156.484 181.688 156.828 180.703 157.151C177.609 158.167 174.427 159.224 171.172 159.479L170.969 159.5L170.797 160.307L171.047 160.375C173.328 161.042 175.719 161.13 178.021 161.24C179.271 161.297 180.547 161.349 181.797 161.495C185.396 161.708 189.036 162.005 192.547 162.328C197.823 162.792 203.276 163.271 208.615 163.354L208.677 162.818C200.714 161.198 193.578 160.172 186.896 159.682C191.266 156.958 197.776 155.776 205.307 156.307C212.214 156.797 219.156 158.74 223.943 161.484C223.656 162.292 223.031 162.385 221.964 162.464C221.76 162.49 221.562 162.49 221.339 162.516L220.714 162.589L221.188 163.01C222.292 163.979 223.5 164.438 224.974 164.401L225.802 164.37C232.969 164.12 240.38 163.849 247.323 165.833C244.042 166.359 240.979 168.13 239.26 170.536C237.786 172.604 237.406 175.021 238.125 177.495L238.422 178.516L238.656 177.464C239.75 172.589 243.51 169.089 248.266 168.573C252.948 168.057 257.151 170.516 259.224 174.964L259.589 175.719L259.76 174.891C260.354 171.672 257.151 168.599 254.865 167.302Z" fill="#1E3354"/>
</g>
</g>
</g>
<mask id="mask86_20_5716" style="mask-type:luminance" maskUnits="userSpaceOnUse" x="162" y="160" width="76" height="17">
<path d="M162.667 160.667H237.333V176.667H162.667V160.667Z" fill="white"/>
</mask>
<g mask="url(#mask86_20_5716)">
<mask id="mask87_20_5716" style="mask-type:luminance" maskUnits="userSpaceOnUse" x="147" y="101" width="114" height="81">
<path d="M147.411 102.182L259.406 101.083L260.177 180.078L148.182 181.177L147.411 102.182Z" fill="white"/>
</mask>
<g mask="url(#mask87_20_5716)">
<mask id="mask88_20_5716" style="mask-type:luminance" maskUnits="userSpaceOnUse" x="147" y="101" width="114" height="81">
<path d="M147.411 102.182L259.406 101.083L260.177 180.078L148.182 181.177L147.411 102.182Z" fill="white"/>
</mask>
<g mask="url(#mask88_20_5716)">
<path d="M237.229 166.245L237.224 165.688C219.911 165.344 202.547 164.13 186.37 162.88C182.995 162.625 179.552 162.323 176.219 162.021C173.651 161.776 170.99 161.536 168.375 161.339C165.068 161.057 163.823 162.094 163.521 165.38C162.943 169.854 165.385 175.234 170.375 176.146L170.62 176.188L170.682 175.943C171.76 171.891 174.213 167.089 179.661 167.099C192.458 166.641 205.453 166.536 218.026 166.458C224.323 166.396 230.844 166.354 237.229 166.245Z" fill="#1E3354"/>
</g>
</g>
</g>
<mask id="mask89_20_5716" style="mask-type:luminance" maskUnits="userSpaceOnUse" x="172" y="167" width="24" height="14">
<path d="M172 167.333H196V180.667H172V167.333Z" fill="white"/>
</mask>
<g mask="url(#mask89_20_5716)">
<mask id="mask90_20_5716" style="mask-type:luminance" maskUnits="userSpaceOnUse" x="147" y="101" width="114" height="81">
<path d="M147.411 102.182L259.406 101.083L260.177 180.078L148.182 181.177L147.411 102.182Z" fill="white"/>
</mask>
<g mask="url(#mask90_20_5716)">
<mask id="mask91_20_5716" style="mask-type:luminance" maskUnits="userSpaceOnUse" x="147" y="101" width="114" height="81">
<path d="M147.411 102.182L259.406 101.083L260.177 180.078L148.182 181.177L147.411 102.182Z" fill="white"/>
</mask>
<g mask="url(#mask91_20_5716)">
<path d="M189.083 168.995C184.932 167.115 179.734 167.615 176.432 170.214C173.219 172.479 171.912 175.974 172.927 179.536L173.208 180.542L173.443 179.51C174.557 174.854 178.276 171.448 182.896 170.844C187.49 170.24 191.802 172.589 194.141 176.943L194.714 178.031L194.656 176.802C194.49 173.385 192.448 170.526 189.083 168.995Z" fill="#1E3354"/>
</g>
</g>
</g>
</svg>
