<svg width="200" height="58" viewBox="0 0 200 58" fill="none" xmlns="http://www.w3.org/2000/svg">
<g clip-path="url(#clip0_38_222)">
<path fill-rule="evenodd" clip-rule="evenodd" d="M106.351 18.5463V45.2252H102.252L87.4684 27.1599V45.2252H82.5278V18.5463H86.6261L101.41 36.6116V18.5463H106.351ZM132.302 35.1639C132.302 35.4937 132.275 35.9634 132.225 36.5741H116.177C116.458 38.073 117.185 39.2671 118.36 40.1564C119.56 41.0196 121.041 41.4518 122.803 41.4518C125.05 41.4518 126.902 40.7148 128.356 39.241L130.922 42.1762C130.003 43.2691 128.842 44.0948 127.438 44.6531C126.033 45.2127 124.45 45.4924 122.688 45.4924C120.441 45.4924 118.463 45.0466 116.752 44.1584C115.041 43.2691 113.713 42.0363 112.768 40.4612C111.849 38.86 111.39 37.0563 111.39 35.049C111.39 33.0668 111.836 31.2881 112.73 29.713C113.649 28.1129 114.913 26.8676 116.522 25.9783C118.13 25.089 119.943 24.6443 121.96 24.6443C123.952 24.6443 125.727 25.089 127.284 25.9783C128.867 26.8426 130.092 28.0742 130.961 29.6755C131.855 31.2506 132.302 33.0804 132.302 35.1639ZM121.96 28.4552C120.428 28.4552 119.126 28.9135 118.054 29.8279C117.007 30.7172 116.369 31.9113 116.139 33.4102H127.744C127.539 31.9364 126.914 30.7422 125.867 29.8279C124.82 28.9135 123.518 28.4552 121.96 28.4552ZM149.361 45.2252L144.114 38.1742L138.828 45.2252H133.543L141.51 34.8966L133.888 24.8729H139.211L144.228 31.5429L149.246 24.8729H154.417L146.756 34.8204L154.761 45.2252H149.361ZM177.721 24.8729V45.2252H173.163V42.6334C172.398 43.5477 171.44 44.2597 170.291 44.768C169.142 45.2502 167.904 45.4924 166.576 45.4924C163.843 45.4924 161.687 44.7419 160.103 43.2429C158.546 41.719 157.767 39.4707 157.767 36.4979V24.8729H162.554V35.8497C162.554 37.6784 162.963 39.051 163.78 39.9654C164.623 40.8547 165.81 41.2994 167.342 41.2994C169.052 41.2994 170.406 40.7785 171.402 39.7368C172.423 38.6701 172.934 37.145 172.934 35.1639V24.8729H177.721ZM190.308 45.4924C188.649 45.4924 187.027 45.2764 185.444 44.8442C183.862 44.412 182.598 43.8662 181.654 43.2054L183.491 39.5844C184.411 40.194 185.508 40.6898 186.785 41.0708C188.088 41.4268 189.364 41.6042 190.616 41.6042C193.475 41.6042 194.905 40.8547 194.905 39.3558C194.905 38.6439 194.535 38.1492 193.794 37.8694C193.079 37.5897 191.918 37.3235 190.308 37.0688C188.624 36.8152 187.244 36.5229 186.172 36.192C185.126 35.8622 184.207 35.2901 183.415 34.477C182.649 33.6388 182.266 32.4834 182.266 31.0095C182.266 29.0784 183.071 27.5409 184.679 26.3979C186.313 25.2288 188.508 24.6443 191.266 24.6443C192.671 24.6443 194.075 24.8092 195.48 25.1401C196.883 25.4449 198.033 25.8646 198.927 26.3979L197.088 30.0178C195.352 29.0022 193.399 28.4939 191.228 28.4939C189.824 28.4939 188.752 28.71 188.011 29.1421C187.296 29.5481 186.938 30.0951 186.938 30.7809C186.938 31.5429 187.321 32.0888 188.088 32.4197C188.879 32.7245 190.091 33.0168 191.726 33.2965C193.36 33.5501 194.7 33.8424 195.747 34.1722C196.794 34.5031 197.688 35.0615 198.428 35.8497C199.194 36.6378 199.577 37.7557 199.577 39.2034C199.577 41.1095 198.747 42.6334 197.088 43.7763C195.428 44.9204 193.169 45.4924 190.308 45.4924Z" fill="black"/>
<path fill-rule="evenodd" clip-rule="evenodd" d="M48.0479 57.6569L65.0822 21.5422C65.0822 21.5422 69.4262 13.8442 66.5679 8.75043C63.7096 3.65552 58.4513 2.41023 55.1359 1.73129C51.8205 1.05121 39.2456 -0.0803595 29.8708 1.50497C29.8708 1.50497 38.7885 2.18392 42.7896 4.56078C46.7908 6.93878 49.8765 9.65568 47.5908 15.8821C45.4182 22.1086 29.1851 57.7706 29.1851 57.7706H48.0479V57.6569Z" fill="black"/>
<path fill-rule="evenodd" clip-rule="evenodd" d="M16.1534 52.1099L30.0996 22.5617C30.0996 22.5617 33.6436 16.3353 31.3579 12.1468C29.0711 7.9583 24.6128 6.93932 21.8688 6.37297C19.1259 5.80663 8.9511 4.78764 1.17737 6.14666C1.17737 6.14666 8.49394 6.71301 11.6951 8.63724C14.8951 10.5615 17.4105 12.8257 15.6962 17.8069C13.9808 22.7881 0.720215 52.1099 0.720215 52.1099H16.1534Z" fill="black"/>
</g>
<defs>
<clipPath id="clip0_38_222">
<rect width="200" height="58" fill="white"/>
</clipPath>
</defs>
</svg>
