<svg width="200" height="66" viewBox="0 0 200 66" fill="none" xmlns="http://www.w3.org/2000/svg">
<g clip-path="url(#clip0_38_198)">
<mask id="mask0_38_198" style="mask-type:luminance" maskUnits="userSpaceOnUse" x="0" y="0" width="200" height="66">
<path d="M200 0H0V66H200V0Z" fill="white"/>
</mask>
<g mask="url(#mask0_38_198)">
<path d="M2.23426 32.356C1.44972 31.5545 0.838713 30.601 0.439117 29.5544C0.122127 28.687 -0.0268201 27.7676 0.000181748 26.8448C0.0270042 26.0404 0.164758 25.2434 0.409567 24.4764C0.761745 23.1788 1.4587 22 2.42695 21.0643L3.08935 20.4378L3.94629 19.6279L4.97376 18.6566L6.14651 17.5485L7.4393 16.325L8.82998 15.0101L10.2921 13.6271L11.8022 12.1992L13.3351 10.75L14.8661 9.30191L16.3719 7.8784L17.8279 6.50397L19.2075 5.19704L20.4879 3.98829L21.6434 2.8955L22.6506 1.94322L23.4848 1.15415L24.1213 0.552224L24.535 0.161372L24.7043 0L25.0478 0.342379C25.156 0.489761 25.243 0.651464 25.3064 0.822814C25.4336 1.07643 25.5506 1.33454 25.6573 1.59715C25.9569 2.32849 26.1801 3.08864 26.3234 3.86557C26.5062 4.84289 26.5423 5.84188 26.4305 6.82979C26.2896 8.00289 25.9276 9.13892 25.3636 10.1781C25.1171 10.6336 24.7977 11.046 24.418 11.3991L23.7926 11.99L22.951 12.7877L21.9199 13.7608L20.7286 14.8867L19.4038 16.1372L17.9731 17.4871L16.4636 18.9125L14.9037 20.385L13.3203 21.8804L11.7419 23.372L10.1954 24.8329L8.70809 26.2374L7.30818 27.5603L6.02215 28.777L4.87895 29.8569L3.90566 30.7773L3.12998 31.5093L2.579 32.0296L2.28043 32.3113L2.23426 32.3548" fill="#52C5D8"/>
<path d="M25.3187 24.4881C25.4819 24.304 25.6382 24.1114 25.7854 23.9132C29.3738 19.0567 26.9692 14.086 26.3179 12.93L26.0513 12.665L3.78564 33.9324C4.15071 35.1779 5.22311 37.1537 8.21809 39.6933C8.39583 39.8445 8.56459 40.006 8.72351 40.1768L8.94575 39.9682L9.56814 39.3828L10.5254 38.4821L11.7567 37.3273L13.1904 35.9774L14.7615 34.4987L16.412 32.9457L18.0741 31.3835L19.6821 29.8711L21.1713 28.4702L22.477 27.2431L23.534 26.2485C24.1373 25.6809 24.769 25.1164 25.3187 24.4881Z" fill="#52C5D8"/>
<path d="M12.7399 42.9599L21.6664 46.2119L15.738 36.2161L15.7146 36.2394L15.6462 36.3056L15.5379 36.4118L15.3932 36.5529L15.2165 36.7253L15.0122 36.9248L14.7844 37.1475L14.5381 37.3886L14.2753 37.6457L14.0013 37.9126L13.7206 38.1869L13.4368 38.4642L13.1548 38.7397L12.8778 39.0103L12.6112 39.2711L12.3582 39.5165L12.1225 39.746L11.9094 39.9546L11.7248 40.1387L11.5684 40.2915L11.4453 40.4105C11.3805 40.468 11.3223 40.5324 11.2717 40.6026C11.2267 40.6758 11.1945 40.7561 11.1762 40.84C11.1552 40.926 11.1418 41.0137 11.1362 41.102C11.1275 41.2623 11.1483 41.4229 11.1978 41.5757C11.2462 41.722 11.3168 41.86 11.4071 41.985C11.4991 42.1121 11.605 42.2285 11.7229 42.3323C11.8421 42.4372 11.969 42.533 12.1028 42.6188C12.232 42.7024 12.3658 42.7788 12.5035 42.8477C12.5823 42.8882 12.663 42.9256 12.7436 42.9612" fill="#52C5D8"/>
<path d="M150.053 52.057H148.896V62.8297H150.053V52.057Z" fill="#3A4144"/>
<path d="M158.839 58.9831C158.839 61.184 157.372 62.9536 155.01 62.9536C152.648 62.9536 151.181 61.184 151.181 58.9831C151.181 56.7821 152.647 55.012 155.01 55.012C157.373 55.012 158.839 56.7821 158.839 58.9831ZM157.681 58.9831C157.681 57.3976 156.724 56.0593 155.01 56.0593C153.297 56.0593 152.339 57.3976 152.339 58.9831C152.339 60.5686 153.297 61.9068 155.01 61.9068C156.724 61.9068 157.681 60.568 157.681 58.9831Z" fill="#3A4144"/>
<path d="M167.148 55.1353V62.5995C167.148 64.8004 165.82 66.0006 163.505 66.0006C161.559 66.0006 160.34 65.0925 159.907 63.7536H161.189C161.496 64.5077 162.27 64.9538 163.443 64.9538C165.219 64.9538 165.991 64.1077 165.991 62.5222V61.4601C165.685 61.9037 165.271 62.2623 164.787 62.5019C164.303 62.7415 163.766 62.8543 163.227 62.8296C160.973 62.8296 159.491 61.1208 159.491 58.9205C159.491 56.7201 160.973 55.0113 163.227 55.0113C163.765 54.9839 164.302 55.0939 164.785 55.331C165.269 55.5681 165.684 55.9244 165.991 56.3661V55.1353H167.148ZM166.052 58.9211C166.052 57.3356 165.064 56.0587 163.381 56.0587C162.644 56.0959 161.95 56.4138 161.442 56.9465C160.934 57.4792 160.651 58.1861 160.651 58.9211C160.651 59.656 160.934 60.3629 161.442 60.8957C161.95 61.4284 162.644 61.7462 163.381 61.7834C165.064 61.7834 166.052 60.5066 166.052 58.9211Z" fill="#3A4144"/>
<path d="M169.96 53.8424H168.709V52.3342H169.96V53.8424ZM168.756 55.1346H169.914V62.8296H168.756V55.1346Z" fill="#3A4144"/>
<path d="M177.233 57.1975H176.06C175.967 56.5361 175.473 55.9974 174.176 55.9974C172.972 55.9974 172.339 56.3508 172.339 57.1055C172.339 58.9518 177.481 57.7522 177.481 60.6446C177.481 62.1381 176.245 62.9536 174.331 62.9536C172.185 62.9536 171.057 61.7687 170.98 60.4139H172.185C172.262 61.1987 172.848 61.9688 174.346 61.9688C174.979 61.9688 176.322 61.7994 176.322 60.7533C176.322 58.8297 171.18 60.0298 171.18 57.2135C171.18 55.828 172.215 55.0126 174.207 55.0126C176.245 55.0126 177.095 56.0741 177.233 57.1975Z" fill="#3A4144"/>
<path d="M179.397 62.8296V56.1513H177.821V55.1352H179.397V52.3802H180.554V55.1352H182.333V56.1513H180.554V62.8296H179.397Z" fill="#3A4144"/>
<path d="M184.4 53.8424H183.149V52.3342H184.4V53.8424ZM183.196 55.1346H184.354V62.8296H183.196V55.1346Z" fill="#3A4144"/>
<path d="M191.672 60.4133H192.923C192.682 61.1783 192.194 61.8423 191.535 62.3018C190.876 62.7612 190.083 62.9902 189.279 62.953C186.963 62.953 185.481 61.1834 185.481 58.9825C185.481 56.7815 186.963 55.0114 189.279 55.0114C190.083 54.9741 190.876 55.2031 191.535 55.6626C192.194 56.122 192.682 56.786 192.923 57.551H191.672C191.5 57.1015 191.193 56.7164 190.791 56.4489C190.39 56.1815 189.916 56.0449 189.433 56.0581C188.68 56.0942 187.969 56.4181 187.448 56.9625C186.928 57.5069 186.637 58.2301 186.637 58.9822C186.637 59.7342 186.928 60.4574 187.448 61.0019C187.969 61.5463 188.68 61.8701 189.433 61.9062C189.916 61.9194 190.39 61.7828 190.791 61.5154C191.193 61.2479 191.5 60.8628 191.672 60.4133Z" fill="#3A4144"/>
<path d="M199.611 57.1975H198.438C198.345 56.5361 197.851 55.9974 196.553 55.9974C195.349 55.9974 194.717 56.3508 194.717 57.1055C194.717 58.9518 199.859 57.7522 199.859 60.6446C199.859 62.1381 198.623 62.9536 196.709 62.9536C194.563 62.9536 193.435 61.7687 193.358 60.4139H194.563C194.64 61.1987 195.226 61.9688 196.724 61.9688C197.357 61.9688 198.7 61.7994 198.7 60.7533C198.7 58.8297 193.558 60.0298 193.558 57.2135C193.558 55.828 194.593 55.0126 196.585 55.0126C198.623 55.0126 199.473 56.0741 199.611 57.1975Z" fill="#3A4144"/>
<path d="M49.093 23.2382C49.0107 24.0467 48.8875 24.8505 48.7236 25.6465C48.71 25.8327 48.6593 26.0142 48.5745 26.1806C48.4898 26.347 48.3726 26.4949 48.2298 26.6156C48.0871 26.7364 47.9216 26.8276 47.7431 26.8839C47.5646 26.9402 47.3766 26.9605 47.1901 26.9436C44.5879 26.9436 41.2414 27.4535 39.2893 28.2868L36.3583 44.9627C36.3068 45.3249 36.1204 45.6545 35.8364 45.8862C35.5523 46.1178 35.1912 46.2345 34.8248 46.2132H32.3156C31.479 46.2132 31.0142 45.7966 31.0142 45.1014C31.0137 44.9306 31.0292 44.7601 31.0603 44.5921L34.1748 27.2216C34.3594 26.1564 34.5928 24.8593 35.7544 24.2568C38.1246 22.9597 42.5878 22.0792 47.7916 22.0792C48.6282 22.0792 49.093 22.4964 49.093 23.2376" fill="#3A4144"/>
<path d="M47.189 36.4861C47.189 28.3334 53.1377 21.7558 61.0404 21.7558C67.3615 21.7558 71.2652 25.7392 71.2652 31.8075C71.2652 40.0062 65.2697 46.5378 57.3688 46.5378C51.0951 46.5378 47.1908 42.5538 47.1908 36.4861M66.1063 32.0855C66.1063 28.6114 64.1979 26.3417 60.7153 26.3417C55.6494 26.3417 52.3497 31.2504 52.3497 36.2081C52.3497 39.6828 54.2581 41.9519 57.6945 41.9519C62.8041 41.9519 66.1063 37.0886 66.1063 32.0855Z" fill="#3A4144"/>
<path d="M97.8011 42.9238C97.8061 43.4698 97.7441 44.0144 97.6164 44.5455C97.5779 44.9116 97.4348 45.2589 97.2042 45.5464C96.9735 45.8339 96.6649 46.0493 96.315 46.1672C95.86 46.2877 95.3914 46.3496 94.9206 46.3513C92.1319 46.3513 90.6452 45.2394 90.0874 43.7576C87.7756 45.5518 84.9313 46.5297 82.0013 46.5378C77.2149 46.5378 72.8452 43.2484 72.8452 36.764C72.8452 28.5653 78.608 21.7558 86.6018 21.7558C90.7849 21.7558 94.1308 23.1449 95.8976 24.5347C96.2597 24.7995 96.5594 25.1398 96.776 25.5319C96.9926 25.924 97.1208 26.3584 97.1516 26.805C97.1436 27.1002 97.1126 27.3944 97.0587 27.6848L95.0142 39.2202C94.9293 39.6166 94.8826 40.0201 94.8745 40.4253C94.8745 41.2585 95.2925 41.6758 96.2221 41.6758H96.7336C97.3837 41.6758 97.8491 41.9997 97.8023 42.9256M91.7145 27.5934C90.0985 26.8412 88.3385 26.446 86.555 26.435C81.4454 26.435 78.0971 31.2528 78.0971 36.302C78.0971 39.7761 80.0492 41.9531 83.3021 41.9531C85.6669 41.8971 87.9236 40.955 89.6226 39.3147L91.7145 27.5934Z" fill="#3A4144"/>
<path d="M125.149 12.908C125.152 13.0941 125.136 13.2801 125.103 13.4632L120.178 41.3027C119.993 42.3213 119.76 43.573 118.551 44.1743C115.415 45.7198 111.965 46.528 108.467 46.5366C102.332 46.5366 98.4277 42.5532 98.4277 36.4855C98.4277 28.4715 104.237 21.7546 112.138 21.7546C114.155 21.7846 116.157 22.0967 118.086 22.6817L119.806 13.0485C119.857 12.6863 120.044 12.3568 120.328 12.1252C120.612 11.8936 120.973 11.7768 121.339 11.798H123.849C124.686 11.798 125.15 12.2146 125.15 12.9098M109.116 41.858C111.099 41.7971 113.06 41.4216 114.925 40.7456L117.341 27.124C115.652 26.6174 113.9 26.3523 112.136 26.3368C107.071 26.3368 103.678 31.1074 103.678 36.1106C103.678 39.5847 105.63 41.8537 109.115 41.8537" fill="#3A4144"/>
<path d="M148.167 42.9238C148.172 43.4698 148.11 44.0144 147.982 44.5455C147.944 44.9116 147.801 45.2589 147.57 45.5464C147.339 45.8339 147.031 46.0493 146.681 46.1672C146.226 46.2877 145.757 46.3495 145.286 46.3513C142.498 46.3513 141.011 45.2394 140.453 43.7576C138.141 45.5518 135.297 46.5297 132.366 46.5378C127.58 46.5378 123.211 43.2484 123.211 36.764C123.211 28.5653 128.974 21.7558 136.968 21.7558C141.151 21.7558 144.497 23.1449 146.263 24.5347C146.625 24.7995 146.925 25.1398 147.142 25.5319C147.359 25.924 147.487 26.3584 147.518 26.805C147.51 27.1002 147.479 27.3944 147.425 27.6848L145.381 39.2202C145.296 39.6166 145.249 40.0201 145.241 40.4253C145.241 41.2585 145.658 41.6758 146.588 41.6758H147.099C147.751 41.6758 148.215 41.9997 148.169 42.9256M142.08 27.5934C140.464 26.8413 138.705 26.4461 136.921 26.435C131.812 26.435 128.463 31.2528 128.463 36.302C128.463 39.7761 130.416 41.9531 133.668 41.9531C136.033 41.8968 138.29 40.9548 139.989 39.3147L142.08 27.5934Z" fill="#3A4144"/>
<path d="M174.238 28.6113C174.222 29.4803 174.144 30.3469 174.006 31.205L171.589 44.9621C171.538 45.3245 171.352 45.6545 171.068 45.8867C170.785 46.1189 170.424 46.2363 170.057 46.2156H167.545C166.709 46.2156 166.244 45.799 166.244 45.1038C166.243 44.933 166.259 44.7625 166.29 44.5946L168.66 31.3927C168.749 30.8412 168.796 30.2836 168.8 29.725C168.8 27.3167 167.313 26.6215 164.385 26.6215C162.247 26.6215 159.412 27.1768 157.832 28.0573L154.857 44.9645C154.806 45.3267 154.62 45.6563 154.336 45.888C154.052 46.1197 153.691 46.2367 153.324 46.2156H150.815C149.978 46.2156 149.513 45.799 149.513 45.1038C149.513 44.933 149.528 44.7625 149.56 44.5946L152.674 27.0848C152.858 26.0656 153.092 24.7685 154.3 24.1199C156.531 22.8694 161.039 21.7576 164.99 21.7576C170.474 21.7576 174.238 23.24 174.238 28.6132" fill="#3A4144"/>
<path d="M199.996 42.9238C200.001 43.4698 199.939 44.0144 199.811 44.5455C199.773 44.9116 199.63 45.2589 199.399 45.5464C199.168 45.8339 198.86 46.0493 198.51 46.1672C198.055 46.2877 197.586 46.3495 197.115 46.3513C194.327 46.3513 192.84 45.2394 192.282 43.7576C189.97 45.5518 187.126 46.5297 184.196 46.5378C179.409 46.5378 175.04 43.2484 175.04 36.764C175.04 28.5653 180.803 21.7558 188.797 21.7558C192.98 21.7558 196.326 23.1449 198.092 24.5347C198.454 24.7996 198.754 25.1399 198.971 25.532C199.187 25.9241 199.315 26.3585 199.346 26.805C199.338 27.1002 199.307 27.3944 199.254 27.6848L197.208 39.2208C197.124 39.6172 197.077 40.0207 197.069 40.4259C197.069 41.2591 197.487 41.6764 198.416 41.6764H198.927C199.579 41.6764 200.043 42.0003 199.997 42.9262M193.908 27.594C192.292 26.8419 190.533 26.4467 188.749 26.4356C183.64 26.4356 180.291 31.2534 180.291 36.3026C180.291 39.7767 182.243 41.9537 185.496 41.9537C187.861 41.8975 190.118 40.9555 191.817 39.3153L193.908 27.594Z" fill="#3A4144"/>
</g>
</g>
<defs>
<clipPath id="clip0_38_198">
<rect width="200" height="66" fill="white"/>
</clipPath>
</defs>
</svg>
