<svg width="231" height="96" viewBox="0 0 231 96" fill="none" xmlns="http://www.w3.org/2000/svg">
<mask id="mask0_76_16631" style="mask-type:luminance" maskUnits="userSpaceOnUse" x="4" y="0" width="227" height="96">
<path d="M4.10742 0H230.768V96H4.10742V0Z" fill="white"/>
</mask>
<g mask="url(#mask0_76_16631)">
<mask id="mask1_76_16631" style="mask-type:luminance" maskUnits="userSpaceOnUse" x="3" y="-1" width="228" height="98">
<path d="M230.769 -0.307678H3.69238V96.3077H230.769V-0.307678Z" fill="white"/>
</mask>
<g mask="url(#mask1_76_16631)">
<path d="M209.194 96.1153H214.271C214.271 96.1153 212.72 91.7322 210.578 89.8845C207.366 87.1132 204.004 86.2851 199.963 87.5769C196.381 88.7219 193.04 94.2692 193.04 94.2692C193.04 94.2692 198.125 90.0908 201.809 90.5769C205.383 91.0484 209.194 96.1153 209.194 96.1153Z" fill="white"/>
<path d="M47.1937 96.1153L121.04 83.1922L135.348 32.423L4.96289 35.1922L143.424 23.8846L131.655 96.1153H47.1937Z" fill="white"/>
<path d="M137.886 -0.115448L139.963 12.1153C139.963 12.1153 145.732 13.4999 147.117 14.6538C147.657 15.1044 148.687 15.7737 148.501 16.7307C147.117 23.8846 145.732 28.7307 144.578 35.6538C144.365 36.9358 145.732 38.1922 145.732 38.1922C145.732 38.1922 147.255 39.661 147.117 40.4999C144.117 58.7307 135.348 96.1153 135.348 96.1153H145.732L154.04 41.8845C154.04 41.8845 154.577 39.1428 154.501 37.4999C154.442 36.211 154.465 35.3806 153.809 34.2692C153.291 33.3909 152.802 33.0019 151.963 32.423C150.998 31.7578 149.194 31.2692 149.194 31.2692L152.655 10.4999C152.655 10.4999 152.882 9.47311 152.655 8.88455C152.356 8.10937 151.04 7.49994 151.04 7.49994L137.886 -0.115448Z" fill="white"/>
<path d="M153.117 31.4999C153.117 31.4999 155.701 33.887 156.578 35.8845C157.211 37.3256 157.663 38.242 157.501 39.8076C155.194 62.1922 149.194 96.1153 149.194 96.1153H190.04C190.04 96.1153 193.679 88.563 198.117 86.423C203.49 83.8322 213.347 87.5769 213.347 87.5769C213.347 87.5769 207.385 83.5788 203.194 82.9615C199.189 82.3717 196.661 83.2306 193.04 85.0384C190.282 86.4153 188.886 88.2692 186.809 89.8845C185.919 90.5769 156.348 93.8076 156.348 93.8076L159.348 42.8076C159.348 42.8076 166.431 42.3939 170.655 43.7307C174.386 44.9113 176.656 45.8114 179.424 48.5769C180.929 50.0801 181.271 51.1153 182.424 52.4999C183.578 53.8845 184.963 54.8076 187.04 54.8076C188.596 54.8076 189.66 54.6491 190.963 55.4999C192.095 56.2393 192.399 57.0789 193.04 58.2692C194.796 61.5313 193.732 67.7307 193.732 67.7307C193.732 67.7307 170.424 67.9615 168.578 66.3461C166.732 64.7307 166.574 60.943 165.809 57.3461C164.961 53.3549 164.886 45.8076 164.886 45.8076C164.886 45.8076 163.721 52.4147 163.732 55.4999C163.743 58.4957 164.194 62.423 164.194 62.423C164.194 62.423 164.841 68.1416 167.424 69.5769C169.501 70.7307 181.963 70.9615 181.963 70.9615C181.963 70.9615 193.04 70.9615 199.04 71.6538C205.04 72.3461 214.271 74.9194 216.809 76.2692C220.613 78.2916 223.425 79.8352 225.809 83.423C228.558 87.5593 227.655 95.423 227.655 95.423C227.655 95.423 230.836 88.413 229.963 84.1153C229.248 80.5981 228.151 78.1857 225.117 76.2692C216.347 70.7307 198.117 67.7307 198.117 67.7307C198.117 67.7307 199.032 60.9791 197.194 57.3461C196.209 55.3994 195.555 54.1602 193.732 52.9615C191.723 51.6401 187.732 51.5769 187.732 51.5769C187.732 51.5769 185.781 47.3089 184.04 44.8845C181.661 41.572 179.959 39.8911 176.655 37.4999C168.97 31.938 153.117 31.4999 153.117 31.4999Z" fill="white"/>
</g>
</g>
<mask id="mask2_76_16631" style="mask-type:luminance" maskUnits="userSpaceOnUse" x="10" y="47" width="38" height="31">
<path d="M10.4619 47.0769H47.385V77.2308H10.4619V47.0769Z" fill="white"/>
</mask>
<g mask="url(#mask2_76_16631)">
<mask id="mask3_76_16631" style="mask-type:luminance" maskUnits="userSpaceOnUse" x="0" y="47" width="48" height="38">
<path d="M0 47.8269L47.5361 47.3606L47.8942 83.8197L0.358173 84.286L0 47.8269Z" fill="white"/>
</mask>
<g mask="url(#mask3_76_16631)">
<mask id="mask4_76_16631" style="mask-type:luminance" maskUnits="userSpaceOnUse" x="0" y="47" width="48" height="38">
<path d="M0 47.8269L47.5361 47.3606L47.8942 83.8197L0.358173 84.286L0 47.8269Z" fill="white"/>
</mask>
<g mask="url(#mask4_76_16631)">
<path d="M39.6073 47.4422L16.8597 47.6634C15.8693 47.673 14.9246 48.4783 14.7587 49.459L10.4727 74.5961C11.451 74.4278 12.4294 74.1009 13.3789 73.7908C13.7611 73.6658 14.1986 73.5215 14.6097 73.3965C16.8428 72.6273 18.9126 72.2139 20.9486 72.149C21.6121 72.1225 22.2755 72.1441 22.9294 72.1946C26.1842 72.4615 29.3044 73.3917 32.4871 75.0528C33.1818 75.4206 33.9126 75.6369 34.7178 75.7307C34.7275 75.7307 34.7275 75.7307 34.7371 75.7307C35.3164 75.81 35.9246 75.8797 36.5039 75.947C38.2154 76.1465 39.9751 76.3533 41.6529 76.8677C43.2275 75.4518 44.3573 73.5624 44.7106 71.4951L45.1962 68.6778C45.3116 68.0143 45.3885 67.3965 45.3933 66.8172C45.3957 66.0985 45.2852 65.4158 44.9895 64.7187C44.9126 64.5432 43.8765 62.685 43.7659 62.7884C45.0063 61.6369 45.9174 60.1417 46.189 58.4855C46.1986 58.411 46.189 58.3365 46.2347 58.2595L46.6674 55.697C47.4342 51.0913 44.2876 47.3965 39.6073 47.4422ZM35.7539 68.0792L35.6049 68.959C35.4534 69.8292 34.6217 70.548 33.7227 70.5552L21.1409 70.6802C20.9438 70.6802 20.8116 70.524 20.838 70.3268L21.4126 66.9855C21.4486 66.7908 21.6337 66.6297 21.8308 66.6273L34.4126 66.5047C35.3092 66.5047 35.9053 67.1994 35.7539 68.0792ZM36.7876 57.036L36.6361 57.9158C36.4871 58.786 35.6433 59.5047 34.7563 59.5119L22.9847 59.6273C22.79 59.6297 22.6481 59.4735 22.6818 59.2764L23.2563 55.9446C23.2924 55.7475 23.4775 55.5865 23.6746 55.584L35.4438 55.4711C36.3404 55.4615 36.9366 56.1562 36.7876 57.036Z" fill="white"/>
</g>
</g>
</g>
<mask id="mask5_76_16631" style="mask-type:luminance" maskUnits="userSpaceOnUse" x="0" y="80" width="9" height="3">
<path d="M0 80.9231H8.61539V82.7692H0V80.9231Z" fill="white"/>
</mask>
<g mask="url(#mask5_76_16631)">
<mask id="mask6_76_16631" style="mask-type:luminance" maskUnits="userSpaceOnUse" x="0" y="47" width="48" height="38">
<path d="M0 47.8269L47.5361 47.3606L47.8942 83.8197L0.358173 84.2861L0 47.8269Z" fill="white"/>
</mask>
<g mask="url(#mask6_76_16631)">
<mask id="mask7_76_16631" style="mask-type:luminance" maskUnits="userSpaceOnUse" x="0" y="47" width="48" height="38">
<path d="M0 47.8269L47.5361 47.3606L47.8942 83.8197L0.358173 84.2861L0 47.8269Z" fill="white"/>
</mask>
<g mask="url(#mask7_76_16631)">
<path d="M7.10179 81.2812C4.984 81.4976 0.334961 82.0577 0.334961 82.0577L8.39265 82.3413C7.87583 82.0962 7.44313 81.726 7.10179 81.2812Z" fill="white"/>
</g>
</g>
</g>
<mask id="mask8_76_16631" style="mask-type:luminance" maskUnits="userSpaceOnUse" x="28" y="81" width="9" height="3">
<path d="M28.9229 81.5385H36.9229V83.3847H28.9229V81.5385Z" fill="white"/>
</mask>
<g mask="url(#mask8_76_16631)">
<mask id="mask9_76_16631" style="mask-type:luminance" maskUnits="userSpaceOnUse" x="0" y="47" width="48" height="38">
<path d="M0 47.8269L47.5361 47.3606L47.8942 83.8197L0.358173 84.286L0 47.8269Z" fill="white"/>
</mask>
<g mask="url(#mask9_76_16631)">
<mask id="mask10_76_16631" style="mask-type:luminance" maskUnits="userSpaceOnUse" x="0" y="47" width="48" height="38">
<path d="M0 47.8269L47.5361 47.3606L47.8942 83.8197L0.358173 84.286L0 47.8269Z" fill="white"/>
</mask>
<g mask="url(#mask10_76_16631)">
<path d="M29.1904 82.6057L36.5823 82.8221C36.4957 82.524 36.4452 82.2259 36.4332 81.9278C36.3299 81.9278 29.1904 82.6057 29.1904 82.6057Z" fill="white"/>
</g>
</g>
</g>
<mask id="mask11_76_16631" style="mask-type:luminance" maskUnits="userSpaceOnUse" x="30" y="80" width="7" height="2">
<path d="M30.1533 80.3077H36.9226V81.5385H30.1533V80.3077Z" fill="white"/>
</mask>
<g mask="url(#mask11_76_16631)">
<mask id="mask12_76_16631" style="mask-type:luminance" maskUnits="userSpaceOnUse" x="0" y="47" width="48" height="38">
<path d="M0 47.8269L47.5361 47.3606L47.8942 83.8197L0.358173 84.286L0 47.8269Z" fill="white"/>
</mask>
<g mask="url(#mask12_76_16631)">
<mask id="mask13_76_16631" style="mask-type:luminance" maskUnits="userSpaceOnUse" x="0" y="47" width="48" height="38">
<path d="M0 47.8269L47.5361 47.3606L47.8942 83.8197L0.358173 84.286L0 47.8269Z" fill="white"/>
</mask>
<g mask="url(#mask13_76_16631)">
<path d="M36.4382 81.488C36.4646 81.1707 36.5271 80.8606 36.6353 80.5625L30.6065 81.2188C30.5968 81.2188 36.3925 81.488 36.4382 81.488Z" fill="white"/>
</g>
</g>
</g>
<mask id="mask14_76_16631" style="mask-type:luminance" maskUnits="userSpaceOnUse" x="31" y="79" width="7" height="2">
<path d="M31.3848 79.0769H37.5386V80.3077H31.3848V79.0769Z" fill="white"/>
</mask>
<g mask="url(#mask14_76_16631)">
<mask id="mask15_76_16631" style="mask-type:luminance" maskUnits="userSpaceOnUse" x="0" y="47" width="48" height="38">
<path d="M0 47.8269L47.5361 47.3606L47.8942 83.8197L0.358173 84.2861L0 47.8269Z" fill="white"/>
</mask>
<g mask="url(#mask15_76_16631)">
<mask id="mask16_76_16631" style="mask-type:luminance" maskUnits="userSpaceOnUse" x="0" y="47" width="48" height="38">
<path d="M0 47.8269L47.5361 47.3606L47.8942 83.8197L0.358173 84.2861L0 47.8269Z" fill="white"/>
</mask>
<g mask="url(#mask16_76_16631)">
<path d="M37.4618 79.1995L31.7695 79.8533C31.7695 79.8533 36.1181 80.1274 36.7984 80.1682C36.8921 79.9904 36.9931 79.8101 37.1205 79.6322C37.2215 79.4807 37.3416 79.3413 37.4618 79.1995Z" fill="white"/>
</g>
</g>
</g>
<mask id="mask17_76_16631" style="mask-type:luminance" maskUnits="userSpaceOnUse" x="1" y="79" width="6" height="2">
<path d="M1.23047 79.6923H6.76893V80.9231H1.23047V79.6923Z" fill="white"/>
</mask>
<g mask="url(#mask17_76_16631)">
<mask id="mask18_76_16631" style="mask-type:luminance" maskUnits="userSpaceOnUse" x="0" y="47" width="48" height="38">
<path d="M0 47.8269L47.5361 47.3606L47.8942 83.8197L0.358173 84.2861L0 47.8269Z" fill="white"/>
</mask>
<g mask="url(#mask18_76_16631)">
<mask id="mask19_76_16631" style="mask-type:luminance" maskUnits="userSpaceOnUse" x="0" y="47" width="48" height="38">
<path d="M0 47.8269L47.5361 47.3606L47.8942 83.8197L0.358173 84.2861L0 47.8269Z" fill="white"/>
</mask>
<g mask="url(#mask19_76_16631)">
<path d="M6.36824 79.9135C6.28411 79.9159 1.49805 80.5145 1.49805 80.5145L6.76968 80.7981C6.60862 80.5193 6.47401 80.2212 6.36824 79.9135Z" fill="white"/>
</g>
</g>
</g>
<mask id="mask20_76_16631" style="mask-type:luminance" maskUnits="userSpaceOnUse" x="2" y="78" width="5" height="2">
<path d="M2.46191 78.4616H6.76961V79.6923H2.46191V78.4616Z" fill="white"/>
</mask>
<g mask="url(#mask20_76_16631)">
<mask id="mask21_76_16631" style="mask-type:luminance" maskUnits="userSpaceOnUse" x="0" y="47" width="48" height="38">
<path d="M0 47.8269L47.5361 47.3606L47.8942 83.8197L0.358173 84.2861L0 47.8269Z" fill="white"/>
</mask>
<g mask="url(#mask21_76_16631)">
<mask id="mask22_76_16631" style="mask-type:luminance" maskUnits="userSpaceOnUse" x="0" y="47" width="48" height="38">
<path d="M0 47.8269L47.5361 47.3606L47.8942 83.8197L0.358173 84.2861L0 47.8269Z" fill="white"/>
</mask>
<g mask="url(#mask22_76_16631)">
<path d="M6.12275 78.6274C6.07467 78.6274 2.79102 79.0721 2.79102 79.0721L6.21169 79.3077C6.16361 79.0841 6.13477 78.8606 6.12275 78.6274Z" fill="white"/>
</g>
</g>
</g>
<mask id="mask23_76_16631" style="mask-type:luminance" maskUnits="userSpaceOnUse" x="9" y="72" width="38" height="12">
<path d="M9.23145 72.3077H46.1545V83.3846H9.23145V72.3077Z" fill="white"/>
</mask>
<g mask="url(#mask23_76_16631)">
<mask id="mask24_76_16631" style="mask-type:luminance" maskUnits="userSpaceOnUse" x="0" y="47" width="48" height="38">
<path d="M0 47.8269L47.5361 47.3606L47.8942 83.8197L0.358173 84.2861L0 47.8269Z" fill="white"/>
</mask>
<g mask="url(#mask24_76_16631)">
<mask id="mask25_76_16631" style="mask-type:luminance" maskUnits="userSpaceOnUse" x="0" y="47" width="48" height="38">
<path d="M0 47.8269L47.5361 47.3606L47.8942 83.8197L0.358173 84.2861L0 47.8269Z" fill="white"/>
</mask>
<g mask="url(#mask25_76_16631)">
<path d="M43.8371 78.6034C41.5823 77.2524 38.9645 76.952 36.4285 76.6587C35.8395 76.589 35.2314 76.5217 34.6424 76.4327C33.7434 76.3294 32.9381 76.0866 32.1689 75.6827C29.0703 74.0673 26.0343 73.1539 22.8828 72.9039C20.3299 72.6972 17.7001 73.077 14.8419 74.0673C14.4309 74.1923 14.0222 74.327 13.6112 74.4616C12.354 74.8774 11.0511 75.3101 9.72416 75.4063L9.64243 75.4159L9.57031 75.7452L9.67368 75.7717C10.5992 76.0433 11.5823 76.089 12.5246 76.1274C13.0294 76.1491 13.5535 76.1731 14.0679 76.2332C15.5367 76.3125 17.0126 76.4472 18.4525 76.5722C20.604 76.7572 22.8203 76.9592 25.0054 76.9952L25.0319 76.7693C21.7843 76.1106 18.8732 75.6899 16.1448 75.4832C17.9261 74.3726 20.5847 73.8895 23.652 74.1106C26.4645 74.3173 29.2939 75.1034 31.2482 76.2236C31.14 76.5505 30.878 76.5914 30.4405 76.6226C30.3564 76.6347 30.2722 76.6347 30.1881 76.6443L29.9357 76.6755L30.1256 76.8414C30.5775 77.238 31.0655 77.4207 31.6713 77.4063L32.0174 77.3919C34.9405 77.2885 37.9669 77.1755 40.7963 77.988C39.4525 78.2068 38.2073 78.9207 37.5174 79.8991C36.9165 80.7452 36.7578 81.7284 37.0487 82.7332L37.1737 83.1539L37.2722 82.7236C37.7218 80.7284 39.2578 79.3125 41.1905 79.0962C43.0944 78.8919 44.8035 79.8847 45.652 81.6972L45.7963 82.0145L45.8588 81.6755C46.0799 80.375 44.7771 79.1274 43.8371 78.6034Z" fill="white"/>
</g>
</g>
</g>
<mask id="mask26_76_16631" style="mask-type:luminance" maskUnits="userSpaceOnUse" x="6" y="76" width="31" height="7">
<path d="M6.15332 76H36.9226V82.7693H6.15332V76Z" fill="white"/>
</mask>
<g mask="url(#mask26_76_16631)">
<mask id="mask27_76_16631" style="mask-type:luminance" maskUnits="userSpaceOnUse" x="0" y="47" width="48" height="38">
<path d="M0 47.8269L47.5361 47.3606L47.8942 83.8197L0.358173 84.2861L0 47.8269Z" fill="white"/>
</mask>
<g mask="url(#mask27_76_16631)">
<mask id="mask28_76_16631" style="mask-type:luminance" maskUnits="userSpaceOnUse" x="0" y="47" width="48" height="38">
<path d="M0 47.8269L47.5361 47.3606L47.8942 83.8197L0.358173 84.2861L0 47.8269Z" fill="white"/>
</mask>
<g mask="url(#mask28_76_16631)">
<path d="M36.6487 78.1707L36.6463 77.9447C29.591 77.8005 22.5045 77.3077 15.9035 76.7933C14.5285 76.6947 13.1271 76.5601 11.7713 76.4423C10.7232 76.3486 9.63911 76.2476 8.5742 76.1563C7.21843 76.0481 6.71603 76.464 6.59103 77.8005C6.34584 79.625 7.34824 81.8197 9.38911 82.1923L9.49247 82.2092L9.51891 82.1082C9.96122 80.4592 10.9588 78.4952 13.1824 78.4928C18.3939 78.3029 23.7016 78.2693 28.829 78.2284C31.3891 78.2308 34.043 78.2044 36.6487 78.1707Z" fill="white"/>
</g>
</g>
</g>
<mask id="mask29_76_16631" style="mask-type:luminance" maskUnits="userSpaceOnUse" x="9" y="78" width="11" height="7">
<path d="M9.8457 78.4616H19.6919V84.6154H9.8457V78.4616Z" fill="white"/>
</mask>
<g mask="url(#mask29_76_16631)">
<mask id="mask30_76_16631" style="mask-type:luminance" maskUnits="userSpaceOnUse" x="0" y="47" width="48" height="38">
<path d="M0 47.8269L47.5361 47.3606L47.8942 83.8197L0.358173 84.2861L0 47.8269Z" fill="white"/>
</mask>
<g mask="url(#mask30_76_16631)">
<mask id="mask31_76_16631" style="mask-type:luminance" maskUnits="userSpaceOnUse" x="0" y="47" width="48" height="38">
<path d="M0 47.8269L47.5361 47.3606L47.8942 83.8197L0.358173 84.2861L0 47.8269Z" fill="white"/>
</mask>
<g mask="url(#mask31_76_16631)">
<path d="M17.0115 79.2861C15.3216 78.5192 13.2038 78.726 11.8504 79.7861C10.5427 80.7139 10.0043 82.1394 10.4201 83.5938L10.5379 84.0024L10.6365 83.5817C11.0932 81.6803 12.6028 80.2933 14.497 80.0505C16.372 79.8077 18.1293 80.762 19.0812 82.5361L19.3192 82.9832L19.2951 82.4784C19.2254 81.0769 18.3913 79.9183 17.0115 79.2861Z" fill="white"/>
</g>
</g>
</g>
<mask id="mask32_76_16631" style="mask-type:luminance" maskUnits="userSpaceOnUse" x="47" y="47" width="37" height="28">
<path d="M47.3838 47.0769H83.6915V74.7692H47.3838V47.0769Z" fill="white"/>
</mask>
<g mask="url(#mask32_76_16631)">
<mask id="mask33_76_16631" style="mask-type:luminance" maskUnits="userSpaceOnUse" x="33" y="47" width="52" height="37">
<path d="M33.5107 47.4976L84.2776 47L84.6357 83.4616L33.8689 83.9568L33.5107 47.4976Z" fill="white"/>
</mask>
<g mask="url(#mask33_76_16631)">
<mask id="mask34_76_16631" style="mask-type:luminance" maskUnits="userSpaceOnUse" x="33" y="47" width="52" height="37">
<path d="M33.5107 47.4976L84.2776 47L84.6357 83.4616L33.8689 83.9568L33.5107 47.4976Z" fill="white"/>
</mask>
<g mask="url(#mask34_76_16631)">
<path d="M76.5881 47.1009L54.0376 47.322C53.0545 47.3317 52.1218 48.1225 51.9511 49.0961L47.665 74.2067C48.8742 73.9038 50.0352 73.7307 51.1891 73.6994C51.7492 73.685 52.3117 73.6994 52.8525 73.7451C54.2973 73.8605 55.7131 74.1369 57.1218 74.5744L57.6698 71.3509C57.6987 71.161 57.8886 70.9999 58.0881 70.9975L72.54 70.8461C77.1795 70.8004 81.5641 67.0576 82.3501 62.4999L83.5737 55.3004C84.3501 50.7139 81.2179 47.0552 76.5881 47.1009ZM73.7948 56.6201L72.9775 61.3581C72.8261 62.2235 72.0016 62.9326 71.1194 62.9398L59.4439 63.0552C59.2444 63.0576 59.1122 62.899 59.1506 62.7067L60.3718 55.5384C60.4006 55.3485 60.5905 55.185 60.79 55.1826L72.4655 55.0696C73.3381 55.0504 73.9367 55.7475 73.7948 56.6201Z" fill="white"/>
</g>
</g>
</g>
<mask id="mask35_76_16631" style="mask-type:luminance" maskUnits="userSpaceOnUse" x="33" y="80" width="9" height="3">
<path d="M33.8457 80.9231H41.2303V82.7692H33.8457V80.9231Z" fill="white"/>
</mask>
<g mask="url(#mask35_76_16631)">
<mask id="mask36_76_16631" style="mask-type:luminance" maskUnits="userSpaceOnUse" x="33" y="47" width="52" height="37">
<path d="M33.5107 47.4977L84.2776 47.0001L84.6357 83.4616L33.8689 83.9568L33.5107 47.4977Z" fill="white"/>
</mask>
<g mask="url(#mask36_76_16631)">
<mask id="mask37_76_16631" style="mask-type:luminance" maskUnits="userSpaceOnUse" x="33" y="47" width="52" height="37">
<path d="M33.5107 47.4977L84.2776 47.0001L84.6357 83.4616L33.8689 83.9568L33.5107 47.4977Z" fill="white"/>
</mask>
<g mask="url(#mask37_76_16631)">
<path d="M39.5371 81.3822C37.7631 81.5601 33.8496 82.0288 33.8496 82.0288L40.6285 82.274C40.1934 82.0673 39.8304 81.75 39.5371 81.3822Z" fill="white"/>
</g>
</g>
</g>
<mask id="mask38_76_16631" style="mask-type:luminance" maskUnits="userSpaceOnUse" x="57" y="81" width="8" height="2">
<path d="M57.8457 81.5385H64.6149V82.7693H57.8457V81.5385Z" fill="white"/>
</mask>
<g mask="url(#mask38_76_16631)">
<mask id="mask39_76_16631" style="mask-type:luminance" maskUnits="userSpaceOnUse" x="33" y="47" width="52" height="37">
<path d="M33.5107 47.4976L84.2776 47L84.6357 83.4616L33.8689 83.9568L33.5107 47.4976Z" fill="white"/>
</mask>
<g mask="url(#mask39_76_16631)">
<mask id="mask40_76_16631" style="mask-type:luminance" maskUnits="userSpaceOnUse" x="33" y="47" width="52" height="37">
<path d="M33.5107 47.4976L84.2776 47L84.6357 83.4616L33.8689 83.9568L33.5107 47.4976Z" fill="white"/>
</mask>
<g mask="url(#mask40_76_16631)">
<path d="M58.1191 82.4927L64.3355 82.6826C64.2634 82.4326 64.2225 82.1826 64.2081 81.9326C64.1288 81.923 58.1191 82.4927 58.1191 82.4927Z" fill="white"/>
</g>
</g>
</g>
<mask id="mask41_76_16631" style="mask-type:luminance" maskUnits="userSpaceOnUse" x="59" y="80" width="6" height="3">
<path d="M59.0781 80.3077H64.6166V82.1538H59.0781V80.3077Z" fill="white"/>
</mask>
<g mask="url(#mask41_76_16631)">
<mask id="mask42_76_16631" style="mask-type:luminance" maskUnits="userSpaceOnUse" x="33" y="47" width="52" height="37">
<path d="M33.5127 47.4976L84.2795 47L84.6377 83.4616L33.8709 83.9568L33.5127 47.4976Z" fill="white"/>
</mask>
<g mask="url(#mask42_76_16631)">
<mask id="mask43_76_16631" style="mask-type:luminance" maskUnits="userSpaceOnUse" x="33" y="47" width="52" height="37">
<path d="M33.5127 47.4976L84.2795 47L84.6377 83.4616L33.8709 83.9568L33.5127 47.4976Z" fill="white"/>
</mask>
<g mask="url(#mask43_76_16631)">
<path d="M64.2172 81.5624C64.234 81.2908 64.2917 81.0288 64.3806 80.7788L59.3037 81.3293C59.3037 81.3293 64.1763 81.5624 64.2172 81.5624Z" fill="white"/>
</g>
</g>
</g>
<mask id="mask44_76_16631" style="mask-type:luminance" maskUnits="userSpaceOnUse" x="59" y="79" width="7" height="2">
<path d="M59.6914 79.0769H65.2299V80.9231H59.6914V79.0769Z" fill="white"/>
</mask>
<g mask="url(#mask44_76_16631)">
<mask id="mask45_76_16631" style="mask-type:luminance" maskUnits="userSpaceOnUse" x="33" y="47" width="52" height="37">
<path d="M33.5107 47.4977L84.2776 47.0001L84.6357 83.4616L33.8689 83.9568L33.5107 47.4977Z" fill="white"/>
</mask>
<g mask="url(#mask45_76_16631)">
<mask id="mask46_76_16631" style="mask-type:luminance" maskUnits="userSpaceOnUse" x="33" y="47" width="52" height="37">
<path d="M33.5107 47.4977L84.2776 47.0001L84.6357 83.4616L33.8689 83.9568L33.5107 47.4977Z" fill="white"/>
</mask>
<g mask="url(#mask46_76_16631)">
<path d="M65.079 79.6274L60.293 80.1755C60.293 80.1755 63.9444 80.4111 64.5165 80.4351C64.5934 80.2861 64.6824 80.1346 64.7809 79.9928C64.8699 79.8702 64.9709 79.75 65.079 79.6274Z" fill="white"/>
</g>
</g>
</g>
<mask id="mask47_76_16631" style="mask-type:luminance" maskUnits="userSpaceOnUse" x="34" y="79" width="6" height="3">
<path d="M34.4619 79.6923H39.385V81.5384H34.4619V79.6923Z" fill="white"/>
</mask>
<g mask="url(#mask47_76_16631)">
<mask id="mask48_76_16631" style="mask-type:luminance" maskUnits="userSpaceOnUse" x="33" y="47" width="52" height="37">
<path d="M33.5127 47.4977L84.2795 47.0001L84.6377 83.4616L33.8709 83.9568L33.5127 47.4977Z" fill="white"/>
</mask>
<g mask="url(#mask48_76_16631)">
<mask id="mask49_76_16631" style="mask-type:luminance" maskUnits="userSpaceOnUse" x="33" y="47" width="52" height="37">
<path d="M33.5127 47.4977L84.2795 47.0001L84.6377 83.4616L33.8709 83.9568L33.5127 47.4977Z" fill="white"/>
</mask>
<g mask="url(#mask49_76_16631)">
<path d="M38.9253 80.2357C38.8555 80.2357 34.8291 80.7357 34.8291 80.7357L39.2618 80.9833C39.1296 80.7453 39.0166 80.4953 38.9253 80.2357Z" fill="white"/>
</g>
</g>
</g>
<mask id="mask50_76_16631" style="mask-type:luminance" maskUnits="userSpaceOnUse" x="35" y="79" width="5" height="2">
<path d="M35.6914 79.0769H39.3837V80.3077H35.6914V79.0769Z" fill="white"/>
</mask>
<g mask="url(#mask50_76_16631)">
<mask id="mask51_76_16631" style="mask-type:luminance" maskUnits="userSpaceOnUse" x="33" y="47" width="52" height="37">
<path d="M33.5107 47.4977L84.2776 47.0001L84.6357 83.4616L33.8689 83.9568L33.5107 47.4977Z" fill="white"/>
</mask>
<g mask="url(#mask51_76_16631)">
<mask id="mask52_76_16631" style="mask-type:luminance" maskUnits="userSpaceOnUse" x="33" y="47" width="52" height="37">
<path d="M33.5107 47.4977L84.2776 47.0001L84.6357 83.4616L33.8689 83.9568L33.5107 47.4977Z" fill="white"/>
</mask>
<g mask="url(#mask52_76_16631)">
<path d="M38.713 79.1563C38.6722 79.1563 35.9102 79.5241 35.9102 79.5241L38.7876 79.7261C38.7467 79.5361 38.7251 79.3462 38.713 79.1563Z" fill="white"/>
</g>
</g>
</g>
<mask id="mask53_76_16631" style="mask-type:luminance" maskUnits="userSpaceOnUse" x="41" y="74" width="32" height="10">
<path d="M41.2305 74.1539H72.6151V83.3846H41.2305V74.1539Z" fill="white"/>
</mask>
<g mask="url(#mask53_76_16631)">
<mask id="mask54_76_16631" style="mask-type:luminance" maskUnits="userSpaceOnUse" x="33" y="47" width="52" height="37">
<path d="M33.5127 47.4977L84.2795 47.0001L84.6377 83.4616L33.8709 83.9568L33.5127 47.4977Z" fill="white"/>
</mask>
<g mask="url(#mask54_76_16631)">
<mask id="mask55_76_16631" style="mask-type:luminance" maskUnits="userSpaceOnUse" x="33" y="47" width="52" height="37">
<path d="M33.5127 47.4977L84.2795 47.0001L84.6377 83.4616L33.8709 83.9568L33.5127 47.4977Z" fill="white"/>
</mask>
<g mask="url(#mask55_76_16631)">
<path d="M70.4374 79.125C68.5407 77.9904 66.334 77.7308 64.2066 77.4832C63.7138 77.4279 63.2018 77.3606 62.7018 77.2957C61.9494 77.2139 61.2643 77 60.62 76.6659C58.0215 75.3077 55.4566 74.5409 52.8099 74.3269C50.6633 74.1562 48.4494 74.4687 46.0431 75.3053C45.7042 75.4086 45.3532 75.5216 45.0143 75.6346C43.9542 75.9856 42.8652 76.3485 41.745 76.4303H41.6729L41.6152 76.7019L41.697 76.7308C42.4806 76.9543 43.3027 76.9952 44.096 77.0264C44.5263 77.0433 44.9686 77.0697 45.3893 77.1154C46.6224 77.1827 47.8676 77.2909 49.0816 77.399C50.8869 77.5625 52.7523 77.7235 54.5864 77.7572L54.6056 77.5673C51.8724 77.012 49.4229 76.6659 47.1369 76.4856C48.6417 75.5601 50.8724 75.1466 53.4494 75.3317C55.8172 75.5 58.1994 76.1683 59.8436 77.113C59.745 77.3966 59.5239 77.4183 59.1633 77.4519C59.0936 77.4519 59.0239 77.4639 58.9542 77.4735L58.7426 77.4952L58.9061 77.6346C59.2907 77.9711 59.7018 78.1178 60.2042 78.113L60.4926 78.101C62.959 78.0144 65.4926 77.9207 67.8749 78.5985C66.745 78.7812 65.6994 79.3822 65.1152 80.2091C64.6104 80.9159 64.4782 81.75 64.7282 82.5985L64.8316 82.9495L64.9085 82.5865C65.2811 80.9086 66.5744 79.7139 68.1946 79.5385C69.7979 79.363 71.2402 80.1995 71.9566 81.726L72.0792 81.9856L72.1369 81.7043C72.3268 80.6202 71.233 79.5673 70.4374 79.125Z" fill="white"/>
</g>
</g>
</g>
<mask id="mask56_76_16631" style="mask-type:luminance" maskUnits="userSpaceOnUse" x="38" y="76" width="27" height="7">
<path d="M38.7686 76.6153H64.6147V82.7692H38.7686V76.6153Z" fill="white"/>
</mask>
<g mask="url(#mask56_76_16631)">
<mask id="mask57_76_16631" style="mask-type:luminance" maskUnits="userSpaceOnUse" x="33" y="47" width="52" height="37">
<path d="M33.5107 47.4976L84.2776 47L84.6357 83.4616L33.8689 83.9568L33.5107 47.4976Z" fill="white"/>
</mask>
<g mask="url(#mask57_76_16631)">
<mask id="mask58_76_16631" style="mask-type:luminance" maskUnits="userSpaceOnUse" x="33" y="47" width="52" height="37">
<path d="M33.5107 47.4976L84.2776 47L84.6357 83.4616L33.8689 83.9568L33.5107 47.4976Z" fill="white"/>
</mask>
<g mask="url(#mask58_76_16631)">
<path d="M64.3882 78.7644L64.3858 78.5721C58.4507 78.4495 52.4939 78.0385 46.9459 77.6106C45.7824 77.5216 44.6093 77.4135 43.4651 77.3149C42.5829 77.2332 41.6694 77.1514 40.7776 77.0793C39.643 76.9904 39.2151 77.3365 39.1069 78.4687C38.9002 80.0048 39.7415 81.851 41.4579 82.1659L41.5492 82.1851L41.5685 82.1034C41.9362 80.7163 42.78 79.0649 44.655 79.0673C49.0444 78.9038 53.5036 78.8798 57.8137 78.8486C59.9675 78.8173 62.2031 78.7957 64.3882 78.7644Z" fill="white"/>
</g>
</g>
</g>
<mask id="mask59_76_16631" style="mask-type:luminance" maskUnits="userSpaceOnUse" x="41" y="79" width="9" height="5">
<path d="M41.8467 79.0769H49.8467V84H41.8467V79.0769Z" fill="white"/>
</mask>
<g mask="url(#mask59_76_16631)">
<mask id="mask60_76_16631" style="mask-type:luminance" maskUnits="userSpaceOnUse" x="33" y="47" width="52" height="37">
<path d="M33.5127 47.4977L84.2795 47.0001L84.6377 83.4616L33.8709 83.9568L33.5127 47.4977Z" fill="white"/>
</mask>
<g mask="url(#mask60_76_16631)">
<mask id="mask61_76_16631" style="mask-type:luminance" maskUnits="userSpaceOnUse" x="33" y="47" width="52" height="37">
<path d="M33.5127 47.4977L84.2795 47.0001L84.6377 83.4616L33.8709 83.9568L33.5127 47.4977Z" fill="white"/>
</mask>
<g mask="url(#mask61_76_16631)">
<path d="M47.8799 79.7067C46.4617 79.0601 44.678 79.238 43.5434 80.1202C42.44 80.9038 41.9905 82.1009 42.3439 83.3197L42.4376 83.6682L42.5242 83.3173C42.9088 81.7211 44.1804 80.5553 45.7718 80.3485C47.3535 80.1418 48.8246 80.9495 49.6203 82.4471L49.815 82.8149L49.791 82.3942C49.7405 81.2115 49.0386 80.2356 47.8799 79.7067Z" fill="white"/>
</g>
</g>
</g>
<mask id="mask62_76_16631" style="mask-type:luminance" maskUnits="userSpaceOnUse" x="78" y="46" width="37" height="30">
<path d="M78.7686 46.4615H114.461V75.3846H78.7686V46.4615Z" fill="white"/>
</mask>
<g mask="url(#mask62_76_16631)">
<mask id="mask63_76_16631" style="mask-type:luminance" maskUnits="userSpaceOnUse" x="68" y="46" width="53" height="38">
<path d="M68.0352 47.1611L119.725 46.6538L120.081 83.113L68.3909 83.6202L68.0352 47.1611Z" fill="white"/>
</mask>
<g mask="url(#mask63_76_16631)">
<mask id="mask64_76_16631" style="mask-type:luminance" maskUnits="userSpaceOnUse" x="68" y="46" width="53" height="38">
<path d="M68.0352 47.1611L119.725 46.6538L120.081 83.113L68.3909 83.6202L68.0352 47.1611Z" fill="white"/>
</mask>
<g mask="url(#mask64_76_16631)">
<path d="M84.5466 71.315C87.0731 70.4448 89.4192 69.9785 91.7269 69.904C92.4793 69.8751 93.2317 69.8992 93.9649 69.9544C97.6476 70.2573 101.184 71.3174 104.777 73.1876C105.566 73.6035 106.393 73.8535 107.301 73.9569C107.311 73.9569 107.311 73.9569 107.321 73.9569C107.982 74.053 108.662 74.1299 109.323 74.2044C110.871 74.3847 112.45 74.5674 113.989 74.9328L105.051 48.416C104.467 46.803 102.934 46.8607 102.934 46.8607C102.119 46.8679 101.407 46.8535 100.758 46.8607C100.573 46.8631 100.417 46.8631 100.232 46.8655L100.006 46.8679C99.501 46.8631 99.037 46.8679 98.6043 46.8823V46.9112C98.5947 46.9136 98.5947 46.9136 98.5827 46.9136V46.8919C97.0058 46.9689 95.8447 47.279 94.9505 48.5145L79.2822 72.7669C80.5803 72.6203 81.8856 72.1852 83.1476 71.7718C83.5803 71.6227 84.0731 71.4641 84.5466 71.315ZM98.8351 58.9593L101.45 66.9737L93.638 67.0506L98.8351 58.9593Z" fill="white"/>
</g>
</g>
</g>
<mask id="mask65_76_16631" style="mask-type:luminance" maskUnits="userSpaceOnUse" x="68" y="79" width="10" height="3">
<path d="M68.3076 79.6923H77.5384V81.5384H68.3076V79.6923Z" fill="white"/>
</mask>
<g mask="url(#mask65_76_16631)">
<mask id="mask66_76_16631" style="mask-type:luminance" maskUnits="userSpaceOnUse" x="68" y="46" width="53" height="38">
<path d="M68.0352 47.1611L119.725 46.6539L120.081 83.113L68.3909 83.6202L68.0352 47.1611Z" fill="white"/>
</mask>
<g mask="url(#mask66_76_16631)">
<mask id="mask67_76_16631" style="mask-type:luminance" maskUnits="userSpaceOnUse" x="68" y="46" width="53" height="38">
<path d="M68.0352 47.1611L119.725 46.6539L120.081 83.113L68.3909 83.6202L68.0352 47.1611Z" fill="white"/>
</mask>
<g mask="url(#mask67_76_16631)">
<path d="M76.0348 80.2524C73.6454 80.4904 68.3857 81.1298 68.3857 81.1298L77.5011 81.4544C76.9194 81.1707 76.4314 80.7524 76.0348 80.2524Z" fill="white"/>
</g>
</g>
</g>
<mask id="mask68_76_16631" style="mask-type:luminance" maskUnits="userSpaceOnUse" x="100" y="80" width="10" height="3">
<path d="M100.923 80.9231H109.538V82.1539H100.923V80.9231Z" fill="white"/>
</mask>
<g mask="url(#mask68_76_16631)">
<mask id="mask69_76_16631" style="mask-type:luminance" maskUnits="userSpaceOnUse" x="68" y="46" width="53" height="38">
<path d="M68.0352 47.1611L119.725 46.6538L120.081 83.113L68.3909 83.6202L68.0352 47.1611Z" fill="white"/>
</mask>
<g mask="url(#mask69_76_16631)">
<mask id="mask70_76_16631" style="mask-type:luminance" maskUnits="userSpaceOnUse" x="68" y="46" width="53" height="38">
<path d="M68.0352 47.1611L119.725 46.6538L120.081 83.113L68.3909 83.6202L68.0352 47.1611Z" fill="white"/>
</mask>
<g mask="url(#mask70_76_16631)">
<path d="M101.045 81.7501L109.408 81.9977C109.312 81.6587 109.256 81.3174 109.244 80.9881C109.129 80.9784 101.045 81.7501 101.045 81.7501Z" fill="white"/>
</g>
</g>
</g>
<mask id="mask71_76_16631" style="mask-type:luminance" maskUnits="userSpaceOnUse" x="102" y="79" width="8" height="2">
<path d="M102.153 79.0769H109.538V80.9231H102.153V79.0769Z" fill="white"/>
</mask>
<g mask="url(#mask71_76_16631)">
<mask id="mask72_76_16631" style="mask-type:luminance" maskUnits="userSpaceOnUse" x="68" y="46" width="53" height="38">
<path d="M68.0352 47.1611L119.725 46.6538L120.081 83.113L68.3909 83.6202L68.0352 47.1611Z" fill="white"/>
</mask>
<g mask="url(#mask72_76_16631)">
<mask id="mask73_76_16631" style="mask-type:luminance" maskUnits="userSpaceOnUse" x="68" y="46" width="53" height="38">
<path d="M68.0352 47.1611L119.725 46.6538L120.081 83.113L68.3909 83.6202L68.0352 47.1611Z" fill="white"/>
</mask>
<g mask="url(#mask73_76_16631)">
<path d="M109.249 80.4832C109.276 80.1227 109.345 79.7717 109.466 79.4304L102.639 80.178C102.639 80.178 109.196 80.4929 109.249 80.4832Z" fill="white"/>
</g>
</g>
</g>
<mask id="mask74_76_16631" style="mask-type:luminance" maskUnits="userSpaceOnUse" x="103" y="77" width="8" height="3">
<path d="M103.385 77.8462H110.769V79.0769H103.385V77.8462Z" fill="white"/>
</mask>
<g mask="url(#mask74_76_16631)">
<mask id="mask75_76_16631" style="mask-type:luminance" maskUnits="userSpaceOnUse" x="68" y="46" width="53" height="38">
<path d="M68.0352 47.1611L119.725 46.6538L120.081 83.113L68.3909 83.6202L68.0352 47.1611Z" fill="white"/>
</mask>
<g mask="url(#mask75_76_16631)">
<mask id="mask76_76_16631" style="mask-type:luminance" maskUnits="userSpaceOnUse" x="68" y="46" width="53" height="38">
<path d="M68.0352 47.1611L119.725 46.6538L120.081 83.113L68.3909 83.6202L68.0352 47.1611Z" fill="white"/>
</mask>
<g mask="url(#mask76_76_16631)">
<path d="M110.42 77.8942L103.973 78.6274C103.973 78.6274 108.893 78.9399 109.667 78.9856C109.768 78.7764 109.891 78.5793 110.033 78.3822C110.134 78.2163 110.266 78.0505 110.42 77.8942Z" fill="white"/>
</g>
</g>
</g>
<mask id="mask77_76_16631" style="mask-type:luminance" maskUnits="userSpaceOnUse" x="69" y="78" width="7" height="3">
<path d="M69.5371 78.4616H75.691V80.3077H69.5371V78.4616Z" fill="white"/>
</mask>
<g mask="url(#mask77_76_16631)">
<mask id="mask78_76_16631" style="mask-type:luminance" maskUnits="userSpaceOnUse" x="68" y="46" width="53" height="38">
<path d="M68.0352 47.1611L119.725 46.6538L120.081 83.113L68.3909 83.6202L68.0352 47.1611Z" fill="white"/>
</mask>
<g mask="url(#mask78_76_16631)">
<mask id="mask79_76_16631" style="mask-type:luminance" maskUnits="userSpaceOnUse" x="68" y="46" width="53" height="38">
<path d="M68.0352 47.1611L119.725 46.6538L120.081 83.113L68.3909 83.6202L68.0352 47.1611Z" fill="white"/>
</mask>
<g mask="url(#mask79_76_16631)">
<path d="M75.2151 78.7044C75.1237 78.7044 69.6982 79.3751 69.6982 79.3751L75.6694 79.6996C75.4795 79.3919 75.3329 79.053 75.2151 78.7044Z" fill="white"/>
</g>
</g>
</g>
<mask id="mask80_76_16631" style="mask-type:luminance" maskUnits="userSpaceOnUse" x="70" y="77" width="6" height="2">
<path d="M70.7695 77.2307H75.0772V78.4615H70.7695V77.2307Z" fill="white"/>
</mask>
<g mask="url(#mask80_76_16631)">
<mask id="mask81_76_16631" style="mask-type:luminance" maskUnits="userSpaceOnUse" x="68" y="46" width="53" height="38">
<path d="M68.0352 47.1611L119.725 46.6538L120.081 83.113L68.3909 83.6202L68.0352 47.1611Z" fill="white"/>
</mask>
<g mask="url(#mask81_76_16631)">
<mask id="mask82_76_16631" style="mask-type:luminance" maskUnits="userSpaceOnUse" x="68" y="46" width="53" height="38">
<path d="M68.0352 47.1611L119.725 46.6538L120.081 83.113L68.3909 83.6202L68.0352 47.1611Z" fill="white"/>
</mask>
<g mask="url(#mask82_76_16631)">
<path d="M74.9352 77.2525C74.8824 77.2525 71.166 77.7525 71.166 77.7525L75.0362 78.0241C74.9809 77.7669 74.9473 77.5097 74.9352 77.2525Z" fill="white"/>
</g>
</g>
</g>
<mask id="mask83_76_16631" style="mask-type:luminance" maskUnits="userSpaceOnUse" x="78" y="70" width="42" height="13">
<path d="M78.7686 70.4615H119.999V82.7692H78.7686V70.4615Z" fill="white"/>
</mask>
<g mask="url(#mask83_76_16631)">
<mask id="mask84_76_16631" style="mask-type:luminance" maskUnits="userSpaceOnUse" x="68" y="46" width="53" height="38">
<path d="M68.0352 47.1611L119.725 46.6538L120.081 83.113L68.3909 83.6202L68.0352 47.1611Z" fill="white"/>
</mask>
<g mask="url(#mask84_76_16631)">
<mask id="mask85_76_16631" style="mask-type:luminance" maskUnits="userSpaceOnUse" x="68" y="46" width="53" height="38">
<path d="M68.0352 47.1611L119.725 46.6538L120.081 83.113L68.3909 83.6202L68.0352 47.1611Z" fill="white"/>
</mask>
<g mask="url(#mask85_76_16631)">
<path d="M117.629 77.2164C115.076 75.6851 112.105 75.3438 109.237 75.0096C108.566 74.9351 107.883 74.8486 107.213 74.762C106.203 74.6491 105.282 74.3678 104.412 73.9135C100.91 72.0817 97.4675 71.0529 93.8978 70.7692C91.0084 70.5385 88.0349 70.9712 84.7897 72.0842C84.3257 72.2236 83.8546 72.3822 83.4002 72.5313C81.9724 73 80.5036 73.488 79.0012 73.6058L78.9075 73.6154L78.8281 73.988L78.9435 74.0192C79.9964 74.3269 81.0998 74.3678 82.1623 74.4183C82.7392 74.4447 83.3281 74.4688 83.905 74.5361C85.5661 74.6346 87.2464 74.7717 88.8666 74.9207C91.3017 75.1346 93.8185 75.3558 96.2825 75.3942L96.3113 75.1467C92.6358 74.3991 89.3425 73.9255 86.2584 73.6995C88.2752 72.4423 91.28 71.8967 94.756 72.1418C97.9435 72.3678 101.148 73.2644 103.357 74.5313C103.225 74.9039 102.936 74.9471 102.444 74.9832C102.35 74.9952 102.258 74.9952 102.155 75.0072L101.867 75.0409L102.085 75.2356C102.595 75.6827 103.153 75.8942 103.833 75.8774L104.215 75.863C107.523 75.7476 110.944 75.6226 114.148 76.5385C112.633 76.7813 111.22 77.5986 110.427 78.7092C109.746 79.6635 109.571 80.7789 109.903 81.9207L110.04 82.3918L110.148 81.9063C110.653 79.6563 112.388 78.0409 114.583 77.8029C116.744 77.5649 118.684 78.6995 119.641 80.7524L119.809 81.101L119.888 80.7188C120.162 79.2332 118.684 77.8149 117.629 77.2164Z" fill="white"/>
</g>
</g>
</g>
<mask id="mask86_76_16631" style="mask-type:luminance" maskUnits="userSpaceOnUse" x="75" y="74" width="35" height="8">
<path d="M75.0762 74.1539H109.538V81.5385H75.0762V74.1539Z" fill="white"/>
</mask>
<g mask="url(#mask86_76_16631)">
<mask id="mask87_76_16631" style="mask-type:luminance" maskUnits="userSpaceOnUse" x="68" y="46" width="53" height="38">
<path d="M68.0352 47.1611L119.725 46.6538L120.081 83.113L68.3909 83.6202L68.0352 47.1611Z" fill="white"/>
</mask>
<g mask="url(#mask87_76_16631)">
<mask id="mask88_76_16631" style="mask-type:luminance" maskUnits="userSpaceOnUse" x="68" y="46" width="53" height="38">
<path d="M68.0352 47.1611L119.725 46.6538L120.081 83.113L68.3909 83.6202L68.0352 47.1611Z" fill="white"/>
</mask>
<g mask="url(#mask88_76_16631)">
<path d="M109.49 76.7285L109.488 76.4713C101.498 76.3126 93.4831 75.7525 86.0168 75.1756C84.4591 75.0578 82.8701 74.9184 81.3317 74.779C80.1466 74.666 78.9182 74.5554 77.7115 74.4641C76.1851 74.3343 75.6105 74.8126 75.4711 76.3295C75.2043 78.3944 76.3317 80.8775 78.6346 81.2982L78.7476 81.3174L78.7764 81.2045C79.274 79.3343 80.4062 77.1179 82.9206 77.1227C88.8269 76.9112 94.8245 76.8631 100.627 76.8271C103.534 76.7982 106.543 76.779 109.49 76.7285Z" fill="white"/>
</g>
</g>
</g>
<mask id="mask89_76_16631" style="mask-type:luminance" maskUnits="userSpaceOnUse" x="79" y="77" width="12" height="7">
<path d="M79.3848 77.2307H90.4617V83.3846H79.3848V77.2307Z" fill="white"/>
</mask>
<g mask="url(#mask89_76_16631)">
<mask id="mask90_76_16631" style="mask-type:luminance" maskUnits="userSpaceOnUse" x="68" y="46" width="53" height="38">
<path d="M68.0352 47.1611L119.725 46.6538L120.081 83.113L68.3909 83.6202L68.0352 47.1611Z" fill="white"/>
</mask>
<g mask="url(#mask90_76_16631)">
<mask id="mask91_76_16631" style="mask-type:luminance" maskUnits="userSpaceOnUse" x="68" y="46" width="53" height="38">
<path d="M68.0352 47.1611L119.725 46.6538L120.081 83.113L68.3909 83.6202L68.0352 47.1611Z" fill="white"/>
</mask>
<g mask="url(#mask91_76_16631)">
<path d="M87.2697 77.9976C85.3539 77.1298 82.9548 77.3606 81.4308 78.5601C79.9476 79.6058 79.3443 81.2188 79.813 82.863L79.9428 83.327L80.051 82.851C80.5654 80.702 82.2818 79.1298 84.414 78.851C86.5342 78.5722 88.5245 79.6563 89.6039 81.6659L89.8683 82.1683L89.8419 81.601C89.7649 80.0241 88.8226 78.7044 87.2697 77.9976Z" fill="white"/>
</g>
</g>
</g>
</svg>
